<svg xmlns="http://www.w3.org/2000/svg" xmlns:xlink="http://www.w3.org/1999/xlink" class="httpgd" width="913.00" height="638.00" viewBox="0 0 730.40 510.40">
<defs>
  <style type='text/css'><![CDATA[
    .httpgd line, .httpgd polyline, .httpgd polygon, .httpgd path, .httpgd rect, .httpgd circle {
      fill: none;
      stroke: #000000;
      stroke-linecap: round;
      stroke-linejoin: round;
      stroke-miterlimit: 10.00;
    }
  ]]></style>
<clipPath id="c0"><rect x="0.00" y="0.00" width="730.40" height="510.40"/></clipPath>
<clipPath id="c1"><rect x="59.04" y="59.04" width="641.12" height="122.72"/></clipPath>
<clipPath id="c2"><rect x="0.00" y="0.00" width="730.40" height="510.40"/></clipPath>
<clipPath id="c3"><rect x="0.00" y="0.00" width="730.40" height="255.20"/></clipPath>
<clipPath id="c4"><rect x="59.04" y="314.24" width="641.12" height="122.72"/></clipPath>
<clipPath id="c5"><rect x="0.00" y="0.00" width="730.40" height="510.40"/></clipPath>
<clipPath id="c6"><rect x="0.00" y="255.20" width="730.40" height="255.20"/></clipPath>
<clipPath id="c7"><rect x="59.04" y="314.24" width="641.12" height="122.72"/></clipPath>
</defs>
<rect width="100%" height="100%" style="stroke: none;fill: #FFFFFF;"/>
<g clip-path="url(#c0)">
</g><g clip-path="url(#c1)">
<circle cx="547.54" cy="88.02" r="2.70" style="stroke-width: 0.75;stroke: #0000FF;"/>
<circle cx="216.59" cy="151.10" r="2.70" style="stroke-width: 0.75;stroke: #0000FF;"/>
<circle cx="429.83" cy="109.73" r="2.70" style="stroke-width: 0.75;stroke: #0000FF;"/>
<circle cx="262.07" cy="142.51" r="2.70" style="stroke-width: 0.75;stroke: #0000FF;"/>
<circle cx="360.87" cy="125.79" r="2.70" style="stroke-width: 0.75;stroke: #0000FF;"/>
<circle cx="434.88" cy="108.74" r="2.70" style="stroke-width: 0.75;stroke: #0000FF;"/>
<circle cx="475.11" cy="102.32" r="2.70" style="stroke-width: 0.75;stroke: #0000FF;"/>
<circle cx="365.40" cy="124.28" r="2.70" style="stroke-width: 0.75;stroke: #0000FF;"/>
<circle cx="377.36" cy="120.55" r="2.70" style="stroke-width: 0.75;stroke: #0000FF;"/>
<circle cx="522.02" cy="91.94" r="2.70" style="stroke-width: 0.75;stroke: #0000FF;"/>
<circle cx="511.84" cy="93.90" r="2.70" style="stroke-width: 0.75;stroke: #0000FF;"/>
<circle cx="433.18" cy="109.06" r="2.70" style="stroke-width: 0.75;stroke: #0000FF;"/>
<circle cx="428.17" cy="110.25" r="2.70" style="stroke-width: 0.75;stroke: #0000FF;"/>
<circle cx="468.63" cy="102.76" r="2.70" style="stroke-width: 0.75;stroke: #0000FF;"/>
<circle cx="600.68" cy="75.43" r="2.70" style="stroke-width: 0.75;stroke: #0000FF;"/>
<circle cx="410.58" cy="112.89" r="2.70" style="stroke-width: 0.75;stroke: #0000FF;"/>
<circle cx="404.42" cy="114.29" r="2.70" style="stroke-width: 0.75;stroke: #0000FF;"/>
<circle cx="392.30" cy="115.64" r="2.70" style="stroke-width: 0.75;stroke: #0000FF;"/>
<circle cx="481.97" cy="100.59" r="2.70" style="stroke-width: 0.75;stroke: #0000FF;"/>
<circle cx="424.89" cy="110.50" r="2.70" style="stroke-width: 0.75;stroke: #0000FF;"/>
<circle cx="372.89" cy="121.35" r="2.70" style="stroke-width: 0.75;stroke: #0000FF;"/>
<circle cx="401.36" cy="114.45" r="2.70" style="stroke-width: 0.75;stroke: #0000FF;"/>
<circle cx="340.75" cy="127.90" r="2.70" style="stroke-width: 0.75;stroke: #0000FF;"/>
<circle cx="363.89" cy="124.53" r="2.70" style="stroke-width: 0.75;stroke: #0000FF;"/>
<circle cx="407.49" cy="113.18" r="2.70" style="stroke-width: 0.75;stroke: #0000FF;"/>
<circle cx="412.14" cy="112.55" r="2.70" style="stroke-width: 0.75;stroke: #0000FF;"/>
<circle cx="378.85" cy="120.11" r="2.70" style="stroke-width: 0.75;stroke: #0000FF;"/>
<circle cx="281.85" cy="139.85" r="2.70" style="stroke-width: 0.75;stroke: #0000FF;"/>
<circle cx="339.16" cy="127.90" r="2.70" style="stroke-width: 0.75;stroke: #0000FF;"/>
<circle cx="399.84" cy="114.87" r="2.70" style="stroke-width: 0.75;stroke: #0000FF;"/>
<circle cx="329.37" cy="129.10" r="2.70" style="stroke-width: 0.75;stroke: #0000FF;"/>
<circle cx="304.57" cy="132.80" r="2.70" style="stroke-width: 0.75;stroke: #0000FF;"/>
<circle cx="274.85" cy="140.94" r="2.70" style="stroke-width: 0.75;stroke: #0000FF;"/>
<circle cx="351.71" cy="126.54" r="2.70" style="stroke-width: 0.75;stroke: #0000FF;"/>
<circle cx="418.45" cy="111.41" r="2.70" style="stroke-width: 0.75;stroke: #0000FF;"/>
<circle cx="348.62" cy="126.67" r="2.70" style="stroke-width: 0.75;stroke: #0000FF;"/>
<circle cx="402.89" cy="114.42" r="2.70" style="stroke-width: 0.75;stroke: #0000FF;"/>
<circle cx="302.65" cy="133.18" r="2.70" style="stroke-width: 0.75;stroke: #0000FF;"/>
<circle cx="395.31" cy="115.38" r="2.70" style="stroke-width: 0.75;stroke: #0000FF;"/>
<circle cx="225.51" cy="149.25" r="2.70" style="stroke-width: 0.75;stroke: #0000FF;"/>
<circle cx="187.17" cy="163.10" r="2.70" style="stroke-width: 0.75;stroke: #0000FF;"/>
<circle cx="331.03" cy="128.80" r="2.70" style="stroke-width: 0.75;stroke: #0000FF;"/>
<circle cx="413.71" cy="112.22" r="2.70" style="stroke-width: 0.75;stroke: #0000FF;"/>
<circle cx="486.78" cy="100.21" r="2.70" style="stroke-width: 0.75;stroke: #0000FF;"/>
<circle cx="635.85" cy="65.68" r="2.70" style="stroke-width: 0.75;stroke: #0000FF;"/>
<circle cx="322.61" cy="130.08" r="2.70" style="stroke-width: 0.75;stroke: #0000FF;"/>
<circle cx="300.71" cy="135.48" r="2.70" style="stroke-width: 0.75;stroke: #0000FF;"/>
<circle cx="374.38" cy="120.91" r="2.70" style="stroke-width: 0.75;stroke: #0000FF;"/>
<circle cx="484.35" cy="100.44" r="2.70" style="stroke-width: 0.75;stroke: #0000FF;"/>
<circle cx="279.56" cy="140.29" r="2.70" style="stroke-width: 0.75;stroke: #0000FF;"/>
<circle cx="384.82" cy="116.66" r="2.70" style="stroke-width: 0.75;stroke: #0000FF;"/>
<circle cx="294.72" cy="136.60" r="2.70" style="stroke-width: 0.75;stroke: #0000FF;"/>
<circle cx="477.35" cy="102.26" r="2.70" style="stroke-width: 0.75;stroke: #0000FF;"/>
<circle cx="310.19" cy="131.96" r="2.70" style="stroke-width: 0.75;stroke: #0000FF;"/>
<circle cx="315.62" cy="130.79" r="2.70" style="stroke-width: 0.75;stroke: #0000FF;"/>
<circle cx="415.28" cy="112.05" r="2.70" style="stroke-width: 0.75;stroke: #0000FF;"/>
<circle cx="489.27" cy="100.11" r="2.70" style="stroke-width: 0.75;stroke: #0000FF;"/>
<circle cx="460.46" cy="104.77" r="2.70" style="stroke-width: 0.75;stroke: #0000FF;"/>
<circle cx="366.90" cy="124.27" r="2.70" style="stroke-width: 0.75;stroke: #0000FF;"/>
<circle cx="494.44" cy="98.57" r="2.70" style="stroke-width: 0.75;stroke: #0000FF;"/>
<circle cx="472.91" cy="102.58" r="2.70" style="stroke-width: 0.75;stroke: #0000FF;"/>
<circle cx="450.86" cy="106.35" r="2.70" style="stroke-width: 0.75;stroke: #0000FF;"/>
<circle cx="505.67" cy="96.57" r="2.70" style="stroke-width: 0.75;stroke: #0000FF;"/>
<circle cx="438.31" cy="108.04" r="2.70" style="stroke-width: 0.75;stroke: #0000FF;"/>
<circle cx="445.38" cy="107.01" r="2.70" style="stroke-width: 0.75;stroke: #0000FF;"/>
<circle cx="479.64" cy="100.88" r="2.70" style="stroke-width: 0.75;stroke: #0000FF;"/>
<circle cx="572.03" cy="81.94" r="2.70" style="stroke-width: 0.75;stroke: #0000FF;"/>
<circle cx="335.94" cy="127.95" r="2.70" style="stroke-width: 0.75;stroke: #0000FF;"/>
<circle cx="288.45" cy="137.92" r="2.70" style="stroke-width: 0.75;stroke: #0000FF;"/>
<circle cx="247.36" cy="144.81" r="2.70" style="stroke-width: 0.75;stroke: #0000FF;"/>
<circle cx="354.78" cy="126.22" r="2.70" style="stroke-width: 0.75;stroke: #0000FF;"/>
<circle cx="421.65" cy="111.14" r="2.70" style="stroke-width: 0.75;stroke: #0000FF;"/>
<circle cx="502.73" cy="97.47" r="2.70" style="stroke-width: 0.75;stroke: #0000FF;"/>
<circle cx="515.10" cy="93.42" r="2.70" style="stroke-width: 0.75;stroke: #0000FF;"/>
<circle cx="409.03" cy="113.11" r="2.70" style="stroke-width: 0.75;stroke: #0000FF;"/>
<circle cx="589.40" cy="77.68" r="2.70" style="stroke-width: 0.75;stroke: #0000FF;"/>
<circle cx="342.34" cy="127.77" r="2.70" style="stroke-width: 0.75;stroke: #0000FF;"/>
<circle cx="158.52" cy="164.96" r="2.70" style="stroke-width: 0.75;stroke: #0000FF;"/>
<circle cx="676.41" cy="63.59" r="2.70" style="stroke-width: 0.75;stroke: #0000FF;"/>
<circle cx="431.50" cy="109.47" r="2.70" style="stroke-width: 0.75;stroke: #0000FF;"/>
<circle cx="552.84" cy="87.38" r="2.70" style="stroke-width: 0.75;stroke: #0000FF;"/>
<circle cx="466.54" cy="103.24" r="2.70" style="stroke-width: 0.75;stroke: #0000FF;"/>
<circle cx="441.81" cy="107.62" r="2.70" style="stroke-width: 0.75;stroke: #0000FF;"/>
<circle cx="334.31" cy="128.38" r="2.70" style="stroke-width: 0.75;stroke: #0000FF;"/>
<circle cx="454.63" cy="106.09" r="2.70" style="stroke-width: 0.75;stroke: #0000FF;"/>
<circle cx="580.05" cy="79.05" r="2.70" style="stroke-width: 0.75;stroke: #0000FF;"/>
<circle cx="369.90" cy="122.04" r="2.70" style="stroke-width: 0.75;stroke: #0000FF;"/>
<circle cx="277.23" cy="140.56" r="2.70" style="stroke-width: 0.75;stroke: #0000FF;"/>
<circle cx="250.50" cy="144.48" r="2.70" style="stroke-width: 0.75;stroke: #0000FF;"/>
<circle cx="518.49" cy="91.98" r="2.70" style="stroke-width: 0.75;stroke: #0000FF;"/>
<circle cx="464.48" cy="103.63" r="2.70" style="stroke-width: 0.75;stroke: #0000FF;"/>
<circle cx="317.39" cy="130.62" r="2.70" style="stroke-width: 0.75;stroke: #0000FF;"/>
<circle cx="558.62" cy="86.61" r="2.70" style="stroke-width: 0.75;stroke: #0000FF;"/>
<circle cx="259.31" cy="142.91" r="2.70" style="stroke-width: 0.75;stroke: #0000FF;"/>
<circle cx="359.36" cy="125.93" r="2.70" style="stroke-width: 0.75;stroke: #0000FF;"/>
<circle cx="396.82" cy="115.32" r="2.70" style="stroke-width: 0.75;stroke: #0000FF;"/>
<circle cx="405.95" cy="113.21" r="2.70" style="stroke-width: 0.75;stroke: #0000FF;"/>
<circle cx="169.80" cy="163.65" r="2.70" style="stroke-width: 0.75;stroke: #0000FF;"/>
<circle cx="312.01" cy="131.21" r="2.70" style="stroke-width: 0.75;stroke: #0000FF;"/>
<circle cx="244.10" cy="144.88" r="2.70" style="stroke-width: 0.75;stroke: #0000FF;"/>
<circle cx="393.80" cy="115.45" r="2.70" style="stroke-width: 0.75;stroke: #0000FF;"/>
<circle cx="264.76" cy="142.30" r="2.70" style="stroke-width: 0.75;stroke: #0000FF;"/>
<circle cx="123.35" cy="175.94" r="2.70" style="stroke-width: 0.75;stroke: #0000FF;"/>
<circle cx="144.07" cy="165.01" r="2.70" style="stroke-width: 0.75;stroke: #0000FF;"/>
<circle cx="538.01" cy="91.17" r="2.70" style="stroke-width: 0.75;stroke: #0000FF;"/>
<circle cx="436.59" cy="108.72" r="2.70" style="stroke-width: 0.75;stroke: #0000FF;"/>
<circle cx="383.33" cy="117.50" r="2.70" style="stroke-width: 0.75;stroke: #0000FF;"/>
<circle cx="381.84" cy="118.09" r="2.70" style="stroke-width: 0.75;stroke: #0000FF;"/>
<circle cx="416.86" cy="111.80" r="2.70" style="stroke-width: 0.75;stroke: #0000FF;"/>
<circle cx="508.70" cy="94.44" r="2.70" style="stroke-width: 0.75;stroke: #0000FF;"/>
<circle cx="221.19" cy="149.29" r="2.70" style="stroke-width: 0.75;stroke: #0000FF;"/>
<circle cx="82.79" cy="177.21" r="2.70" style="stroke-width: 0.75;stroke: #0000FF;"/>
<circle cx="179.15" cy="163.21" r="2.70" style="stroke-width: 0.75;stroke: #0000FF;"/>
<circle cx="194.24" cy="160.50" r="2.70" style="stroke-width: 0.75;stroke: #0000FF;"/>
<circle cx="368.40" cy="122.22" r="2.70" style="stroke-width: 0.75;stroke: #0000FF;"/>
<circle cx="269.93" cy="141.16" r="2.70" style="stroke-width: 0.75;stroke: #0000FF;"/>
<circle cx="462.46" cy="103.87" r="2.70" style="stroke-width: 0.75;stroke: #0000FF;"/>
<circle cx="327.70" cy="129.49" r="2.70" style="stroke-width: 0.75;stroke: #0000FF;"/>
<circle cx="491.82" cy="99.04" r="2.70" style="stroke-width: 0.75;stroke: #0000FF;"/>
<circle cx="390.80" cy="115.69" r="2.70" style="stroke-width: 0.75;stroke: #0000FF;"/>
<circle cx="499.89" cy="97.90" r="2.70" style="stroke-width: 0.75;stroke: #0000FF;"/>
<circle cx="497.13" cy="98.53" r="2.70" style="stroke-width: 0.75;stroke: #0000FF;"/>
<circle cx="423.26" cy="110.91" r="2.70" style="stroke-width: 0.75;stroke: #0000FF;"/>
<circle cx="452.74" cy="106.26" r="2.70" style="stroke-width: 0.75;stroke: #0000FF;"/>
<circle cx="456.55" cy="105.81" r="2.70" style="stroke-width: 0.75;stroke: #0000FF;"/>
<circle cx="426.52" cy="110.31" r="2.70" style="stroke-width: 0.75;stroke: #0000FF;"/>
<circle cx="398.33" cy="115.11" r="2.70" style="stroke-width: 0.75;stroke: #0000FF;"/>
<circle cx="470.75" cy="102.61" r="2.70" style="stroke-width: 0.75;stroke: #0000FF;"/>
<circle cx="420.04" cy="111.19" r="2.70" style="stroke-width: 0.75;stroke: #0000FF;"/>
<circle cx="353.25" cy="126.48" r="2.70" style="stroke-width: 0.75;stroke: #0000FF;"/>
<circle cx="387.81" cy="116.14" r="2.70" style="stroke-width: 0.75;stroke: #0000FF;"/>
<circle cx="447.19" cy="106.93" r="2.70" style="stroke-width: 0.75;stroke: #0000FF;"/>
<circle cx="233.48" cy="148.86" r="2.70" style="stroke-width: 0.75;stroke: #0000FF;"/>
<circle cx="256.47" cy="143.31" r="2.70" style="stroke-width: 0.75;stroke: #0000FF;"/>
<circle cx="319.15" cy="130.50" r="2.70" style="stroke-width: 0.75;stroke: #0000FF;"/>
<circle cx="375.87" cy="120.80" r="2.70" style="stroke-width: 0.75;stroke: #0000FF;"/>
<circle cx="240.71" cy="145.29" r="2.70" style="stroke-width: 0.75;stroke: #0000FF;"/>
<circle cx="371.39" cy="121.70" r="2.70" style="stroke-width: 0.75;stroke: #0000FF;"/>
<circle cx="200.58" cy="158.37" r="2.70" style="stroke-width: 0.75;stroke: #0000FF;"/>
<circle cx="237.18" cy="146.95" r="2.70" style="stroke-width: 0.75;stroke: #0000FF;"/>
<circle cx="380.35" cy="119.46" r="2.70" style="stroke-width: 0.75;stroke: #0000FF;"/>
<circle cx="458.49" cy="104.91" r="2.70" style="stroke-width: 0.75;stroke: #0000FF;"/>
<circle cx="343.92" cy="127.40" r="2.70" style="stroke-width: 0.75;stroke: #0000FF;"/>
<circle cx="389.30" cy="115.94" r="2.70" style="stroke-width: 0.75;stroke: #0000FF;"/>
<circle cx="272.42" cy="141.08" r="2.70" style="stroke-width: 0.75;stroke: #0000FF;"/>
<circle cx="308.34" cy="132.63" r="2.70" style="stroke-width: 0.75;stroke: #0000FF;"/>
<circle cx="306.46" cy="132.75" r="2.70" style="stroke-width: 0.75;stroke: #0000FF;"/>
<circle cx="386.31" cy="116.66" r="2.70" style="stroke-width: 0.75;stroke: #0000FF;"/>
<circle cx="286.29" cy="138.03" r="2.70" style="stroke-width: 0.75;stroke: #0000FF;"/>
<circle cx="313.82" cy="130.89" r="2.70" style="stroke-width: 0.75;stroke: #0000FF;"/>
<circle cx="357.84" cy="126.02" r="2.70" style="stroke-width: 0.75;stroke: #0000FF;"/>
<circle cx="253.53" cy="143.54" r="2.70" style="stroke-width: 0.75;stroke: #0000FF;"/>
<circle cx="320.89" cy="130.37" r="2.70" style="stroke-width: 0.75;stroke: #0000FF;"/>
<circle cx="615.13" cy="69.97" r="2.70" style="stroke-width: 0.75;stroke: #0000FF;"/>
<circle cx="332.68" cy="128.70" r="2.70" style="stroke-width: 0.75;stroke: #0000FF;"/>
<circle cx="529.60" cy="91.52" r="2.70" style="stroke-width: 0.75;stroke: #0000FF;"/>
<circle cx="296.74" cy="136.56" r="2.70" style="stroke-width: 0.75;stroke: #0000FF;"/>
<circle cx="347.06" cy="126.78" r="2.70" style="stroke-width: 0.75;stroke: #0000FF;"/>
<circle cx="449.01" cy="106.75" r="2.70" style="stroke-width: 0.75;stroke: #0000FF;"/>
<circle cx="542.61" cy="89.86" r="2.70" style="stroke-width: 0.75;stroke: #0000FF;"/>
<circle cx="298.74" cy="135.48" r="2.70" style="stroke-width: 0.75;stroke: #0000FF;"/>
<circle cx="337.55" cy="127.94" r="2.70" style="stroke-width: 0.75;stroke: #0000FF;"/>
<circle cx="564.96" cy="85.58" r="2.70" style="stroke-width: 0.75;stroke: #0000FF;"/>
<circle cx="324.32" cy="129.92" r="2.70" style="stroke-width: 0.75;stroke: #0000FF;"/>
<circle cx="533.69" cy="91.37" r="2.70" style="stroke-width: 0.75;stroke: #0000FF;"/>
<circle cx="292.66" cy="137.09" r="2.70" style="stroke-width: 0.75;stroke: #0000FF;"/>
<circle cx="229.60" cy="148.91" r="2.70" style="stroke-width: 0.75;stroke: #0000FF;"/>
<circle cx="443.58" cy="107.35" r="2.70" style="stroke-width: 0.75;stroke: #0000FF;"/>
<circle cx="356.31" cy="126.06" r="2.70" style="stroke-width: 0.75;stroke: #0000FF;"/>
<circle cx="267.38" cy="141.68" r="2.70" style="stroke-width: 0.75;stroke: #0000FF;"/>
<circle cx="206.36" cy="153.14" r="2.70" style="stroke-width: 0.75;stroke: #0000FF;"/>
<circle cx="211.66" cy="151.99" r="2.70" style="stroke-width: 0.75;stroke: #0000FF;"/>
<circle cx="290.57" cy="137.63" r="2.70" style="stroke-width: 0.75;stroke: #0000FF;"/>
<circle cx="326.02" cy="129.75" r="2.70" style="stroke-width: 0.75;stroke: #0000FF;"/>
<circle cx="345.49" cy="127.09" r="2.70" style="stroke-width: 0.75;stroke: #0000FF;"/>
<circle cx="525.72" cy="91.91" r="2.70" style="stroke-width: 0.75;stroke: #0000FF;"/>
<circle cx="362.38" cy="125.70" r="2.70" style="stroke-width: 0.75;stroke: #0000FF;"/>
<circle cx="350.17" cy="126.65" r="2.70" style="stroke-width: 0.75;stroke: #0000FF;"/>
<circle cx="284.09" cy="138.64" r="2.70" style="stroke-width: 0.75;stroke: #0000FF;"/>
<circle cx="440.05" cy="107.71" r="2.70" style="stroke-width: 0.75;stroke: #0000FF;"/>
</g><g clip-path="url(#c2)">
<line x1="165.52" y1="181.76" x2="593.68" y2="181.76" style="stroke-width: 0.75;"/>
<line x1="165.52" y1="181.76" x2="165.52" y2="188.96" style="stroke-width: 0.75;"/>
<line x1="272.56" y1="181.76" x2="272.56" y2="188.96" style="stroke-width: 0.75;"/>
<line x1="379.60" y1="181.76" x2="379.60" y2="188.96" style="stroke-width: 0.75;"/>
<line x1="486.64" y1="181.76" x2="486.64" y2="188.96" style="stroke-width: 0.75;"/>
<line x1="593.68" y1="181.76" x2="593.68" y2="188.96" style="stroke-width: 0.75;"/>
<g><text x="165.52" y="207.68" text-anchor="middle" style="font-family: Arimo;font-size: 12.00px;" textLength="11.97px" lengthAdjust="spacingAndGlyphs">-2</text></g>
<g><text x="272.56" y="207.68" text-anchor="middle" style="font-family: Arimo;font-size: 12.00px;" textLength="11.97px" lengthAdjust="spacingAndGlyphs">-1</text></g>
<g><text x="379.60" y="207.68" text-anchor="middle" style="font-family: Arimo;font-size: 12.00px;" textLength="7.64px" lengthAdjust="spacingAndGlyphs">0</text></g>
<g><text x="486.64" y="207.68" text-anchor="middle" style="font-family: Arimo;font-size: 12.00px;" textLength="7.64px" lengthAdjust="spacingAndGlyphs">1</text></g>
<g><text x="593.68" y="207.68" text-anchor="middle" style="font-family: Arimo;font-size: 12.00px;" textLength="7.64px" lengthAdjust="spacingAndGlyphs">2</text></g>
<line x1="59.04" y1="167.01" x2="59.04" y2="72.93" style="stroke-width: 0.75;"/>
<line x1="59.04" y1="167.01" x2="51.84" y2="167.01" style="stroke-width: 0.75;"/>
<line x1="59.04" y1="143.49" x2="51.84" y2="143.49" style="stroke-width: 0.75;"/>
<line x1="59.04" y1="119.97" x2="51.84" y2="119.97" style="stroke-width: 0.75;"/>
<line x1="59.04" y1="96.45" x2="51.84" y2="96.45" style="stroke-width: 0.75;"/>
<line x1="59.04" y1="72.93" x2="51.84" y2="72.93" style="stroke-width: 0.75;"/>
<g><text transform="translate(41.76,167.01) rotate(-90.00)" text-anchor="middle" style="font-family: Arimo;font-size: 12.00px;" textLength="23.43px" lengthAdjust="spacingAndGlyphs">-0.4</text></g>
<g><text transform="translate(41.76,119.97) rotate(-90.00)" text-anchor="middle" style="font-family: Arimo;font-size: 12.00px;" textLength="19.09px" lengthAdjust="spacingAndGlyphs">0.0</text></g>
<g><text transform="translate(41.76,72.93) rotate(-90.00)" text-anchor="middle" style="font-family: Arimo;font-size: 12.00px;" textLength="19.09px" lengthAdjust="spacingAndGlyphs">0.4</text></g>
<polygon points="59.04,181.76 700.16,181.76 700.16,59.04 59.04,59.04" style="stroke-width: 0.75;" />
</g><g clip-path="url(#c3)">
<g><text x="379.60" y="26.13" text-anchor="middle" style="font-family: Arimo;font-size: 14.40px;font-weight: bold;" textLength="203.10px" lengthAdjust="spacingAndGlyphs">Assessment of Normality</text></g>
<g><text x="379.60" y="43.41" text-anchor="middle" style="font-family: Arimo;font-size: 14.40px;font-weight: bold;" textLength="475.98px" lengthAdjust="spacingAndGlyphs"> p-val for shapiro-wilk test of normality of residuals: 0.815</text></g>
<g><text x="379.60" y="222.08" text-anchor="middle" style="font-family: Arimo;font-size: 12.00px;" textLength="238.76px" lengthAdjust="spacingAndGlyphs">Normal Q-Q plot for in-sample residuals</text></g>
<g><text x="379.60" y="236.48" text-anchor="middle" style="font-family: Arimo;font-size: 12.00px;" textLength="137.28px" lengthAdjust="spacingAndGlyphs">(Theoretical Quantiles)</text></g>
<g><text transform="translate(12.96,120.40) rotate(-90.00)" text-anchor="middle" style="font-family: Arimo;font-size: 12.00px;" textLength="105.87px" lengthAdjust="spacingAndGlyphs">Sample Quantiles</text></g>
</g><g clip-path="url(#c4)">
<circle cx="194.19" cy="343.22" r="2.70" style="stroke-width: 0.75;stroke: #0000FF;"/>
<circle cx="233.89" cy="406.30" r="2.70" style="stroke-width: 0.75;stroke: #0000FF;"/>
<circle cx="204.14" cy="364.93" r="2.70" style="stroke-width: 0.75;stroke: #0000FF;"/>
<circle cx="219.17" cy="397.71" r="2.70" style="stroke-width: 0.75;stroke: #0000FF;"/>
<circle cx="211.51" cy="380.99" r="2.70" style="stroke-width: 0.75;stroke: #0000FF;"/>
<circle cx="192.91" cy="363.94" r="2.70" style="stroke-width: 0.75;stroke: #0000FF;"/>
<circle cx="189.97" cy="357.52" r="2.70" style="stroke-width: 0.75;stroke: #0000FF;"/>
<circle cx="200.03" cy="379.48" r="2.70" style="stroke-width: 0.75;stroke: #0000FF;"/>
<circle cx="198.33" cy="375.75" r="2.70" style="stroke-width: 0.75;stroke: #0000FF;"/>
<circle cx="179.82" cy="347.14" r="2.70" style="stroke-width: 0.75;stroke: #0000FF;"/>
<circle cx="186.11" cy="349.10" r="2.70" style="stroke-width: 0.75;stroke: #0000FF;"/>
<circle cx="182.28" cy="364.26" r="2.70" style="stroke-width: 0.75;stroke: #0000FF;"/>
<circle cx="182.82" cy="365.45" r="2.70" style="stroke-width: 0.75;stroke: #0000FF;"/>
<circle cx="174.00" cy="357.96" r="2.70" style="stroke-width: 0.75;stroke: #0000FF;"/>
<circle cx="156.08" cy="330.63" r="2.70" style="stroke-width: 0.75;stroke: #0000FF;"/>
<circle cx="167.86" cy="368.09" r="2.70" style="stroke-width: 0.75;stroke: #0000FF;"/>
<circle cx="173.89" cy="369.49" r="2.70" style="stroke-width: 0.75;stroke: #0000FF;"/>
<circle cx="174.51" cy="370.84" r="2.70" style="stroke-width: 0.75;stroke: #0000FF;"/>
<circle cx="167.61" cy="355.79" r="2.70" style="stroke-width: 0.75;stroke: #0000FF;"/>
<circle cx="161.38" cy="365.70" r="2.70" style="stroke-width: 0.75;stroke: #0000FF;"/>
<circle cx="160.96" cy="376.55" r="2.70" style="stroke-width: 0.75;stroke: #0000FF;"/>
<circle cx="157.80" cy="369.65" r="2.70" style="stroke-width: 0.75;stroke: #0000FF;"/>
<circle cx="158.57" cy="383.10" r="2.70" style="stroke-width: 0.75;stroke: #0000FF;"/>
<circle cx="157.03" cy="379.73" r="2.70" style="stroke-width: 0.75;stroke: #0000FF;"/>
<circle cx="157.22" cy="368.38" r="2.70" style="stroke-width: 0.75;stroke: #0000FF;"/>
<circle cx="156.92" cy="367.75" r="2.70" style="stroke-width: 0.75;stroke: #0000FF;"/>
<circle cx="149.61" cy="375.31" r="2.70" style="stroke-width: 0.75;stroke: #0000FF;"/>
<circle cx="153.27" cy="395.05" r="2.70" style="stroke-width: 0.75;stroke: #0000FF;"/>
<circle cx="153.18" cy="383.10" r="2.70" style="stroke-width: 0.75;stroke: #0000FF;"/>
<circle cx="147.21" cy="370.07" r="2.70" style="stroke-width: 0.75;stroke: #0000FF;"/>
<circle cx="148.34" cy="384.30" r="2.70" style="stroke-width: 0.75;stroke: #0000FF;"/>
<circle cx="155.43" cy="388.00" r="2.70" style="stroke-width: 0.75;stroke: #0000FF;"/>
<circle cx="153.77" cy="396.14" r="2.70" style="stroke-width: 0.75;stroke: #0000FF;"/>
<circle cx="157.95" cy="381.74" r="2.70" style="stroke-width: 0.75;stroke: #0000FF;"/>
<circle cx="156.40" cy="366.61" r="2.70" style="stroke-width: 0.75;stroke: #0000FF;"/>
<circle cx="158.01" cy="381.87" r="2.70" style="stroke-width: 0.75;stroke: #0000FF;"/>
<circle cx="157.78" cy="369.62" r="2.70" style="stroke-width: 0.75;stroke: #0000FF;"/>
<circle cx="166.38" cy="388.38" r="2.70" style="stroke-width: 0.75;stroke: #0000FF;"/>
<circle cx="174.39" cy="370.58" r="2.70" style="stroke-width: 0.75;stroke: #0000FF;"/>
<circle cx="184.53" cy="404.45" r="2.70" style="stroke-width: 0.75;stroke: #0000FF;"/>
<circle cx="201.66" cy="418.30" r="2.70" style="stroke-width: 0.75;stroke: #0000FF;"/>
<circle cx="202.10" cy="384.00" r="2.70" style="stroke-width: 0.75;stroke: #0000FF;"/>
<circle cx="205.29" cy="367.42" r="2.70" style="stroke-width: 0.75;stroke: #0000FF;"/>
<circle cx="210.56" cy="355.41" r="2.70" style="stroke-width: 0.75;stroke: #0000FF;"/>
<circle cx="210.90" cy="320.88" r="2.70" style="stroke-width: 0.75;stroke: #0000FF;"/>
<circle cx="261.98" cy="385.28" r="2.70" style="stroke-width: 0.75;stroke: #0000FF;"/>
<circle cx="280.63" cy="390.68" r="2.70" style="stroke-width: 0.75;stroke: #0000FF;"/>
<circle cx="327.85" cy="376.11" r="2.70" style="stroke-width: 0.75;stroke: #0000FF;"/>
<circle cx="345.42" cy="355.64" r="2.70" style="stroke-width: 0.75;stroke: #0000FF;"/>
<circle cx="385.25" cy="395.49" r="2.70" style="stroke-width: 0.75;stroke: #0000FF;"/>
<circle cx="390.58" cy="371.86" r="2.70" style="stroke-width: 0.75;stroke: #0000FF;"/>
<circle cx="421.28" cy="391.80" r="2.70" style="stroke-width: 0.75;stroke: #0000FF;"/>
<circle cx="410.93" cy="357.46" r="2.70" style="stroke-width: 0.75;stroke: #0000FF;"/>
<circle cx="424.55" cy="387.16" r="2.70" style="stroke-width: 0.75;stroke: #0000FF;"/>
<circle cx="429.40" cy="385.99" r="2.70" style="stroke-width: 0.75;stroke: #0000FF;"/>
<circle cx="431.59" cy="367.25" r="2.70" style="stroke-width: 0.75;stroke: #0000FF;"/>
<circle cx="436.90" cy="355.31" r="2.70" style="stroke-width: 0.75;stroke: #0000FF;"/>
<circle cx="433.64" cy="359.97" r="2.70" style="stroke-width: 0.75;stroke: #0000FF;"/>
<circle cx="442.58" cy="379.47" r="2.70" style="stroke-width: 0.75;stroke: #0000FF;"/>
<circle cx="425.41" cy="353.77" r="2.70" style="stroke-width: 0.75;stroke: #0000FF;"/>
<circle cx="427.25" cy="357.78" r="2.70" style="stroke-width: 0.75;stroke: #0000FF;"/>
<circle cx="434.37" cy="361.55" r="2.70" style="stroke-width: 0.75;stroke: #0000FF;"/>
<circle cx="429.89" cy="351.77" r="2.70" style="stroke-width: 0.75;stroke: #0000FF;"/>
<circle cx="408.19" cy="363.24" r="2.70" style="stroke-width: 0.75;stroke: #0000FF;"/>
<circle cx="407.72" cy="362.21" r="2.70" style="stroke-width: 0.75;stroke: #0000FF;"/>
<circle cx="410.30" cy="356.08" r="2.70" style="stroke-width: 0.75;stroke: #0000FF;"/>
<circle cx="401.62" cy="337.14" r="2.70" style="stroke-width: 0.75;stroke: #0000FF;"/>
<circle cx="401.15" cy="383.15" r="2.70" style="stroke-width: 0.75;stroke: #0000FF;"/>
<circle cx="400.33" cy="393.12" r="2.70" style="stroke-width: 0.75;stroke: #0000FF;"/>
<circle cx="403.49" cy="400.01" r="2.70" style="stroke-width: 0.75;stroke: #0000FF;"/>
<circle cx="400.36" cy="381.42" r="2.70" style="stroke-width: 0.75;stroke: #0000FF;"/>
<circle cx="388.05" cy="366.34" r="2.70" style="stroke-width: 0.75;stroke: #0000FF;"/>
<circle cx="387.18" cy="352.67" r="2.70" style="stroke-width: 0.75;stroke: #0000FF;"/>
<circle cx="379.93" cy="348.62" r="2.70" style="stroke-width: 0.75;stroke: #0000FF;"/>
<circle cx="388.96" cy="368.31" r="2.70" style="stroke-width: 0.75;stroke: #0000FF;"/>
<circle cx="351.16" cy="332.88" r="2.70" style="stroke-width: 0.75;stroke: #0000FF;"/>
<circle cx="368.73" cy="382.97" r="2.70" style="stroke-width: 0.75;stroke: #0000FF;"/>
<circle cx="374.99" cy="420.16" r="2.70" style="stroke-width: 0.75;stroke: #0000FF;"/>
<circle cx="323.13" cy="318.79" r="2.70" style="stroke-width: 0.75;stroke: #0000FF;"/>
<circle cx="344.17" cy="364.67" r="2.70" style="stroke-width: 0.75;stroke: #0000FF;"/>
<circle cx="334.04" cy="342.58" r="2.70" style="stroke-width: 0.75;stroke: #0000FF;"/>
<circle cx="341.31" cy="358.44" r="2.70" style="stroke-width: 0.75;stroke: #0000FF;"/>
<circle cx="321.76" cy="362.82" r="2.70" style="stroke-width: 0.75;stroke: #0000FF;"/>
<circle cx="331.28" cy="383.58" r="2.70" style="stroke-width: 0.75;stroke: #0000FF;"/>
<circle cx="326.45" cy="361.29" r="2.70" style="stroke-width: 0.75;stroke: #0000FF;"/>
<circle cx="319.44" cy="334.25" r="2.70" style="stroke-width: 0.75;stroke: #0000FF;"/>
<circle cx="322.98" cy="377.24" r="2.70" style="stroke-width: 0.75;stroke: #0000FF;"/>
<circle cx="320.69" cy="395.76" r="2.70" style="stroke-width: 0.75;stroke: #0000FF;"/>
<circle cx="327.88" cy="399.68" r="2.70" style="stroke-width: 0.75;stroke: #0000FF;"/>
<circle cx="298.42" cy="347.18" r="2.70" style="stroke-width: 0.75;stroke: #0000FF;"/>
<circle cx="292.98" cy="358.83" r="2.70" style="stroke-width: 0.75;stroke: #0000FF;"/>
<circle cx="299.96" cy="385.82" r="2.70" style="stroke-width: 0.75;stroke: #0000FF;"/>
<circle cx="279.79" cy="341.81" r="2.70" style="stroke-width: 0.75;stroke: #0000FF;"/>
<circle cx="278.64" cy="398.11" r="2.70" style="stroke-width: 0.75;stroke: #0000FF;"/>
<circle cx="265.47" cy="381.13" r="2.70" style="stroke-width: 0.75;stroke: #0000FF;"/>
<circle cx="266.00" cy="370.52" r="2.70" style="stroke-width: 0.75;stroke: #0000FF;"/>
<circle cx="265.03" cy="368.41" r="2.70" style="stroke-width: 0.75;stroke: #0000FF;"/>
<circle cx="261.20" cy="418.85" r="2.70" style="stroke-width: 0.75;stroke: #0000FF;"/>
<circle cx="251.72" cy="386.41" r="2.70" style="stroke-width: 0.75;stroke: #0000FF;"/>
<circle cx="247.21" cy="400.08" r="2.70" style="stroke-width: 0.75;stroke: #0000FF;"/>
<circle cx="239.11" cy="370.65" r="2.70" style="stroke-width: 0.75;stroke: #0000FF;"/>
<circle cx="246.03" cy="397.50" r="2.70" style="stroke-width: 0.75;stroke: #0000FF;"/>
<circle cx="250.66" cy="431.14" r="2.70" style="stroke-width: 0.75;stroke: #0000FF;"/>
<circle cx="234.87" cy="420.21" r="2.70" style="stroke-width: 0.75;stroke: #0000FF;"/>
<circle cx="206.42" cy="346.37" r="2.70" style="stroke-width: 0.75;stroke: #0000FF;"/>
<circle cx="203.68" cy="363.92" r="2.70" style="stroke-width: 0.75;stroke: #0000FF;"/>
<circle cx="213.10" cy="372.70" r="2.70" style="stroke-width: 0.75;stroke: #0000FF;"/>
<circle cx="197.19" cy="373.29" r="2.70" style="stroke-width: 0.75;stroke: #0000FF;"/>
<circle cx="194.31" cy="367.00" r="2.70" style="stroke-width: 0.75;stroke: #0000FF;"/>
<circle cx="197.14" cy="349.64" r="2.70" style="stroke-width: 0.75;stroke: #0000FF;"/>
<circle cx="200.72" cy="404.49" r="2.70" style="stroke-width: 0.75;stroke: #0000FF;"/>
<circle cx="208.13" cy="432.41" r="2.70" style="stroke-width: 0.75;stroke: #0000FF;"/>
<circle cx="196.32" cy="418.41" r="2.70" style="stroke-width: 0.75;stroke: #0000FF;"/>
<circle cx="200.46" cy="415.70" r="2.70" style="stroke-width: 0.75;stroke: #0000FF;"/>
<circle cx="177.53" cy="377.42" r="2.70" style="stroke-width: 0.75;stroke: #0000FF;"/>
<circle cx="180.82" cy="396.36" r="2.70" style="stroke-width: 0.75;stroke: #0000FF;"/>
<circle cx="158.34" cy="359.07" r="2.70" style="stroke-width: 0.75;stroke: #0000FF;"/>
<circle cx="175.47" cy="384.69" r="2.70" style="stroke-width: 0.75;stroke: #0000FF;"/>
<circle cx="161.51" cy="354.24" r="2.70" style="stroke-width: 0.75;stroke: #0000FF;"/>
<circle cx="174.54" cy="370.89" r="2.70" style="stroke-width: 0.75;stroke: #0000FF;"/>
<circle cx="150.21" cy="353.10" r="2.70" style="stroke-width: 0.75;stroke: #0000FF;"/>
<circle cx="150.50" cy="353.73" r="2.70" style="stroke-width: 0.75;stroke: #0000FF;"/>
<circle cx="150.79" cy="366.11" r="2.70" style="stroke-width: 0.75;stroke: #0000FF;"/>
<circle cx="137.87" cy="361.46" r="2.70" style="stroke-width: 0.75;stroke: #0000FF;"/>
<circle cx="137.67" cy="361.01" r="2.70" style="stroke-width: 0.75;stroke: #0000FF;"/>
<circle cx="134.34" cy="365.51" r="2.70" style="stroke-width: 0.75;stroke: #0000FF;"/>
<circle cx="136.54" cy="370.31" r="2.70" style="stroke-width: 0.75;stroke: #0000FF;"/>
<circle cx="136.20" cy="357.81" r="2.70" style="stroke-width: 0.75;stroke: #0000FF;"/>
<circle cx="134.74" cy="366.39" r="2.70" style="stroke-width: 0.75;stroke: #0000FF;"/>
<circle cx="136.36" cy="381.68" r="2.70" style="stroke-width: 0.75;stroke: #0000FF;"/>
<circle cx="131.62" cy="371.34" r="2.70" style="stroke-width: 0.75;stroke: #0000FF;"/>
<circle cx="122.01" cy="362.13" r="2.70" style="stroke-width: 0.75;stroke: #0000FF;"/>
<circle cx="135.84" cy="404.06" r="2.70" style="stroke-width: 0.75;stroke: #0000FF;"/>
<circle cx="138.68" cy="398.51" r="2.70" style="stroke-width: 0.75;stroke: #0000FF;"/>
<circle cx="127.43" cy="385.70" r="2.70" style="stroke-width: 0.75;stroke: #0000FF;"/>
<circle cx="122.98" cy="376.00" r="2.70" style="stroke-width: 0.75;stroke: #0000FF;"/>
<circle cx="123.42" cy="400.49" r="2.70" style="stroke-width: 0.75;stroke: #0000FF;"/>
<circle cx="123.39" cy="376.90" r="2.70" style="stroke-width: 0.75;stroke: #0000FF;"/>
<circle cx="124.03" cy="413.57" r="2.70" style="stroke-width: 0.75;stroke: #0000FF;"/>
<circle cx="124.18" cy="402.15" r="2.70" style="stroke-width: 0.75;stroke: #0000FF;"/>
<circle cx="116.97" cy="374.66" r="2.70" style="stroke-width: 0.75;stroke: #0000FF;"/>
<circle cx="115.70" cy="360.11" r="2.70" style="stroke-width: 0.75;stroke: #0000FF;"/>
<circle cx="115.22" cy="382.60" r="2.70" style="stroke-width: 0.75;stroke: #0000FF;"/>
<circle cx="109.97" cy="371.14" r="2.70" style="stroke-width: 0.75;stroke: #0000FF;"/>
<circle cx="110.71" cy="396.28" r="2.70" style="stroke-width: 0.75;stroke: #0000FF;"/>
<circle cx="112.23" cy="387.83" r="2.70" style="stroke-width: 0.75;stroke: #0000FF;"/>
<circle cx="112.28" cy="387.95" r="2.70" style="stroke-width: 0.75;stroke: #0000FF;"/>
<circle cx="104.91" cy="371.86" r="2.70" style="stroke-width: 0.75;stroke: #0000FF;"/>
<circle cx="109.32" cy="393.23" r="2.70" style="stroke-width: 0.75;stroke: #0000FF;"/>
<circle cx="106.04" cy="386.09" r="2.70" style="stroke-width: 0.75;stroke: #0000FF;"/>
<circle cx="103.81" cy="381.22" r="2.70" style="stroke-width: 0.75;stroke: #0000FF;"/>
<circle cx="106.45" cy="398.74" r="2.70" style="stroke-width: 0.75;stroke: #0000FF;"/>
<circle cx="148.92" cy="385.57" r="2.70" style="stroke-width: 0.75;stroke: #0000FF;"/>
<circle cx="676.41" cy="325.17" r="2.70" style="stroke-width: 0.75;stroke: #0000FF;"/>
<circle cx="622.49" cy="383.90" r="2.70" style="stroke-width: 0.75;stroke: #0000FF;"/>
<circle cx="486.86" cy="346.72" r="2.70" style="stroke-width: 0.75;stroke: #0000FF;"/>
<circle cx="367.37" cy="391.76" r="2.70" style="stroke-width: 0.75;stroke: #0000FF;"/>
<circle cx="282.03" cy="381.98" r="2.70" style="stroke-width: 0.75;stroke: #0000FF;"/>
<circle cx="262.07" cy="361.95" r="2.70" style="stroke-width: 0.75;stroke: #0000FF;"/>
<circle cx="254.33" cy="345.06" r="2.70" style="stroke-width: 0.75;stroke: #0000FF;"/>
<circle cx="253.68" cy="390.68" r="2.70" style="stroke-width: 0.75;stroke: #0000FF;"/>
<circle cx="244.83" cy="383.14" r="2.70" style="stroke-width: 0.75;stroke: #0000FF;"/>
<circle cx="220.03" cy="340.78" r="2.70" style="stroke-width: 0.75;stroke: #0000FF;"/>
<circle cx="224.18" cy="385.12" r="2.70" style="stroke-width: 0.75;stroke: #0000FF;"/>
<circle cx="211.90" cy="346.57" r="2.70" style="stroke-width: 0.75;stroke: #0000FF;"/>
<circle cx="205.91" cy="392.29" r="2.70" style="stroke-width: 0.75;stroke: #0000FF;"/>
<circle cx="200.54" cy="404.11" r="2.70" style="stroke-width: 0.75;stroke: #0000FF;"/>
<circle cx="159.93" cy="362.55" r="2.70" style="stroke-width: 0.75;stroke: #0000FF;"/>
<circle cx="136.17" cy="381.26" r="2.70" style="stroke-width: 0.75;stroke: #0000FF;"/>
<circle cx="132.55" cy="396.88" r="2.70" style="stroke-width: 0.75;stroke: #0000FF;"/>
<circle cx="127.02" cy="408.34" r="2.70" style="stroke-width: 0.75;stroke: #0000FF;"/>
<circle cx="115.71" cy="407.19" r="2.70" style="stroke-width: 0.75;stroke: #0000FF;"/>
<circle cx="109.13" cy="392.83" r="2.70" style="stroke-width: 0.75;stroke: #0000FF;"/>
<circle cx="105.52" cy="384.95" r="2.70" style="stroke-width: 0.75;stroke: #0000FF;"/>
<circle cx="104.30" cy="382.29" r="2.70" style="stroke-width: 0.75;stroke: #0000FF;"/>
<circle cx="82.79" cy="347.11" r="2.70" style="stroke-width: 0.75;stroke: #0000FF;"/>
<circle cx="109.06" cy="380.90" r="2.70" style="stroke-width: 0.75;stroke: #0000FF;"/>
<circle cx="109.49" cy="381.85" r="2.70" style="stroke-width: 0.75;stroke: #0000FF;"/>
<circle cx="109.60" cy="393.84" r="2.70" style="stroke-width: 0.75;stroke: #0000FF;"/>
<circle cx="90.03" cy="362.91" r="2.70" style="stroke-width: 0.75;stroke: #0000FF;"/>
</g><g clip-path="url(#c5)">
<line x1="122.60" y1="436.96" x2="661.61" y2="436.96" style="stroke-width: 0.75;"/>
<line x1="122.60" y1="436.96" x2="122.60" y2="444.16" style="stroke-width: 0.75;"/>
<line x1="230.40" y1="436.96" x2="230.40" y2="444.16" style="stroke-width: 0.75;"/>
<line x1="338.20" y1="436.96" x2="338.20" y2="444.16" style="stroke-width: 0.75;"/>
<line x1="446.00" y1="436.96" x2="446.00" y2="444.16" style="stroke-width: 0.75;"/>
<line x1="553.80" y1="436.96" x2="553.80" y2="444.16" style="stroke-width: 0.75;"/>
<line x1="661.61" y1="436.96" x2="661.61" y2="444.16" style="stroke-width: 0.75;"/>
<g><text x="122.60" y="462.88" text-anchor="middle" style="font-family: Arimo;font-size: 12.00px;" textLength="7.64px" lengthAdjust="spacingAndGlyphs">4</text></g>
<g><text x="230.40" y="462.88" text-anchor="middle" style="font-family: Arimo;font-size: 12.00px;" textLength="7.64px" lengthAdjust="spacingAndGlyphs">6</text></g>
<g><text x="338.20" y="462.88" text-anchor="middle" style="font-family: Arimo;font-size: 12.00px;" textLength="7.64px" lengthAdjust="spacingAndGlyphs">8</text></g>
<g><text x="446.00" y="462.88" text-anchor="middle" style="font-family: Arimo;font-size: 12.00px;" textLength="15.28px" lengthAdjust="spacingAndGlyphs">10</text></g>
<g><text x="553.80" y="462.88" text-anchor="middle" style="font-family: Arimo;font-size: 12.00px;" textLength="15.28px" lengthAdjust="spacingAndGlyphs">12</text></g>
<g><text x="661.61" y="462.88" text-anchor="middle" style="font-family: Arimo;font-size: 12.00px;" textLength="15.28px" lengthAdjust="spacingAndGlyphs">14</text></g>
<line x1="59.04" y1="422.21" x2="59.04" y2="328.13" style="stroke-width: 0.75;"/>
<line x1="59.04" y1="422.21" x2="51.84" y2="422.21" style="stroke-width: 0.75;"/>
<line x1="59.04" y1="398.69" x2="51.84" y2="398.69" style="stroke-width: 0.75;"/>
<line x1="59.04" y1="375.17" x2="51.84" y2="375.17" style="stroke-width: 0.75;"/>
<line x1="59.04" y1="351.65" x2="51.84" y2="351.65" style="stroke-width: 0.75;"/>
<line x1="59.04" y1="328.13" x2="51.84" y2="328.13" style="stroke-width: 0.75;"/>
<g><text transform="translate(41.76,422.21) rotate(-90.00)" text-anchor="middle" style="font-family: Arimo;font-size: 12.00px;" textLength="23.43px" lengthAdjust="spacingAndGlyphs">-0.4</text></g>
<g><text transform="translate(41.76,375.17) rotate(-90.00)" text-anchor="middle" style="font-family: Arimo;font-size: 12.00px;" textLength="19.09px" lengthAdjust="spacingAndGlyphs">0.0</text></g>
<g><text transform="translate(41.76,328.13) rotate(-90.00)" text-anchor="middle" style="font-family: Arimo;font-size: 12.00px;" textLength="19.09px" lengthAdjust="spacingAndGlyphs">0.4</text></g>
<polygon points="59.04,436.96 700.16,436.96 700.16,314.24 59.04,314.24" style="stroke-width: 0.75;" />
</g><g clip-path="url(#c6)">
<g><text x="379.60" y="281.33" text-anchor="middle" style="font-family: Arimo;font-size: 14.40px;font-weight: bold;" textLength="276.31px" lengthAdjust="spacingAndGlyphs">Assessment of Heteroskedasticity</text></g>
<g><text x="379.60" y="298.61" text-anchor="middle" style="font-family: Arimo;font-size: 14.40px;font-weight: bold;" textLength="150.70px" lengthAdjust="spacingAndGlyphs">Fitted vs residuals</text></g>
<g><text x="379.60" y="491.68" text-anchor="middle" style="font-family: Arimo;font-size: 12.00px;" textLength="76.83px" lengthAdjust="spacingAndGlyphs">Fitted Values</text></g>
<g><text transform="translate(12.96,375.60) rotate(-90.00)" text-anchor="middle" style="font-family: Arimo;font-size: 12.00px;" textLength="56.95px" lengthAdjust="spacingAndGlyphs">Residuals</text></g>
</g><g clip-path="url(#c7)">
<line x1="59.04" y1="375.17" x2="700.16" y2="375.17" style="stroke-width: 0.75;"/>
</g>
</svg>