<svg xmlns="http://www.w3.org/2000/svg" xmlns:xlink="http://www.w3.org/1999/xlink" class="httpgd" width="994.00" height="579.00" viewBox="0 0 795.20 463.20">
<defs>
  <style type='text/css'><![CDATA[
    .httpgd line, .httpgd polyline, .httpgd polygon, .httpgd path, .httpgd rect, .httpgd circle {
      fill: none;
      stroke: #000000;
      stroke-linecap: round;
      stroke-linejoin: round;
      stroke-miterlimit: 10.00;
    }
  ]]></style>
<clipPath id="c0"><rect x="0.00" y="0.00" width="795.20" height="463.20"/></clipPath>
<clipPath id="c1"><rect x="86.40" y="43.20" width="708.80" height="276.00"/></clipPath>
</defs>
<rect width="100%" height="100%" style="stroke: none;fill: #FFFFFF;"/>
<g clip-path="url(#c0)">
<rect x="112.65" y="51.36" width="93.76" height="267.84" style="stroke-width: 0.75;fill: #BEBEBE;"/>
<rect x="225.16" y="96.51" width="93.76" height="222.69" style="stroke-width: 0.75;fill: #BEBEBE;"/>
<rect x="337.67" y="123.63" width="93.76" height="195.57" style="stroke-width: 0.75;fill: #BEBEBE;"/>
<rect x="450.18" y="153.20" width="93.76" height="166.00" style="stroke-width: 0.75;fill: #BEBEBE;"/>
<rect x="562.68" y="158.90" width="93.76" height="160.30" style="stroke-width: 0.75;fill: #BEBEBE;"/>
<rect x="675.19" y="220.89" width="93.76" height="98.31" style="stroke-width: 0.75;fill: #BEBEBE;"/>
<g><text transform="translate(163.90,333.60) rotate(-90.00)" text-anchor="end" style="font-family: Arimo;font-size: 12.00px;" textLength="29.73px" lengthAdjust="spacingAndGlyphs">EFFR</text></g>
<g><text transform="translate(276.41,333.60) rotate(-90.00)" text-anchor="end" style="font-family: Arimo;font-size: 12.00px;" textLength="47.93px" lengthAdjust="spacingAndGlyphs">T10Y3M</text></g>
<g><text transform="translate(388.92,333.60) rotate(-90.00)" text-anchor="end" style="font-family: Arimo;font-size: 12.00px;" textLength="58.84px" lengthAdjust="spacingAndGlyphs">CPIAUCSL</text></g>
<g><text transform="translate(501.43,333.60) rotate(-90.00)" text-anchor="end" style="font-family: Arimo;font-size: 12.00px;" textLength="41.08px" lengthAdjust="spacingAndGlyphs">T5YIFR</text></g>
<g><text transform="translate(613.94,333.60) rotate(-90.00)" text-anchor="end" style="font-family: Arimo;font-size: 12.00px;" textLength="47.13px" lengthAdjust="spacingAndGlyphs">STLFSI4</text></g>
<g><text transform="translate(726.44,333.60) rotate(-90.00)" text-anchor="end" style="font-family: Arimo;font-size: 12.00px;" textLength="135.57px" lengthAdjust="spacingAndGlyphs">REAINTRATREARAT1YE</text></g>
<g><text transform="translate(40.32,181.20) rotate(-90.00)" text-anchor="middle" style="font-family: Arimo;font-size: 12.00px;" textLength="118.99px" lengthAdjust="spacingAndGlyphs">Inclusion Proportion</text></g>
<line x1="86.40" y1="319.20" x2="86.40" y2="97.06" style="stroke-width: 0.75;"/>
<line x1="86.40" y1="319.20" x2="79.20" y2="319.20" style="stroke-width: 0.75;"/>
<line x1="86.40" y1="263.66" x2="79.20" y2="263.66" style="stroke-width: 0.75;"/>
<line x1="86.40" y1="208.13" x2="79.20" y2="208.13" style="stroke-width: 0.75;"/>
<line x1="86.40" y1="152.59" x2="79.20" y2="152.59" style="stroke-width: 0.75;"/>
<line x1="86.40" y1="97.06" x2="79.20" y2="97.06" style="stroke-width: 0.75;"/>
<g><text x="72.00" y="323.57" text-anchor="end" style="font-family: Arimo;font-size: 12.00px;" textLength="26.73px" lengthAdjust="spacingAndGlyphs">0.00</text></g>
<g><text x="72.00" y="268.04" text-anchor="end" style="font-family: Arimo;font-size: 12.00px;" textLength="26.73px" lengthAdjust="spacingAndGlyphs">0.05</text></g>
<g><text x="72.00" y="212.50" text-anchor="end" style="font-family: Arimo;font-size: 12.00px;" textLength="26.73px" lengthAdjust="spacingAndGlyphs">0.10</text></g>
<g><text x="72.00" y="156.97" text-anchor="end" style="font-family: Arimo;font-size: 12.00px;" textLength="26.73px" lengthAdjust="spacingAndGlyphs">0.15</text></g>
<g><text x="72.00" y="101.43" text-anchor="end" style="font-family: Arimo;font-size: 12.00px;" textLength="26.73px" lengthAdjust="spacingAndGlyphs">0.20</text></g>
</g><g clip-path="url(#c1)">
<line x1="159.53" y1="51.36" x2="159.53" y2="43.20" style="stroke-width: 2.25;stroke: #966363;"/>
<line x1="272.04" y1="96.51" x2="272.04" y2="86.53" style="stroke-width: 2.25;stroke: #966363;"/>
<line x1="384.55" y1="123.63" x2="384.55" y2="112.62" style="stroke-width: 2.25;stroke: #966363;"/>
<line x1="497.05" y1="153.20" x2="497.05" y2="143.83" style="stroke-width: 2.25;stroke: #966363;"/>
<line x1="609.56" y1="158.90" x2="609.56" y2="149.38" style="stroke-width: 2.25;stroke: #966363;"/>
<line x1="722.07" y1="220.89" x2="722.07" y2="214.12" style="stroke-width: 2.25;stroke: #966363;"/>
<line x1="159.53" y1="51.36" x2="159.53" y2="59.52" style="stroke-width: 2.25;stroke: #966363;"/>
<line x1="272.04" y1="96.51" x2="272.04" y2="106.49" style="stroke-width: 2.25;stroke: #966363;"/>
<line x1="384.55" y1="123.63" x2="384.55" y2="134.64" style="stroke-width: 2.25;stroke: #966363;"/>
<line x1="497.05" y1="153.20" x2="497.05" y2="162.56" style="stroke-width: 2.25;stroke: #966363;"/>
<line x1="609.56" y1="158.90" x2="609.56" y2="168.43" style="stroke-width: 2.25;stroke: #966363;"/>
<line x1="722.07" y1="220.89" x2="722.07" y2="227.67" style="stroke-width: 2.25;stroke: #966363;"/>
</g>
</svg>