<svg xmlns="http://www.w3.org/2000/svg" xmlns:xlink="http://www.w3.org/1999/xlink" class="httpgd" width="1034.00" height="777.00" viewBox="0 0 827.20 621.60">
<defs>
  <style type='text/css'><![CDATA[
    .httpgd line, .httpgd polyline, .httpgd polygon, .httpgd path, .httpgd rect, .httpgd circle {
      fill: none;
      stroke: #000000;
      stroke-linecap: round;
      stroke-linejoin: round;
      stroke-miterlimit: 10.00;
    }
  ]]></style>
<clipPath id="c0"><rect x="0.00" y="0.00" width="827.20" height="621.60"/></clipPath>
<clipPath id="c1"><rect x="59.04" y="59.04" width="737.92" height="489.12"/></clipPath>
<clipPath id="c2"><rect x="0.00" y="0.00" width="827.20" height="621.60"/></clipPath>
<clipPath id="c3"><rect x="59.04" y="59.04" width="737.92" height="489.12"/></clipPath>
</defs>
<rect width="100%" height="100%" style="stroke: none;fill: #FFFFFF;"/>
<g clip-path="url(#c0)">
</g><g clip-path="url(#c1)">
<polyline points="86.37,123.76 109.67,169.15 179.57,249.34 214.52,290.55 249.47,351.39 296.07,375.95 342.67,386.97 389.26,400.43 564.01,488.15 715.46,483.85 769.63,486.73" style="stroke-width: 0.75;"/>
<circle cx="86.37" cy="123.76" r="2.70" style="stroke-width: 0.75;"/>
<circle cx="109.67" cy="169.15" r="2.70" style="stroke-width: 0.75;"/>
<circle cx="179.57" cy="249.34" r="2.70" style="stroke-width: 0.75;"/>
<circle cx="214.52" cy="290.55" r="2.70" style="stroke-width: 0.75;"/>
<circle cx="249.47" cy="351.39" r="2.70" style="stroke-width: 0.75;"/>
<circle cx="296.07" cy="375.95" r="2.70" style="stroke-width: 0.75;"/>
<circle cx="342.67" cy="386.97" r="2.70" style="stroke-width: 0.75;"/>
<circle cx="389.26" cy="400.43" r="2.70" style="stroke-width: 0.75;"/>
<circle cx="564.01" cy="488.15" r="2.70" style="stroke-width: 0.75;"/>
<circle cx="715.46" cy="483.85" r="2.70" style="stroke-width: 0.75;"/>
<circle cx="769.63" cy="486.73" r="2.70" style="stroke-width: 0.75;"/>
</g><g clip-path="url(#c2)">
<line x1="132.97" y1="548.16" x2="715.46" y2="548.16" style="stroke-width: 0.75;"/>
<line x1="132.97" y1="548.16" x2="132.97" y2="555.36" style="stroke-width: 0.75;"/>
<line x1="249.47" y1="548.16" x2="249.47" y2="555.36" style="stroke-width: 0.75;"/>
<line x1="365.96" y1="548.16" x2="365.96" y2="555.36" style="stroke-width: 0.75;"/>
<line x1="482.46" y1="548.16" x2="482.46" y2="555.36" style="stroke-width: 0.75;"/>
<line x1="598.96" y1="548.16" x2="598.96" y2="555.36" style="stroke-width: 0.75;"/>
<line x1="715.46" y1="548.16" x2="715.46" y2="555.36" style="stroke-width: 0.75;"/>
<g><text x="132.97" y="574.08" text-anchor="middle" style="font-family: Arimo;font-size: 12.00px;" textLength="7.64px" lengthAdjust="spacingAndGlyphs">4</text></g>
<g><text x="249.47" y="574.08" text-anchor="middle" style="font-family: Arimo;font-size: 12.00px;" textLength="7.64px" lengthAdjust="spacingAndGlyphs">5</text></g>
<g><text x="365.96" y="574.08" text-anchor="middle" style="font-family: Arimo;font-size: 12.00px;" textLength="7.64px" lengthAdjust="spacingAndGlyphs">6</text></g>
<g><text x="482.46" y="574.08" text-anchor="middle" style="font-family: Arimo;font-size: 12.00px;" textLength="7.64px" lengthAdjust="spacingAndGlyphs">7</text></g>
<g><text x="598.96" y="574.08" text-anchor="middle" style="font-family: Arimo;font-size: 12.00px;" textLength="7.64px" lengthAdjust="spacingAndGlyphs">8</text></g>
<g><text x="715.46" y="574.08" text-anchor="middle" style="font-family: Arimo;font-size: 12.00px;" textLength="7.64px" lengthAdjust="spacingAndGlyphs">9</text></g>
<line x1="59.04" y1="477.50" x2="59.04" y2="86.00" style="stroke-width: 0.75;"/>
<line x1="59.04" y1="477.50" x2="51.84" y2="477.50" style="stroke-width: 0.75;"/>
<line x1="59.04" y1="379.62" x2="51.84" y2="379.62" style="stroke-width: 0.75;"/>
<line x1="59.04" y1="281.75" x2="51.84" y2="281.75" style="stroke-width: 0.75;"/>
<line x1="59.04" y1="183.87" x2="51.84" y2="183.87" style="stroke-width: 0.75;"/>
<line x1="59.04" y1="86.00" x2="51.84" y2="86.00" style="stroke-width: 0.75;"/>
<g><text transform="translate(41.76,477.50) rotate(-90.00)" text-anchor="middle" style="font-family: Arimo;font-size: 12.00px;" textLength="22.92px" lengthAdjust="spacingAndGlyphs">100</text></g>
<g><text transform="translate(41.76,379.62) rotate(-90.00)" text-anchor="middle" style="font-family: Arimo;font-size: 12.00px;" textLength="22.92px" lengthAdjust="spacingAndGlyphs">150</text></g>
<g><text transform="translate(41.76,281.75) rotate(-90.00)" text-anchor="middle" style="font-family: Arimo;font-size: 12.00px;" textLength="22.92px" lengthAdjust="spacingAndGlyphs">200</text></g>
<g><text transform="translate(41.76,183.87) rotate(-90.00)" text-anchor="middle" style="font-family: Arimo;font-size: 12.00px;" textLength="22.92px" lengthAdjust="spacingAndGlyphs">250</text></g>
<g><text transform="translate(41.76,86.00) rotate(-90.00)" text-anchor="middle" style="font-family: Arimo;font-size: 12.00px;" textLength="22.92px" lengthAdjust="spacingAndGlyphs">300</text></g>
<polygon points="59.04,548.16 796.96,548.16 796.96,59.04 59.04,59.04" style="stroke-width: 0.75;" />
<g><text x="428.00" y="34.77" text-anchor="middle" style="font-family: Arimo;font-size: 14.40px;font-weight: bold;" textLength="196.33px" lengthAdjust="spacingAndGlyphs">Partial Dependence Plot</text></g>
<g><text x="428.00" y="602.88" text-anchor="middle" style="font-family: Arimo;font-size: 12.00px;" textLength="226.83px" lengthAdjust="spacingAndGlyphs">UNRATE plotted at specified quantiles</text></g>
<g><text transform="translate(12.96,303.60) rotate(-90.00)" text-anchor="middle" style="font-family: Arimo;font-size: 12.00px;" textLength="76.27px" lengthAdjust="spacingAndGlyphs">Partial Effect</text></g>
</g><g clip-path="url(#c3)">
<polygon points="86.37,77.16 109.67,105.51 179.57,224.57 214.52,248.50 249.47,323.61 296.07,352.40 342.67,361.50 389.26,361.50 564.01,461.06 715.46,454.31 769.63,452.53 769.63,530.04 715.46,512.27 564.01,510.72 389.26,437.02 342.67,416.63 296.07,402.01 249.47,377.85 214.52,345.26 179.57,275.15 109.67,232.87 86.37,164.95" style="stroke-width: 0.75;stroke: none;fill: #DEDEDE;" />
<polyline points="86.37,164.95 109.67,232.87 179.57,275.15 214.52,345.26 249.47,377.85 296.07,402.01 342.67,416.63 389.26,437.02 564.01,510.72 715.46,512.27 769.63,530.04" style="stroke-width: 0.75;stroke: #0000FF;"/>
<circle cx="86.37" cy="164.95" r="2.70" style="stroke-width: 0.75;stroke: #0000FF;"/>
<circle cx="109.67" cy="232.87" r="2.70" style="stroke-width: 0.75;stroke: #0000FF;"/>
<circle cx="179.57" cy="275.15" r="2.70" style="stroke-width: 0.75;stroke: #0000FF;"/>
<circle cx="214.52" cy="345.26" r="2.70" style="stroke-width: 0.75;stroke: #0000FF;"/>
<circle cx="249.47" cy="377.85" r="2.70" style="stroke-width: 0.75;stroke: #0000FF;"/>
<circle cx="296.07" cy="402.01" r="2.70" style="stroke-width: 0.75;stroke: #0000FF;"/>
<circle cx="342.67" cy="416.63" r="2.70" style="stroke-width: 0.75;stroke: #0000FF;"/>
<circle cx="389.26" cy="437.02" r="2.70" style="stroke-width: 0.75;stroke: #0000FF;"/>
<circle cx="564.01" cy="510.72" r="2.70" style="stroke-width: 0.75;stroke: #0000FF;"/>
<circle cx="715.46" cy="512.27" r="2.70" style="stroke-width: 0.75;stroke: #0000FF;"/>
<circle cx="769.63" cy="530.04" r="2.70" style="stroke-width: 0.75;stroke: #0000FF;"/>
<polyline points="86.37,77.16 109.67,105.51 179.57,224.57 214.52,248.50 249.47,323.61 296.07,352.40 342.67,361.50 389.26,361.50 564.01,461.06 715.46,454.31 769.63,452.53" style="stroke-width: 0.75;stroke: #0000FF;"/>
<circle cx="86.37" cy="77.16" r="2.70" style="stroke-width: 0.75;stroke: #0000FF;"/>
<circle cx="109.67" cy="105.51" r="2.70" style="stroke-width: 0.75;stroke: #0000FF;"/>
<circle cx="179.57" cy="224.57" r="2.70" style="stroke-width: 0.75;stroke: #0000FF;"/>
<circle cx="214.52" cy="248.50" r="2.70" style="stroke-width: 0.75;stroke: #0000FF;"/>
<circle cx="249.47" cy="323.61" r="2.70" style="stroke-width: 0.75;stroke: #0000FF;"/>
<circle cx="296.07" cy="352.40" r="2.70" style="stroke-width: 0.75;stroke: #0000FF;"/>
<circle cx="342.67" cy="361.50" r="2.70" style="stroke-width: 0.75;stroke: #0000FF;"/>
<circle cx="389.26" cy="361.50" r="2.70" style="stroke-width: 0.75;stroke: #0000FF;"/>
<circle cx="564.01" cy="461.06" r="2.70" style="stroke-width: 0.75;stroke: #0000FF;"/>
<circle cx="715.46" cy="454.31" r="2.70" style="stroke-width: 0.75;stroke: #0000FF;"/>
<circle cx="769.63" cy="452.53" r="2.70" style="stroke-width: 0.75;stroke: #0000FF;"/>
<polyline points="86.37,123.76 109.67,169.15 179.57,249.34 214.52,290.55 249.47,351.39 296.07,375.95 342.67,386.97 389.26,400.43 564.01,488.15 715.46,483.85 769.63,486.73" style="stroke-width: 1.50;"/>
<circle cx="86.37" cy="123.76" r="2.70" style="stroke-width: 1.50;"/>
<circle cx="109.67" cy="169.15" r="2.70" style="stroke-width: 1.50;"/>
<circle cx="179.57" cy="249.34" r="2.70" style="stroke-width: 1.50;"/>
<circle cx="214.52" cy="290.55" r="2.70" style="stroke-width: 1.50;"/>
<circle cx="249.47" cy="351.39" r="2.70" style="stroke-width: 1.50;"/>
<circle cx="296.07" cy="375.95" r="2.70" style="stroke-width: 1.50;"/>
<circle cx="342.67" cy="386.97" r="2.70" style="stroke-width: 1.50;"/>
<circle cx="389.26" cy="400.43" r="2.70" style="stroke-width: 1.50;"/>
<circle cx="564.01" cy="488.15" r="2.70" style="stroke-width: 1.50;"/>
<circle cx="715.46" cy="483.85" r="2.70" style="stroke-width: 1.50;"/>
<circle cx="769.63" cy="486.73" r="2.70" style="stroke-width: 1.50;"/>
</g>
</svg>