<svg xmlns="http://www.w3.org/2000/svg" xmlns:xlink="http://www.w3.org/1999/xlink" class="httpgd" width="878.00" height="588.00" viewBox="0 0 702.40 470.40">
<defs>
  <style type='text/css'><![CDATA[
    .httpgd line, .httpgd polyline, .httpgd polygon, .httpgd path, .httpgd rect, .httpgd circle {
      fill: none;
      stroke: #000000;
      stroke-linecap: round;
      stroke-linejoin: round;
      stroke-miterlimit: 10.00;
    }
  ]]></style>
<clipPath id="c0"><rect x="0.00" y="0.00" width="702.40" height="470.40"/></clipPath>
<clipPath id="c1"><rect x="59.04" y="59.04" width="613.12" height="337.92"/></clipPath>
<clipPath id="c2"><rect x="0.00" y="0.00" width="702.40" height="470.40"/></clipPath>
<clipPath id="c3"><rect x="59.04" y="59.04" width="613.12" height="337.92"/></clipPath>
</defs>
<rect width="100%" height="100%" style="stroke: none;fill: #FFFFFF;"/>
<g clip-path="url(#c0)">
</g><g clip-path="url(#c1)">
<polyline points="81.75,99.18 83.72,106.38 87.24,108.13 90.53,111.56 114.14,288.13 192.43,336.44 263.59,351.05 336.50,350.93 567.10,351.36 649.45,351.52" style="stroke-width: 0.75;"/>
<circle cx="81.75" cy="99.18" r="2.70" style="stroke-width: 0.75;"/>
<circle cx="83.72" cy="106.38" r="2.70" style="stroke-width: 0.75;"/>
<circle cx="87.24" cy="108.13" r="2.70" style="stroke-width: 0.75;"/>
<circle cx="90.53" cy="111.56" r="2.70" style="stroke-width: 0.75;"/>
<circle cx="114.14" cy="288.13" r="2.70" style="stroke-width: 0.75;"/>
<circle cx="192.43" cy="336.44" r="2.70" style="stroke-width: 0.75;"/>
<circle cx="263.59" cy="351.05" r="2.70" style="stroke-width: 0.75;"/>
<circle cx="336.50" cy="350.93" r="2.70" style="stroke-width: 0.75;"/>
<circle cx="567.10" cy="351.36" r="2.70" style="stroke-width: 0.75;"/>
<circle cx="649.45" cy="351.52" r="2.70" style="stroke-width: 0.75;"/>
</g><g clip-path="url(#c2)">
<line x1="72.96" y1="396.96" x2="622.00" y2="396.96" style="stroke-width: 0.75;"/>
<line x1="72.96" y1="396.96" x2="72.96" y2="404.16" style="stroke-width: 0.75;"/>
<line x1="182.77" y1="396.96" x2="182.77" y2="404.16" style="stroke-width: 0.75;"/>
<line x1="292.58" y1="396.96" x2="292.58" y2="404.16" style="stroke-width: 0.75;"/>
<line x1="402.39" y1="396.96" x2="402.39" y2="404.16" style="stroke-width: 0.75;"/>
<line x1="512.19" y1="396.96" x2="512.19" y2="404.16" style="stroke-width: 0.75;"/>
<line x1="622.00" y1="396.96" x2="622.00" y2="404.16" style="stroke-width: 0.75;"/>
<g><text x="72.96" y="422.88" text-anchor="middle" style="font-family: Arimo;font-size: 12.00px;" textLength="7.64px" lengthAdjust="spacingAndGlyphs">0</text></g>
<g><text x="182.77" y="422.88" text-anchor="middle" style="font-family: Arimo;font-size: 12.00px;" textLength="7.64px" lengthAdjust="spacingAndGlyphs">1</text></g>
<g><text x="292.58" y="422.88" text-anchor="middle" style="font-family: Arimo;font-size: 12.00px;" textLength="7.64px" lengthAdjust="spacingAndGlyphs">2</text></g>
<g><text x="402.39" y="422.88" text-anchor="middle" style="font-family: Arimo;font-size: 12.00px;" textLength="7.64px" lengthAdjust="spacingAndGlyphs">3</text></g>
<g><text x="512.19" y="422.88" text-anchor="middle" style="font-family: Arimo;font-size: 12.00px;" textLength="7.64px" lengthAdjust="spacingAndGlyphs">4</text></g>
<g><text x="622.00" y="422.88" text-anchor="middle" style="font-family: Arimo;font-size: 12.00px;" textLength="7.64px" lengthAdjust="spacingAndGlyphs">5</text></g>
<line x1="59.04" y1="368.87" x2="59.04" y2="94.45" style="stroke-width: 0.75;"/>
<line x1="59.04" y1="368.87" x2="51.84" y2="368.87" style="stroke-width: 0.75;"/>
<line x1="59.04" y1="323.14" x2="51.84" y2="323.14" style="stroke-width: 0.75;"/>
<line x1="59.04" y1="277.40" x2="51.84" y2="277.40" style="stroke-width: 0.75;"/>
<line x1="59.04" y1="231.66" x2="51.84" y2="231.66" style="stroke-width: 0.75;"/>
<line x1="59.04" y1="185.92" x2="51.84" y2="185.92" style="stroke-width: 0.75;"/>
<line x1="59.04" y1="140.19" x2="51.84" y2="140.19" style="stroke-width: 0.75;"/>
<line x1="59.04" y1="94.45" x2="51.84" y2="94.45" style="stroke-width: 0.75;"/>
<g><text transform="translate(41.76,368.87) rotate(-90.00)" text-anchor="middle" style="font-family: Arimo;font-size: 12.00px;" textLength="19.09px" lengthAdjust="spacingAndGlyphs">4.5</text></g>
<g><text transform="translate(41.76,323.14) rotate(-90.00)" text-anchor="middle" style="font-family: Arimo;font-size: 12.00px;" textLength="19.09px" lengthAdjust="spacingAndGlyphs">5.0</text></g>
<g><text transform="translate(41.76,277.40) rotate(-90.00)" text-anchor="middle" style="font-family: Arimo;font-size: 12.00px;" textLength="19.09px" lengthAdjust="spacingAndGlyphs">5.5</text></g>
<g><text transform="translate(41.76,231.66) rotate(-90.00)" text-anchor="middle" style="font-family: Arimo;font-size: 12.00px;" textLength="19.09px" lengthAdjust="spacingAndGlyphs">6.0</text></g>
<g><text transform="translate(41.76,185.92) rotate(-90.00)" text-anchor="middle" style="font-family: Arimo;font-size: 12.00px;" textLength="19.09px" lengthAdjust="spacingAndGlyphs">6.5</text></g>
<g><text transform="translate(41.76,140.19) rotate(-90.00)" text-anchor="middle" style="font-family: Arimo;font-size: 12.00px;" textLength="19.09px" lengthAdjust="spacingAndGlyphs">7.0</text></g>
<g><text transform="translate(41.76,94.45) rotate(-90.00)" text-anchor="middle" style="font-family: Arimo;font-size: 12.00px;" textLength="19.09px" lengthAdjust="spacingAndGlyphs">7.5</text></g>
<polygon points="59.04,396.96 672.16,396.96 672.16,59.04 59.04,59.04" style="stroke-width: 0.75;" />
<g><text x="365.60" y="34.77" text-anchor="middle" style="font-family: Arimo;font-size: 14.40px;font-weight: bold;" textLength="196.33px" lengthAdjust="spacingAndGlyphs">Partial Dependence Plot</text></g>
<g><text x="365.60" y="451.68" text-anchor="middle" style="font-family: Arimo;font-size: 12.00px;" textLength="208.76px" lengthAdjust="spacingAndGlyphs">EFFR plotted at specified quantiles</text></g>
<g><text transform="translate(12.96,228.00) rotate(-90.00)" text-anchor="middle" style="font-family: Arimo;font-size: 12.00px;" textLength="76.27px" lengthAdjust="spacingAndGlyphs">Partial Effect</text></g>
</g><g clip-path="url(#c3)">
<polygon points="81.75,71.56 83.72,72.84 87.24,72.84 90.53,73.92 114.14,190.03 192.43,303.97 263.59,325.09 336.50,325.43 567.10,320.59 649.45,319.62 649.45,384.44 567.10,383.51 336.50,374.41 263.59,382.66 192.43,369.97 114.14,349.82 90.53,144.40 87.24,166.52 83.72,152.88 81.75,133.49" style="stroke-width: 0.75;stroke: none;fill: #DEDEDE;" />
<polyline points="81.75,133.49 83.72,152.88 87.24,166.52 90.53,144.40 114.14,349.82 192.43,369.97 263.59,382.66 336.50,374.41 567.10,383.51 649.45,384.44" style="stroke-width: 0.75;stroke: #0000FF;"/>
<circle cx="81.75" cy="133.49" r="2.70" style="stroke-width: 0.75;stroke: #0000FF;"/>
<circle cx="83.72" cy="152.88" r="2.70" style="stroke-width: 0.75;stroke: #0000FF;"/>
<circle cx="87.24" cy="166.52" r="2.70" style="stroke-width: 0.75;stroke: #0000FF;"/>
<circle cx="90.53" cy="144.40" r="2.70" style="stroke-width: 0.75;stroke: #0000FF;"/>
<circle cx="114.14" cy="349.82" r="2.70" style="stroke-width: 0.75;stroke: #0000FF;"/>
<circle cx="192.43" cy="369.97" r="2.70" style="stroke-width: 0.75;stroke: #0000FF;"/>
<circle cx="263.59" cy="382.66" r="2.70" style="stroke-width: 0.75;stroke: #0000FF;"/>
<circle cx="336.50" cy="374.41" r="2.70" style="stroke-width: 0.75;stroke: #0000FF;"/>
<circle cx="567.10" cy="383.51" r="2.70" style="stroke-width: 0.75;stroke: #0000FF;"/>
<circle cx="649.45" cy="384.44" r="2.70" style="stroke-width: 0.75;stroke: #0000FF;"/>
<polyline points="81.75,71.56 83.72,72.84 87.24,72.84 90.53,73.92 114.14,190.03 192.43,303.97 263.59,325.09 336.50,325.43 567.10,320.59 649.45,319.62" style="stroke-width: 0.75;stroke: #0000FF;"/>
<circle cx="81.75" cy="71.56" r="2.70" style="stroke-width: 0.75;stroke: #0000FF;"/>
<circle cx="83.72" cy="72.84" r="2.70" style="stroke-width: 0.75;stroke: #0000FF;"/>
<circle cx="87.24" cy="72.84" r="2.70" style="stroke-width: 0.75;stroke: #0000FF;"/>
<circle cx="90.53" cy="73.92" r="2.70" style="stroke-width: 0.75;stroke: #0000FF;"/>
<circle cx="114.14" cy="190.03" r="2.70" style="stroke-width: 0.75;stroke: #0000FF;"/>
<circle cx="192.43" cy="303.97" r="2.70" style="stroke-width: 0.75;stroke: #0000FF;"/>
<circle cx="263.59" cy="325.09" r="2.70" style="stroke-width: 0.75;stroke: #0000FF;"/>
<circle cx="336.50" cy="325.43" r="2.70" style="stroke-width: 0.75;stroke: #0000FF;"/>
<circle cx="567.10" cy="320.59" r="2.70" style="stroke-width: 0.75;stroke: #0000FF;"/>
<circle cx="649.45" cy="319.62" r="2.70" style="stroke-width: 0.75;stroke: #0000FF;"/>
<polyline points="81.75,99.18 83.72,106.38 87.24,108.13 90.53,111.56 114.14,288.13 192.43,336.44 263.59,351.05 336.50,350.93 567.10,351.36 649.45,351.52" style="stroke-width: 1.50;"/>
<circle cx="81.75" cy="99.18" r="2.70" style="stroke-width: 1.50;"/>
<circle cx="83.72" cy="106.38" r="2.70" style="stroke-width: 1.50;"/>
<circle cx="87.24" cy="108.13" r="2.70" style="stroke-width: 1.50;"/>
<circle cx="90.53" cy="111.56" r="2.70" style="stroke-width: 1.50;"/>
<circle cx="114.14" cy="288.13" r="2.70" style="stroke-width: 1.50;"/>
<circle cx="192.43" cy="336.44" r="2.70" style="stroke-width: 1.50;"/>
<circle cx="263.59" cy="351.05" r="2.70" style="stroke-width: 1.50;"/>
<circle cx="336.50" cy="350.93" r="2.70" style="stroke-width: 1.50;"/>
<circle cx="567.10" cy="351.36" r="2.70" style="stroke-width: 1.50;"/>
<circle cx="649.45" cy="351.52" r="2.70" style="stroke-width: 1.50;"/>
</g>
</svg>