<svg xmlns="http://www.w3.org/2000/svg" xmlns:xlink="http://www.w3.org/1999/xlink" class="httpgd" width="1536.00" height="927.00" viewBox="0 0 1228.80 741.60">
<defs>
  <style type='text/css'><![CDATA[
    .httpgd line, .httpgd polyline, .httpgd polygon, .httpgd path, .httpgd rect, .httpgd circle {
      fill: none;
      stroke: #000000;
      stroke-linecap: round;
      stroke-linejoin: round;
      stroke-miterlimit: 10.00;
    }
  ]]></style>
<clipPath id="c0"><rect x="0.00" y="0.00" width="1228.80" height="741.60"/></clipPath>
<clipPath id="c1"><rect x="59.04" y="59.04" width="1139.52" height="238.32"/></clipPath>
<clipPath id="c2"><rect x="0.00" y="0.00" width="1228.80" height="741.60"/></clipPath>
<clipPath id="c3"><rect x="0.00" y="0.00" width="1228.80" height="370.80"/></clipPath>
<clipPath id="c4"><rect x="59.04" y="429.84" width="1139.52" height="238.32"/></clipPath>
<clipPath id="c5"><rect x="0.00" y="0.00" width="1228.80" height="741.60"/></clipPath>
<clipPath id="c6"><rect x="0.00" y="370.80" width="1228.80" height="370.80"/></clipPath>
<clipPath id="c7"><rect x="59.04" y="429.84" width="1139.52" height="238.32"/></clipPath>
</defs>
<rect width="100%" height="100%" style="stroke: none;fill: #FFFFFF;"/>
<g clip-path="url(#c0)">
</g><g clip-path="url(#c1)">
<circle cx="602.79" cy="205.85" r="2.70" style="stroke-width: 0.75;stroke: #0000FF;"/>
<circle cx="303.11" cy="258.91" r="2.70" style="stroke-width: 0.75;stroke: #0000FF;"/>
<circle cx="432.16" cy="235.86" r="2.70" style="stroke-width: 0.75;stroke: #0000FF;"/>
<circle cx="737.16" cy="184.72" r="2.70" style="stroke-width: 0.75;stroke: #0000FF;"/>
<circle cx="614.13" cy="203.06" r="2.70" style="stroke-width: 0.75;stroke: #0000FF;"/>
<circle cx="443.55" cy="235.01" r="2.70" style="stroke-width: 0.75;stroke: #0000FF;"/>
<circle cx="682.52" cy="196.14" r="2.70" style="stroke-width: 0.75;stroke: #0000FF;"/>
<circle cx="734.50" cy="186.95" r="2.70" style="stroke-width: 0.75;stroke: #0000FF;"/>
<circle cx="944.69" cy="140.18" r="2.70" style="stroke-width: 0.75;stroke: #0000FF;"/>
<circle cx="1006.95" cy="134.92" r="2.70" style="stroke-width: 0.75;stroke: #0000FF;"/>
<circle cx="786.59" cy="171.23" r="2.70" style="stroke-width: 0.75;stroke: #0000FF;"/>
<circle cx="829.40" cy="163.16" r="2.70" style="stroke-width: 0.75;stroke: #0000FF;"/>
<circle cx="724.08" cy="188.11" r="2.70" style="stroke-width: 0.75;stroke: #0000FF;"/>
<circle cx="654.81" cy="199.54" r="2.70" style="stroke-width: 0.75;stroke: #0000FF;"/>
<circle cx="572.73" cy="208.56" r="2.70" style="stroke-width: 0.75;stroke: #0000FF;"/>
<circle cx="533.52" cy="216.58" r="2.70" style="stroke-width: 0.75;stroke: #0000FF;"/>
<circle cx="694.38" cy="193.02" r="2.70" style="stroke-width: 0.75;stroke: #0000FF;"/>
<circle cx="365.06" cy="253.27" r="2.70" style="stroke-width: 0.75;stroke: #0000FF;"/>
<circle cx="483.53" cy="226.99" r="2.70" style="stroke-width: 0.75;stroke: #0000FF;"/>
<circle cx="638.95" cy="200.66" r="2.70" style="stroke-width: 0.75;stroke: #0000FF;"/>
<circle cx="515.07" cy="220.50" r="2.70" style="stroke-width: 0.75;stroke: #0000FF;"/>
<circle cx="492.51" cy="224.79" r="2.70" style="stroke-width: 0.75;stroke: #0000FF;"/>
<circle cx="447.19" cy="234.91" r="2.70" style="stroke-width: 0.75;stroke: #0000FF;"/>
<circle cx="704.06" cy="191.37" r="2.70" style="stroke-width: 0.75;stroke: #0000FF;"/>
<circle cx="696.78" cy="192.96" r="2.70" style="stroke-width: 0.75;stroke: #0000FF;"/>
<circle cx="675.50" cy="196.76" r="2.70" style="stroke-width: 0.75;stroke: #0000FF;"/>
<circle cx="718.98" cy="188.76" r="2.70" style="stroke-width: 0.75;stroke: #0000FF;"/>
<circle cx="691.99" cy="194.12" r="2.70" style="stroke-width: 0.75;stroke: #0000FF;"/>
<circle cx="586.74" cy="207.15" r="2.70" style="stroke-width: 0.75;stroke: #0000FF;"/>
<circle cx="321.92" cy="255.98" r="2.70" style="stroke-width: 0.75;stroke: #0000FF;"/>
<circle cx="528.35" cy="217.46" r="2.70" style="stroke-width: 0.75;stroke: #0000FF;"/>
<circle cx="504.01" cy="222.55" r="2.70" style="stroke-width: 0.75;stroke: #0000FF;"/>
<circle cx="424.15" cy="238.72" r="2.70" style="stroke-width: 0.75;stroke: #0000FF;"/>
<circle cx="666.25" cy="198.57" r="2.70" style="stroke-width: 0.75;stroke: #0000FF;"/>
<circle cx="598.23" cy="206.09" r="2.70" style="stroke-width: 0.75;stroke: #0000FF;"/>
<circle cx="593.65" cy="206.57" r="2.70" style="stroke-width: 0.75;stroke: #0000FF;"/>
<circle cx="568.00" cy="209.15" r="2.70" style="stroke-width: 0.75;stroke: #0000FF;"/>
<circle cx="495.43" cy="224.00" r="2.70" style="stroke-width: 0.75;stroke: #0000FF;"/>
<circle cx="657.09" cy="199.51" r="2.70" style="stroke-width: 0.75;stroke: #0000FF;"/>
<circle cx="517.77" cy="219.64" r="2.70" style="stroke-width: 0.75;stroke: #0000FF;"/>
<circle cx="523.10" cy="219.07" r="2.70" style="stroke-width: 0.75;stroke: #0000FF;"/>
<circle cx="880.88" cy="153.05" r="2.70" style="stroke-width: 0.75;stroke: #0000FF;"/>
<circle cx="670.86" cy="197.44" r="2.70" style="stroke-width: 0.75;stroke: #0000FF;"/>
<circle cx="611.87" cy="203.75" r="2.70" style="stroke-width: 0.75;stroke: #0000FF;"/>
<circle cx="382.20" cy="247.78" r="2.70" style="stroke-width: 0.75;stroke: #0000FF;"/>
<circle cx="648.00" cy="199.78" r="2.70" style="stroke-width: 0.75;stroke: #0000FF;"/>
<circle cx="570.37" cy="208.56" r="2.70" style="stroke-width: 0.75;stroke: #0000FF;"/>
<circle cx="607.33" cy="204.31" r="2.70" style="stroke-width: 0.75;stroke: #0000FF;"/>
<circle cx="729.25" cy="187.65" r="2.70" style="stroke-width: 0.75;stroke: #0000FF;"/>
<circle cx="627.67" cy="201.56" r="2.70" style="stroke-width: 0.75;stroke: #0000FF;"/>
<circle cx="231.36" cy="275.98" r="2.70" style="stroke-width: 0.75;stroke: #0000FF;"/>
<circle cx="850.72" cy="158.79" r="2.70" style="stroke-width: 0.75;stroke: #0000FF;"/>
<circle cx="439.83" cy="235.45" r="2.70" style="stroke-width: 0.75;stroke: #0000FF;"/>
<circle cx="886.58" cy="151.95" r="2.70" style="stroke-width: 0.75;stroke: #0000FF;"/>
<circle cx="501.18" cy="223.45" r="2.70" style="stroke-width: 0.75;stroke: #0000FF;"/>
<circle cx="713.95" cy="189.73" r="2.70" style="stroke-width: 0.75;stroke: #0000FF;"/>
<circle cx="726.66" cy="187.74" r="2.70" style="stroke-width: 0.75;stroke: #0000FF;"/>
<circle cx="620.91" cy="202.19" r="2.70" style="stroke-width: 0.75;stroke: #0000FF;"/>
<circle cx="706.51" cy="191.20" r="2.70" style="stroke-width: 0.75;stroke: #0000FF;"/>
<circle cx="558.40" cy="212.99" r="2.70" style="stroke-width: 0.75;stroke: #0000FF;"/>
<circle cx="721.52" cy="188.29" r="2.70" style="stroke-width: 0.75;stroke: #0000FF;"/>
<circle cx="402.25" cy="242.99" r="2.70" style="stroke-width: 0.75;stroke: #0000FF;"/>
<circle cx="512.34" cy="220.58" r="2.70" style="stroke-width: 0.75;stroke: #0000FF;"/>
<circle cx="689.60" cy="194.69" r="2.70" style="stroke-width: 0.75;stroke: #0000FF;"/>
<circle cx="530.94" cy="216.87" r="2.70" style="stroke-width: 0.75;stroke: #0000FF;"/>
<circle cx="750.78" cy="181.91" r="2.70" style="stroke-width: 0.75;stroke: #0000FF;"/>
<circle cx="892.54" cy="148.35" r="2.70" style="stroke-width: 0.75;stroke: #0000FF;"/>
<circle cx="919.55" cy="145.71" r="2.70" style="stroke-width: 0.75;stroke: #0000FF;"/>
<circle cx="464.48" cy="233.71" r="2.70" style="stroke-width: 0.75;stroke: #0000FF;"/>
<circle cx="771.04" cy="176.67" r="2.70" style="stroke-width: 0.75;stroke: #0000FF;"/>
<circle cx="406.88" cy="242.75" r="2.70" style="stroke-width: 0.75;stroke: #0000FF;"/>
<circle cx="659.37" cy="199.35" r="2.70" style="stroke-width: 0.75;stroke: #0000FF;"/>
<circle cx="392.57" cy="245.78" r="2.70" style="stroke-width: 0.75;stroke: #0000FF;"/>
<circle cx="905.32" cy="148.24" r="2.70" style="stroke-width: 0.75;stroke: #0000FF;"/>
<circle cx="371.02" cy="250.79" r="2.70" style="stroke-width: 0.75;stroke: #0000FF;"/>
<circle cx="420.00" cy="239.01" r="2.70" style="stroke-width: 0.75;stroke: #0000FF;"/>
<circle cx="589.04" cy="206.99" r="2.70" style="stroke-width: 0.75;stroke: #0000FF;"/>
<circle cx="652.54" cy="199.70" r="2.70" style="stroke-width: 0.75;stroke: #0000FF;"/>
<circle cx="397.49" cy="244.21" r="2.70" style="stroke-width: 0.75;stroke: #0000FF;"/>
<circle cx="546.14" cy="215.27" r="2.70" style="stroke-width: 0.75;stroke: #0000FF;"/>
<circle cx="753.59" cy="179.53" r="2.70" style="stroke-width: 0.75;stroke: #0000FF;"/>
<circle cx="467.77" cy="229.58" r="2.70" style="stroke-width: 0.75;stroke: #0000FF;"/>
<circle cx="387.48" cy="246.41" r="2.70" style="stroke-width: 0.75;stroke: #0000FF;"/>
<circle cx="591.35" cy="206.75" r="2.70" style="stroke-width: 0.75;stroke: #0000FF;"/>
<circle cx="101.24" cy="288.53" r="2.70" style="stroke-width: 0.75;stroke: #0000FF;"/>
<circle cx="595.94" cy="206.11" r="2.70" style="stroke-width: 0.75;stroke: #0000FF;"/>
<circle cx="673.18" cy="197.31" r="2.70" style="stroke-width: 0.75;stroke: #0000FF;"/>
<circle cx="625.42" cy="201.59" r="2.70" style="stroke-width: 0.75;stroke: #0000FF;"/>
<circle cx="708.98" cy="190.51" r="2.70" style="stroke-width: 0.75;stroke: #0000FF;"/>
<circle cx="793.12" cy="170.54" r="2.70" style="stroke-width: 0.75;stroke: #0000FF;"/>
<circle cx="645.73" cy="199.86" r="2.70" style="stroke-width: 0.75;stroke: #0000FF;"/>
<circle cx="783.39" cy="171.44" r="2.70" style="stroke-width: 0.75;stroke: #0000FF;"/>
<circle cx="616.39" cy="202.87" r="2.70" style="stroke-width: 0.75;stroke: #0000FF;"/>
<circle cx="810.41" cy="164.76" r="2.70" style="stroke-width: 0.75;stroke: #0000FF;"/>
<circle cx="865.03" cy="156.13" r="2.70" style="stroke-width: 0.75;stroke: #0000FF;"/>
<circle cx="927.34" cy="144.50" r="2.70" style="stroke-width: 0.75;stroke: #0000FF;"/>
<circle cx="663.95" cy="198.66" r="2.70" style="stroke-width: 0.75;stroke: #0000FF;"/>
<circle cx="623.16" cy="201.64" r="2.70" style="stroke-width: 0.75;stroke: #0000FF;"/>
<circle cx="636.69" cy="200.84" r="2.70" style="stroke-width: 0.75;stroke: #0000FF;"/>
<circle cx="461.14" cy="233.90" r="2.70" style="stroke-width: 0.75;stroke: #0000FF;"/>
<circle cx="954.49" cy="139.97" r="2.70" style="stroke-width: 0.75;stroke: #0000FF;"/>
<circle cx="541.14" cy="215.36" r="2.70" style="stroke-width: 0.75;stroke: #0000FF;"/>
<circle cx="548.62" cy="214.82" r="2.70" style="stroke-width: 0.75;stroke: #0000FF;"/>
<circle cx="489.55" cy="225.86" r="2.70" style="stroke-width: 0.75;stroke: #0000FF;"/>
<circle cx="428.20" cy="237.68" r="2.70" style="stroke-width: 0.75;stroke: #0000FF;"/>
<circle cx="774.07" cy="176.57" r="2.70" style="stroke-width: 0.75;stroke: #0000FF;"/>
<circle cx="543.65" cy="215.31" r="2.70" style="stroke-width: 0.75;stroke: #0000FF;"/>
<circle cx="582.10" cy="207.69" r="2.70" style="stroke-width: 0.75;stroke: #0000FF;"/>
<circle cx="565.61" cy="211.39" r="2.70" style="stroke-width: 0.75;stroke: #0000FF;"/>
<circle cx="486.56" cy="226.27" r="2.70" style="stroke-width: 0.75;stroke: #0000FF;"/>
<circle cx="498.32" cy="223.52" r="2.70" style="stroke-width: 0.75;stroke: #0000FF;"/>
<circle cx="411.37" cy="241.51" r="2.70" style="stroke-width: 0.75;stroke: #0000FF;"/>
<circle cx="609.60" cy="204.20" r="2.70" style="stroke-width: 0.75;stroke: #0000FF;"/>
<circle cx="742.53" cy="184.32" r="2.70" style="stroke-width: 0.75;stroke: #0000FF;"/>
<circle cx="977.32" cy="138.64" r="2.70" style="stroke-width: 0.75;stroke: #0000FF;"/>
<circle cx="480.46" cy="228.67" r="2.70" style="stroke-width: 0.75;stroke: #0000FF;"/>
<circle cx="358.83" cy="253.40" r="2.70" style="stroke-width: 0.75;stroke: #0000FF;"/>
<circle cx="701.62" cy="191.64" r="2.70" style="stroke-width: 0.75;stroke: #0000FF;"/>
<circle cx="965.28" cy="139.19" r="2.70" style="stroke-width: 0.75;stroke: #0000FF;"/>
<circle cx="471.01" cy="228.83" r="2.70" style="stroke-width: 0.75;stroke: #0000FF;"/>
<circle cx="634.44" cy="200.87" r="2.70" style="stroke-width: 0.75;stroke: #0000FF;"/>
<circle cx="833.45" cy="162.80" r="2.70" style="stroke-width: 0.75;stroke: #0000FF;"/>
<circle cx="352.28" cy="253.83" r="2.70" style="stroke-width: 0.75;stroke: #0000FF;"/>
<circle cx="629.93" cy="201.37" r="2.70" style="stroke-width: 0.75;stroke: #0000FF;"/>
<circle cx="756.42" cy="178.88" r="2.70" style="stroke-width: 0.75;stroke: #0000FF;"/>
<circle cx="345.37" cy="254.58" r="2.70" style="stroke-width: 0.75;stroke: #0000FF;"/>
<circle cx="680.17" cy="196.41" r="2.70" style="stroke-width: 0.75;stroke: #0000FF;"/>
<circle cx="777.14" cy="176.14" r="2.70" style="stroke-width: 0.75;stroke: #0000FF;"/>
<circle cx="376.72" cy="250.53" r="2.70" style="stroke-width: 0.75;stroke: #0000FF;"/>
<circle cx="520.44" cy="219.43" r="2.70" style="stroke-width: 0.75;stroke: #0000FF;"/>
<circle cx="506.82" cy="222.32" r="2.70" style="stroke-width: 0.75;stroke: #0000FF;"/>
<circle cx="553.54" cy="214.16" r="2.70" style="stroke-width: 0.75;stroke: #0000FF;"/>
<circle cx="935.68" cy="142.64" r="2.70" style="stroke-width: 0.75;stroke: #0000FF;"/>
<circle cx="641.21" cy="200.17" r="2.70" style="stroke-width: 0.75;stroke: #0000FF;"/>
<circle cx="1156.36" cy="67.87" r="2.70" style="stroke-width: 0.75;stroke: #0000FF;"/>
<circle cx="457.74" cy="233.96" r="2.70" style="stroke-width: 0.75;stroke: #0000FF;"/>
<circle cx="474.21" cy="228.77" r="2.70" style="stroke-width: 0.75;stroke: #0000FF;"/>
<circle cx="731.87" cy="187.60" r="2.70" style="stroke-width: 0.75;stroke: #0000FF;"/>
<circle cx="765.09" cy="177.83" r="2.70" style="stroke-width: 0.75;stroke: #0000FF;"/>
<circle cx="796.46" cy="166.98" r="2.70" style="stroke-width: 0.75;stroke: #0000FF;"/>
<circle cx="538.62" cy="215.62" r="2.70" style="stroke-width: 0.75;stroke: #0000FF;"/>
<circle cx="330.26" cy="254.99" r="2.70" style="stroke-width: 0.75;stroke: #0000FF;"/>
<circle cx="584.42" cy="207.35" r="2.70" style="stroke-width: 0.75;stroke: #0000FF;"/>
<circle cx="563.22" cy="212.01" r="2.70" style="stroke-width: 0.75;stroke: #0000FF;"/>
<circle cx="632.18" cy="200.97" r="2.70" style="stroke-width: 0.75;stroke: #0000FF;"/>
<circle cx="650.27" cy="199.74" r="2.70" style="stroke-width: 0.75;stroke: #0000FF;"/>
<circle cx="759.28" cy="178.83" r="2.70" style="stroke-width: 0.75;stroke: #0000FF;"/>
<circle cx="780.24" cy="172.26" r="2.70" style="stroke-width: 0.75;stroke: #0000FF;"/>
<circle cx="415.74" cy="240.76" r="2.70" style="stroke-width: 0.75;stroke: #0000FF;"/>
<circle cx="846.23" cy="160.21" r="2.70" style="stroke-width: 0.75;stroke: #0000FF;"/>
<circle cx="525.73" cy="218.12" r="2.70" style="stroke-width: 0.75;stroke: #0000FF;"/>
<circle cx="711.46" cy="189.77" r="2.70" style="stroke-width: 0.75;stroke: #0000FF;"/>
<circle cx="536.08" cy="216.00" r="2.70" style="stroke-width: 0.75;stroke: #0000FF;"/>
<circle cx="577.43" cy="207.85" r="2.70" style="stroke-width: 0.75;stroke: #0000FF;"/>
<circle cx="605.06" cy="204.61" r="2.70" style="stroke-width: 0.75;stroke: #0000FF;"/>
<circle cx="575.08" cy="207.86" r="2.70" style="stroke-width: 0.75;stroke: #0000FF;"/>
<circle cx="699.20" cy="192.34" r="2.70" style="stroke-width: 0.75;stroke: #0000FF;"/>
<circle cx="789.83" cy="171.22" r="2.70" style="stroke-width: 0.75;stroke: #0000FF;"/>
<circle cx="837.60" cy="162.08" r="2.70" style="stroke-width: 0.75;stroke: #0000FF;"/>
<circle cx="1050.99" cy="121.29" r="2.70" style="stroke-width: 0.75;stroke: #0000FF;"/>
<circle cx="716.46" cy="188.88" r="2.70" style="stroke-width: 0.75;stroke: #0000FF;"/>
<circle cx="600.51" cy="205.92" r="2.70" style="stroke-width: 0.75;stroke: #0000FF;"/>
<circle cx="509.59" cy="220.59" r="2.70" style="stroke-width: 0.75;stroke: #0000FF;"/>
<circle cx="560.82" cy="212.46" r="2.70" style="stroke-width: 0.75;stroke: #0000FF;"/>
<circle cx="250.65" cy="272.64" r="2.70" style="stroke-width: 0.75;stroke: #0000FF;"/>
<circle cx="684.87" cy="196.09" r="2.70" style="stroke-width: 0.75;stroke: #0000FF;"/>
<circle cx="739.83" cy="184.38" r="2.70" style="stroke-width: 0.75;stroke: #0000FF;"/>
<circle cx="991.00" cy="135.42" r="2.70" style="stroke-width: 0.75;stroke: #0000FF;"/>
<circle cx="799.86" cy="166.58" r="2.70" style="stroke-width: 0.75;stroke: #0000FF;"/>
<circle cx="206.61" cy="280.47" r="2.70" style="stroke-width: 0.75;stroke: #0000FF;"/>
<circle cx="555.98" cy="213.55" r="2.70" style="stroke-width: 0.75;stroke: #0000FF;"/>
<circle cx="762.17" cy="178.64" r="2.70" style="stroke-width: 0.75;stroke: #0000FF;"/>
<circle cx="266.60" cy="267.53" r="2.70" style="stroke-width: 0.75;stroke: #0000FF;"/>
<circle cx="643.47" cy="200.14" r="2.70" style="stroke-width: 0.75;stroke: #0000FF;"/>
<circle cx="312.91" cy="256.77" r="2.70" style="stroke-width: 0.75;stroke: #0000FF;"/>
<circle cx="1026.24" cy="125.19" r="2.70" style="stroke-width: 0.75;stroke: #0000FF;"/>
<circle cx="579.77" cy="207.71" r="2.70" style="stroke-width: 0.75;stroke: #0000FF;"/>
<circle cx="855.35" cy="158.00" r="2.70" style="stroke-width: 0.75;stroke: #0000FF;"/>
<circle cx="841.86" cy="162.04" r="2.70" style="stroke-width: 0.75;stroke: #0000FF;"/>
<circle cx="821.56" cy="164.30" r="2.70" style="stroke-width: 0.75;stroke: #0000FF;"/>
<circle cx="870.12" cy="154.41" r="2.70" style="stroke-width: 0.75;stroke: #0000FF;"/>
<circle cx="171.05" cy="281.07" r="2.70" style="stroke-width: 0.75;stroke: #0000FF;"/>
<circle cx="814.05" cy="164.67" r="2.70" style="stroke-width: 0.75;stroke: #0000FF;"/>
<circle cx="817.77" cy="164.56" r="2.70" style="stroke-width: 0.75;stroke: #0000FF;"/>
<circle cx="436.04" cy="235.71" r="2.70" style="stroke-width: 0.75;stroke: #0000FF;"/>
<circle cx="860.11" cy="156.97" r="2.70" style="stroke-width: 0.75;stroke: #0000FF;"/>
<circle cx="768.05" cy="177.66" r="2.70" style="stroke-width: 0.75;stroke: #0000FF;"/>
<circle cx="338.05" cy="254.84" r="2.70" style="stroke-width: 0.75;stroke: #0000FF;"/>
<circle cx="618.65" cy="202.47" r="2.70" style="stroke-width: 0.75;stroke: #0000FF;"/>
<circle cx="875.40" cy="154.36" r="2.70" style="stroke-width: 0.75;stroke: #0000FF;"/>
<circle cx="292.32" cy="261.60" r="2.70" style="stroke-width: 0.75;stroke: #0000FF;"/>
<circle cx="748.01" cy="183.03" r="2.70" style="stroke-width: 0.75;stroke: #0000FF;"/>
<circle cx="1086.55" cy="101.91" r="2.70" style="stroke-width: 0.75;stroke: #0000FF;"/>
<circle cx="745.26" cy="184.28" r="2.70" style="stroke-width: 0.75;stroke: #0000FF;"/>
<circle cx="825.44" cy="163.33" r="2.70" style="stroke-width: 0.75;stroke: #0000FF;"/>
<circle cx="806.83" cy="165.48" r="2.70" style="stroke-width: 0.75;stroke: #0000FF;"/>
<circle cx="661.66" cy="199.20" r="2.70" style="stroke-width: 0.75;stroke: #0000FF;"/>
<circle cx="280.28" cy="264.75" r="2.70" style="stroke-width: 0.75;stroke: #0000FF;"/>
<circle cx="477.36" cy="228.75" r="2.70" style="stroke-width: 0.75;stroke: #0000FF;"/>
<circle cx="551.09" cy="214.60" r="2.70" style="stroke-width: 0.75;stroke: #0000FF;"/>
<circle cx="687.23" cy="196.01" r="2.70" style="stroke-width: 0.75;stroke: #0000FF;"/>
<circle cx="803.31" cy="166.00" r="2.70" style="stroke-width: 0.75;stroke: #0000FF;"/>
<circle cx="677.83" cy="196.42" r="2.70" style="stroke-width: 0.75;stroke: #0000FF;"/>
<circle cx="668.56" cy="198.29" r="2.70" style="stroke-width: 0.75;stroke: #0000FF;"/>
<circle cx="454.29" cy="234.16" r="2.70" style="stroke-width: 0.75;stroke: #0000FF;"/>
<circle cx="912.23" cy="146.43" r="2.70" style="stroke-width: 0.75;stroke: #0000FF;"/>
<circle cx="898.77" cy="148.27" r="2.70" style="stroke-width: 0.75;stroke: #0000FF;"/>
<circle cx="450.77" cy="234.27" r="2.70" style="stroke-width: 0.75;stroke: #0000FF;"/>
</g><g clip-path="url(#c2)">
<line x1="67.50" y1="297.36" x2="1190.10" y2="297.36" style="stroke-width: 0.75;"/>
<line x1="67.50" y1="297.36" x2="67.50" y2="304.56" style="stroke-width: 0.75;"/>
<line x1="254.60" y1="297.36" x2="254.60" y2="304.56" style="stroke-width: 0.75;"/>
<line x1="441.70" y1="297.36" x2="441.70" y2="304.56" style="stroke-width: 0.75;"/>
<line x1="628.80" y1="297.36" x2="628.80" y2="304.56" style="stroke-width: 0.75;"/>
<line x1="815.90" y1="297.36" x2="815.90" y2="304.56" style="stroke-width: 0.75;"/>
<line x1="1003.00" y1="297.36" x2="1003.00" y2="304.56" style="stroke-width: 0.75;"/>
<line x1="1190.10" y1="297.36" x2="1190.10" y2="304.56" style="stroke-width: 0.75;"/>
<g><text x="67.50" y="323.28" text-anchor="middle" style="font-family: Arimo;font-size: 12.00px;" textLength="11.97px" lengthAdjust="spacingAndGlyphs">-3</text></g>
<g><text x="254.60" y="323.28" text-anchor="middle" style="font-family: Arimo;font-size: 12.00px;" textLength="11.97px" lengthAdjust="spacingAndGlyphs">-2</text></g>
<g><text x="441.70" y="323.28" text-anchor="middle" style="font-family: Arimo;font-size: 12.00px;" textLength="11.97px" lengthAdjust="spacingAndGlyphs">-1</text></g>
<g><text x="628.80" y="323.28" text-anchor="middle" style="font-family: Arimo;font-size: 12.00px;" textLength="7.64px" lengthAdjust="spacingAndGlyphs">0</text></g>
<g><text x="815.90" y="323.28" text-anchor="middle" style="font-family: Arimo;font-size: 12.00px;" textLength="7.64px" lengthAdjust="spacingAndGlyphs">1</text></g>
<g><text x="1003.00" y="323.28" text-anchor="middle" style="font-family: Arimo;font-size: 12.00px;" textLength="7.64px" lengthAdjust="spacingAndGlyphs">2</text></g>
<g><text x="1190.10" y="323.28" text-anchor="middle" style="font-family: Arimo;font-size: 12.00px;" textLength="7.64px" lengthAdjust="spacingAndGlyphs">3</text></g>
<line x1="59.04" y1="287.19" x2="59.04" y2="72.12" style="stroke-width: 0.75;"/>
<line x1="59.04" y1="287.19" x2="51.84" y2="287.19" style="stroke-width: 0.75;"/>
<line x1="59.04" y1="244.18" x2="51.84" y2="244.18" style="stroke-width: 0.75;"/>
<line x1="59.04" y1="201.16" x2="51.84" y2="201.16" style="stroke-width: 0.75;"/>
<line x1="59.04" y1="158.15" x2="51.84" y2="158.15" style="stroke-width: 0.75;"/>
<line x1="59.04" y1="115.13" x2="51.84" y2="115.13" style="stroke-width: 0.75;"/>
<line x1="59.04" y1="72.12" x2="51.84" y2="72.12" style="stroke-width: 0.75;"/>
<g><text transform="translate(41.76,287.19) rotate(-90.00)" text-anchor="middle" style="font-family: Arimo;font-size: 12.00px;" textLength="19.61px" lengthAdjust="spacingAndGlyphs">-10</text></g>
<g><text transform="translate(41.76,244.18) rotate(-90.00)" text-anchor="middle" style="font-family: Arimo;font-size: 12.00px;" textLength="11.97px" lengthAdjust="spacingAndGlyphs">-5</text></g>
<g><text transform="translate(41.76,201.16) rotate(-90.00)" text-anchor="middle" style="font-family: Arimo;font-size: 12.00px;" textLength="7.64px" lengthAdjust="spacingAndGlyphs">0</text></g>
<g><text transform="translate(41.76,158.15) rotate(-90.00)" text-anchor="middle" style="font-family: Arimo;font-size: 12.00px;" textLength="7.64px" lengthAdjust="spacingAndGlyphs">5</text></g>
<g><text transform="translate(41.76,115.13) rotate(-90.00)" text-anchor="middle" style="font-family: Arimo;font-size: 12.00px;" textLength="15.28px" lengthAdjust="spacingAndGlyphs">10</text></g>
<g><text transform="translate(41.76,72.12) rotate(-90.00)" text-anchor="middle" style="font-family: Arimo;font-size: 12.00px;" textLength="15.28px" lengthAdjust="spacingAndGlyphs">15</text></g>
<polygon points="59.04,297.36 1198.56,297.36 1198.56,59.04 59.04,59.04" style="stroke-width: 0.75;" />
</g><g clip-path="url(#c3)">
<g><text x="628.80" y="26.13" text-anchor="middle" style="font-family: Arimo;font-size: 14.40px;font-weight: bold;" textLength="203.10px" lengthAdjust="spacingAndGlyphs">Assessment of Normality</text></g>
<g><text x="628.80" y="43.41" text-anchor="middle" style="font-family: Arimo;font-size: 14.40px;font-weight: bold;" textLength="475.98px" lengthAdjust="spacingAndGlyphs"> p-val for shapiro-wilk test of normality of residuals: 0.138</text></g>
<g><text x="628.80" y="337.68" text-anchor="middle" style="font-family: Arimo;font-size: 12.00px;" textLength="238.76px" lengthAdjust="spacingAndGlyphs">Normal Q-Q plot for in-sample residuals</text></g>
<g><text x="628.80" y="352.08" text-anchor="middle" style="font-family: Arimo;font-size: 12.00px;" textLength="137.28px" lengthAdjust="spacingAndGlyphs">(Theoretical Quantiles)</text></g>
<g><text transform="translate(12.96,178.20) rotate(-90.00)" text-anchor="middle" style="font-family: Arimo;font-size: 12.00px;" textLength="105.87px" lengthAdjust="spacingAndGlyphs">Sample Quantiles</text></g>
</g><g clip-path="url(#c4)">
<circle cx="191.32" cy="576.65" r="2.70" style="stroke-width: 0.75;stroke: #0000FF;"/>
<circle cx="184.83" cy="629.71" r="2.70" style="stroke-width: 0.75;stroke: #0000FF;"/>
<circle cx="165.09" cy="606.66" r="2.70" style="stroke-width: 0.75;stroke: #0000FF;"/>
<circle cx="167.36" cy="555.52" r="2.70" style="stroke-width: 0.75;stroke: #0000FF;"/>
<circle cx="171.75" cy="573.86" r="2.70" style="stroke-width: 0.75;stroke: #0000FF;"/>
<circle cx="175.71" cy="605.81" r="2.70" style="stroke-width: 0.75;stroke: #0000FF;"/>
<circle cx="149.56" cy="566.94" r="2.70" style="stroke-width: 0.75;stroke: #0000FF;"/>
<circle cx="129.71" cy="557.75" r="2.70" style="stroke-width: 0.75;stroke: #0000FF;"/>
<circle cx="132.94" cy="510.98" r="2.70" style="stroke-width: 0.75;stroke: #0000FF;"/>
<circle cx="131.77" cy="505.72" r="2.70" style="stroke-width: 0.75;stroke: #0000FF;"/>
<circle cx="141.64" cy="542.03" r="2.70" style="stroke-width: 0.75;stroke: #0000FF;"/>
<circle cx="135.57" cy="533.96" r="2.70" style="stroke-width: 0.75;stroke: #0000FF;"/>
<circle cx="149.19" cy="558.91" r="2.70" style="stroke-width: 0.75;stroke: #0000FF;"/>
<circle cx="141.49" cy="570.34" r="2.70" style="stroke-width: 0.75;stroke: #0000FF;"/>
<circle cx="143.12" cy="579.36" r="2.70" style="stroke-width: 0.75;stroke: #0000FF;"/>
<circle cx="117.71" cy="587.38" r="2.70" style="stroke-width: 0.75;stroke: #0000FF;"/>
<circle cx="111.57" cy="563.82" r="2.70" style="stroke-width: 0.75;stroke: #0000FF;"/>
<circle cx="112.32" cy="624.07" r="2.70" style="stroke-width: 0.75;stroke: #0000FF;"/>
<circle cx="116.92" cy="597.79" r="2.70" style="stroke-width: 0.75;stroke: #0000FF;"/>
<circle cx="118.58" cy="571.46" r="2.70" style="stroke-width: 0.75;stroke: #0000FF;"/>
<circle cx="109.20" cy="591.30" r="2.70" style="stroke-width: 0.75;stroke: #0000FF;"/>
<circle cx="110.24" cy="595.59" r="2.70" style="stroke-width: 0.75;stroke: #0000FF;"/>
<circle cx="126.87" cy="605.71" r="2.70" style="stroke-width: 0.75;stroke: #0000FF;"/>
<circle cx="122.58" cy="562.17" r="2.70" style="stroke-width: 0.75;stroke: #0000FF;"/>
<circle cx="124.29" cy="563.76" r="2.70" style="stroke-width: 0.75;stroke: #0000FF;"/>
<circle cx="129.27" cy="567.56" r="2.70" style="stroke-width: 0.75;stroke: #0000FF;"/>
<circle cx="130.52" cy="559.56" r="2.70" style="stroke-width: 0.75;stroke: #0000FF;"/>
<circle cx="129.47" cy="564.92" r="2.70" style="stroke-width: 0.75;stroke: #0000FF;"/>
<circle cx="143.88" cy="577.95" r="2.70" style="stroke-width: 0.75;stroke: #0000FF;"/>
<circle cx="160.97" cy="626.78" r="2.70" style="stroke-width: 0.75;stroke: #0000FF;"/>
<circle cx="165.68" cy="588.26" r="2.70" style="stroke-width: 0.75;stroke: #0000FF;"/>
<circle cx="163.74" cy="593.35" r="2.70" style="stroke-width: 0.75;stroke: #0000FF;"/>
<circle cx="165.51" cy="609.52" r="2.70" style="stroke-width: 0.75;stroke: #0000FF;"/>
<circle cx="156.65" cy="569.37" r="2.70" style="stroke-width: 0.75;stroke: #0000FF;"/>
<circle cx="162.02" cy="576.89" r="2.70" style="stroke-width: 0.75;stroke: #0000FF;"/>
<circle cx="156.16" cy="577.37" r="2.70" style="stroke-width: 0.75;stroke: #0000FF;"/>
<circle cx="157.44" cy="579.95" r="2.70" style="stroke-width: 0.75;stroke: #0000FF;"/>
<circle cx="163.20" cy="594.80" r="2.70" style="stroke-width: 0.75;stroke: #0000FF;"/>
<circle cx="159.19" cy="570.31" r="2.70" style="stroke-width: 0.75;stroke: #0000FF;"/>
<circle cx="180.18" cy="590.44" r="2.70" style="stroke-width: 0.75;stroke: #0000FF;"/>
<circle cx="180.61" cy="589.87" r="2.70" style="stroke-width: 0.75;stroke: #0000FF;"/>
<circle cx="155.36" cy="523.85" r="2.70" style="stroke-width: 0.75;stroke: #0000FF;"/>
<circle cx="165.74" cy="568.24" r="2.70" style="stroke-width: 0.75;stroke: #0000FF;"/>
<circle cx="174.64" cy="574.55" r="2.70" style="stroke-width: 0.75;stroke: #0000FF;"/>
<circle cx="187.61" cy="618.58" r="2.70" style="stroke-width: 0.75;stroke: #0000FF;"/>
<circle cx="182.30" cy="570.58" r="2.70" style="stroke-width: 0.75;stroke: #0000FF;"/>
<circle cx="182.83" cy="579.36" r="2.70" style="stroke-width: 0.75;stroke: #0000FF;"/>
<circle cx="182.38" cy="575.11" r="2.70" style="stroke-width: 0.75;stroke: #0000FF;"/>
<circle cx="182.70" cy="558.45" r="2.70" style="stroke-width: 0.75;stroke: #0000FF;"/>
<circle cx="185.28" cy="572.36" r="2.70" style="stroke-width: 0.75;stroke: #0000FF;"/>
<circle cx="215.04" cy="646.78" r="2.70" style="stroke-width: 0.75;stroke: #0000FF;"/>
<circle cx="183.44" cy="529.59" r="2.70" style="stroke-width: 0.75;stroke: #0000FF;"/>
<circle cx="205.29" cy="606.25" r="2.70" style="stroke-width: 0.75;stroke: #0000FF;"/>
<circle cx="184.95" cy="522.75" r="2.70" style="stroke-width: 0.75;stroke: #0000FF;"/>
<circle cx="221.71" cy="594.25" r="2.70" style="stroke-width: 0.75;stroke: #0000FF;"/>
<circle cx="218.69" cy="560.53" r="2.70" style="stroke-width: 0.75;stroke: #0000FF;"/>
<circle cx="223.69" cy="558.54" r="2.70" style="stroke-width: 0.75;stroke: #0000FF;"/>
<circle cx="222.70" cy="572.99" r="2.70" style="stroke-width: 0.75;stroke: #0000FF;"/>
<circle cx="221.38" cy="562.00" r="2.70" style="stroke-width: 0.75;stroke: #0000FF;"/>
<circle cx="241.32" cy="583.79" r="2.70" style="stroke-width: 0.75;stroke: #0000FF;"/>
<circle cx="243.46" cy="559.09" r="2.70" style="stroke-width: 0.75;stroke: #0000FF;"/>
<circle cx="254.68" cy="613.79" r="2.70" style="stroke-width: 0.75;stroke: #0000FF;"/>
<circle cx="239.90" cy="591.38" r="2.70" style="stroke-width: 0.75;stroke: #0000FF;"/>
<circle cx="235.58" cy="565.49" r="2.70" style="stroke-width: 0.75;stroke: #0000FF;"/>
<circle cx="252.08" cy="587.67" r="2.70" style="stroke-width: 0.75;stroke: #0000FF;"/>
<circle cx="246.78" cy="552.71" r="2.70" style="stroke-width: 0.75;stroke: #0000FF;"/>
<circle cx="224.79" cy="519.15" r="2.70" style="stroke-width: 0.75;stroke: #0000FF;"/>
<circle cx="219.19" cy="516.51" r="2.70" style="stroke-width: 0.75;stroke: #0000FF;"/>
<circle cx="230.41" cy="604.51" r="2.70" style="stroke-width: 0.75;stroke: #0000FF;"/>
<circle cx="202.29" cy="547.47" r="2.70" style="stroke-width: 0.75;stroke: #0000FF;"/>
<circle cx="236.27" cy="613.55" r="2.70" style="stroke-width: 0.75;stroke: #0000FF;"/>
<circle cx="227.06" cy="570.15" r="2.70" style="stroke-width: 0.75;stroke: #0000FF;"/>
<circle cx="216.94" cy="616.58" r="2.70" style="stroke-width: 0.75;stroke: #0000FF;"/>
<circle cx="127.63" cy="519.04" r="2.70" style="stroke-width: 0.75;stroke: #0000FF;"/>
<circle cx="145.71" cy="621.59" r="2.70" style="stroke-width: 0.75;stroke: #0000FF;"/>
<circle cx="142.39" cy="609.81" r="2.70" style="stroke-width: 0.75;stroke: #0000FF;"/>
<circle cx="101.24" cy="577.79" r="2.70" style="stroke-width: 0.75;stroke: #0000FF;"/>
<circle cx="110.23" cy="570.50" r="2.70" style="stroke-width: 0.75;stroke: #0000FF;"/>
<circle cx="141.04" cy="615.01" r="2.70" style="stroke-width: 0.75;stroke: #0000FF;"/>
<circle cx="142.48" cy="586.07" r="2.70" style="stroke-width: 0.75;stroke: #0000FF;"/>
<circle cx="152.76" cy="550.33" r="2.70" style="stroke-width: 0.75;stroke: #0000FF;"/>
<circle cx="174.51" cy="600.38" r="2.70" style="stroke-width: 0.75;stroke: #0000FF;"/>
<circle cx="176.55" cy="617.21" r="2.70" style="stroke-width: 0.75;stroke: #0000FF;"/>
<circle cx="180.47" cy="577.55" r="2.70" style="stroke-width: 0.75;stroke: #0000FF;"/>
<circle cx="198.51" cy="659.33" r="2.70" style="stroke-width: 0.75;stroke: #0000FF;"/>
<circle cx="180.07" cy="576.91" r="2.70" style="stroke-width: 0.75;stroke: #0000FF;"/>
<circle cx="194.96" cy="568.11" r="2.70" style="stroke-width: 0.75;stroke: #0000FF;"/>
<circle cx="164.10" cy="572.39" r="2.70" style="stroke-width: 0.75;stroke: #0000FF;"/>
<circle cx="176.33" cy="561.31" r="2.70" style="stroke-width: 0.75;stroke: #0000FF;"/>
<circle cx="178.19" cy="541.34" r="2.70" style="stroke-width: 0.75;stroke: #0000FF;"/>
<circle cx="197.56" cy="570.66" r="2.70" style="stroke-width: 0.75;stroke: #0000FF;"/>
<circle cx="188.82" cy="542.24" r="2.70" style="stroke-width: 0.75;stroke: #0000FF;"/>
<circle cx="213.62" cy="573.67" r="2.70" style="stroke-width: 0.75;stroke: #0000FF;"/>
<circle cx="209.43" cy="535.56" r="2.70" style="stroke-width: 0.75;stroke: #0000FF;"/>
<circle cx="216.14" cy="526.93" r="2.70" style="stroke-width: 0.75;stroke: #0000FF;"/>
<circle cx="211.39" cy="515.30" r="2.70" style="stroke-width: 0.75;stroke: #0000FF;"/>
<circle cx="237.33" cy="569.46" r="2.70" style="stroke-width: 0.75;stroke: #0000FF;"/>
<circle cx="235.02" cy="572.44" r="2.70" style="stroke-width: 0.75;stroke: #0000FF;"/>
<circle cx="228.61" cy="571.64" r="2.70" style="stroke-width: 0.75;stroke: #0000FF;"/>
<circle cx="234.56" cy="604.70" r="2.70" style="stroke-width: 0.75;stroke: #0000FF;"/>
<circle cx="190.66" cy="510.77" r="2.70" style="stroke-width: 0.75;stroke: #0000FF;"/>
<circle cx="194.64" cy="586.16" r="2.70" style="stroke-width: 0.75;stroke: #0000FF;"/>
<circle cx="221.97" cy="585.62" r="2.70" style="stroke-width: 0.75;stroke: #0000FF;"/>
<circle cx="224.28" cy="596.66" r="2.70" style="stroke-width: 0.75;stroke: #0000FF;"/>
<circle cx="243.14" cy="608.48" r="2.70" style="stroke-width: 0.75;stroke: #0000FF;"/>
<circle cx="236.56" cy="547.37" r="2.70" style="stroke-width: 0.75;stroke: #0000FF;"/>
<circle cx="237.82" cy="586.11" r="2.70" style="stroke-width: 0.75;stroke: #0000FF;"/>
<circle cx="245.43" cy="578.49" r="2.70" style="stroke-width: 0.75;stroke: #0000FF;"/>
<circle cx="251.56" cy="582.19" r="2.70" style="stroke-width: 0.75;stroke: #0000FF;"/>
<circle cx="269.65" cy="597.07" r="2.70" style="stroke-width: 0.75;stroke: #0000FF;"/>
<circle cx="264.77" cy="594.32" r="2.70" style="stroke-width: 0.75;stroke: #0000FF;"/>
<circle cx="272.04" cy="612.31" r="2.70" style="stroke-width: 0.75;stroke: #0000FF;"/>
<circle cx="261.14" cy="575.00" r="2.70" style="stroke-width: 0.75;stroke: #0000FF;"/>
<circle cx="273.17" cy="555.12" r="2.70" style="stroke-width: 0.75;stroke: #0000FF;"/>
<circle cx="263.31" cy="509.44" r="2.70" style="stroke-width: 0.75;stroke: #0000FF;"/>
<circle cx="310.18" cy="599.47" r="2.70" style="stroke-width: 0.75;stroke: #0000FF;"/>
<circle cx="326.06" cy="624.20" r="2.70" style="stroke-width: 0.75;stroke: #0000FF;"/>
<circle cx="300.43" cy="562.44" r="2.70" style="stroke-width: 0.75;stroke: #0000FF;"/>
<circle cx="304.48" cy="509.99" r="2.70" style="stroke-width: 0.75;stroke: #0000FF;"/>
<circle cx="320.85" cy="599.63" r="2.70" style="stroke-width: 0.75;stroke: #0000FF;"/>
<circle cx="321.89" cy="571.67" r="2.70" style="stroke-width: 0.75;stroke: #0000FF;"/>
<circle cx="340.83" cy="533.60" r="2.70" style="stroke-width: 0.75;stroke: #0000FF;"/>
<circle cx="364.69" cy="624.63" r="2.70" style="stroke-width: 0.75;stroke: #0000FF;"/>
<circle cx="366.66" cy="572.17" r="2.70" style="stroke-width: 0.75;stroke: #0000FF;"/>
<circle cx="361.36" cy="549.68" r="2.70" style="stroke-width: 0.75;stroke: #0000FF;"/>
<circle cx="389.37" cy="625.38" r="2.70" style="stroke-width: 0.75;stroke: #0000FF;"/>
<circle cx="381.29" cy="567.21" r="2.70" style="stroke-width: 0.75;stroke: #0000FF;"/>
<circle cx="378.06" cy="546.94" r="2.70" style="stroke-width: 0.75;stroke: #0000FF;"/>
<circle cx="418.07" cy="621.33" r="2.70" style="stroke-width: 0.75;stroke: #0000FF;"/>
<circle cx="425.31" cy="590.23" r="2.70" style="stroke-width: 0.75;stroke: #0000FF;"/>
<circle cx="411.16" cy="593.12" r="2.70" style="stroke-width: 0.75;stroke: #0000FF;"/>
<circle cx="434.15" cy="584.96" r="2.70" style="stroke-width: 0.75;stroke: #0000FF;"/>
<circle cx="402.55" cy="513.44" r="2.70" style="stroke-width: 0.75;stroke: #0000FF;"/>
<circle cx="426.96" cy="570.97" r="2.70" style="stroke-width: 0.75;stroke: #0000FF;"/>
<circle cx="392.44" cy="438.67" r="2.70" style="stroke-width: 0.75;stroke: #0000FF;"/>
<circle cx="414.89" cy="604.76" r="2.70" style="stroke-width: 0.75;stroke: #0000FF;"/>
<circle cx="399.43" cy="599.57" r="2.70" style="stroke-width: 0.75;stroke: #0000FF;"/>
<circle cx="426.68" cy="558.40" r="2.70" style="stroke-width: 0.75;stroke: #0000FF;"/>
<circle cx="425.44" cy="548.63" r="2.70" style="stroke-width: 0.75;stroke: #0000FF;"/>
<circle cx="410.98" cy="537.78" r="2.70" style="stroke-width: 0.75;stroke: #0000FF;"/>
<circle cx="405.16" cy="586.42" r="2.70" style="stroke-width: 0.75;stroke: #0000FF;"/>
<circle cx="416.88" cy="625.79" r="2.70" style="stroke-width: 0.75;stroke: #0000FF;"/>
<circle cx="430.01" cy="578.15" r="2.70" style="stroke-width: 0.75;stroke: #0000FF;"/>
<circle cx="435.80" cy="582.81" r="2.70" style="stroke-width: 0.75;stroke: #0000FF;"/>
<circle cx="440.60" cy="571.77" r="2.70" style="stroke-width: 0.75;stroke: #0000FF;"/>
<circle cx="439.38" cy="570.54" r="2.70" style="stroke-width: 0.75;stroke: #0000FF;"/>
<circle cx="453.42" cy="549.63" r="2.70" style="stroke-width: 0.75;stroke: #0000FF;"/>
<circle cx="452.01" cy="543.06" r="2.70" style="stroke-width: 0.75;stroke: #0000FF;"/>
<circle cx="482.71" cy="611.56" r="2.70" style="stroke-width: 0.75;stroke: #0000FF;"/>
<circle cx="465.38" cy="531.01" r="2.70" style="stroke-width: 0.75;stroke: #0000FF;"/>
<circle cx="495.77" cy="588.92" r="2.70" style="stroke-width: 0.75;stroke: #0000FF;"/>
<circle cx="508.26" cy="560.57" r="2.70" style="stroke-width: 0.75;stroke: #0000FF;"/>
<circle cx="514.59" cy="586.80" r="2.70" style="stroke-width: 0.75;stroke: #0000FF;"/>
<circle cx="520.09" cy="578.65" r="2.70" style="stroke-width: 0.75;stroke: #0000FF;"/>
<circle cx="527.10" cy="575.41" r="2.70" style="stroke-width: 0.75;stroke: #0000FF;"/>
<circle cx="528.95" cy="578.66" r="2.70" style="stroke-width: 0.75;stroke: #0000FF;"/>
<circle cx="538.89" cy="563.14" r="2.70" style="stroke-width: 0.75;stroke: #0000FF;"/>
<circle cx="534.12" cy="542.02" r="2.70" style="stroke-width: 0.75;stroke: #0000FF;"/>
<circle cx="540.27" cy="532.88" r="2.70" style="stroke-width: 0.75;stroke: #0000FF;"/>
<circle cx="563.86" cy="492.09" r="2.70" style="stroke-width: 0.75;stroke: #0000FF;"/>
<circle cx="628.73" cy="559.68" r="2.70" style="stroke-width: 0.75;stroke: #0000FF;"/>
<circle cx="609.18" cy="576.72" r="2.70" style="stroke-width: 0.75;stroke: #0000FF;"/>
<circle cx="593.14" cy="591.39" r="2.70" style="stroke-width: 0.75;stroke: #0000FF;"/>
<circle cx="596.49" cy="583.26" r="2.70" style="stroke-width: 0.75;stroke: #0000FF;"/>
<circle cx="630.59" cy="643.44" r="2.70" style="stroke-width: 0.75;stroke: #0000FF;"/>
<circle cx="607.89" cy="566.89" r="2.70" style="stroke-width: 0.75;stroke: #0000FF;"/>
<circle cx="631.76" cy="555.18" r="2.70" style="stroke-width: 0.75;stroke: #0000FF;"/>
<circle cx="638.61" cy="506.22" r="2.70" style="stroke-width: 0.75;stroke: #0000FF;"/>
<circle cx="649.18" cy="537.38" r="2.70" style="stroke-width: 0.75;stroke: #0000FF;"/>
<circle cx="638.18" cy="651.27" r="2.70" style="stroke-width: 0.75;stroke: #0000FF;"/>
<circle cx="629.91" cy="584.35" r="2.70" style="stroke-width: 0.75;stroke: #0000FF;"/>
<circle cx="609.04" cy="549.44" r="2.70" style="stroke-width: 0.75;stroke: #0000FF;"/>
<circle cx="657.91" cy="638.33" r="2.70" style="stroke-width: 0.75;stroke: #0000FF;"/>
<circle cx="646.56" cy="570.94" r="2.70" style="stroke-width: 0.75;stroke: #0000FF;"/>
<circle cx="695.58" cy="627.57" r="2.70" style="stroke-width: 0.75;stroke: #0000FF;"/>
<circle cx="667.17" cy="495.99" r="2.70" style="stroke-width: 0.75;stroke: #0000FF;"/>
<circle cx="690.89" cy="578.51" r="2.70" style="stroke-width: 0.75;stroke: #0000FF;"/>
<circle cx="695.41" cy="528.80" r="2.70" style="stroke-width: 0.75;stroke: #0000FF;"/>
<circle cx="724.08" cy="532.84" r="2.70" style="stroke-width: 0.75;stroke: #0000FF;"/>
<circle cx="743.63" cy="535.10" r="2.70" style="stroke-width: 0.75;stroke: #0000FF;"/>
<circle cx="744.22" cy="525.21" r="2.70" style="stroke-width: 0.75;stroke: #0000FF;"/>
<circle cx="719.20" cy="651.87" r="2.70" style="stroke-width: 0.75;stroke: #0000FF;"/>
<circle cx="586.76" cy="535.47" r="2.70" style="stroke-width: 0.75;stroke: #0000FF;"/>
<circle cx="718.33" cy="535.36" r="2.70" style="stroke-width: 0.75;stroke: #0000FF;"/>
<circle cx="789.67" cy="606.51" r="2.70" style="stroke-width: 0.75;stroke: #0000FF;"/>
<circle cx="823.28" cy="527.77" r="2.70" style="stroke-width: 0.75;stroke: #0000FF;"/>
<circle cx="793.06" cy="548.46" r="2.70" style="stroke-width: 0.75;stroke: #0000FF;"/>
<circle cx="798.92" cy="625.64" r="2.70" style="stroke-width: 0.75;stroke: #0000FF;"/>
<circle cx="873.27" cy="573.27" r="2.70" style="stroke-width: 0.75;stroke: #0000FF;"/>
<circle cx="888.59" cy="525.16" r="2.70" style="stroke-width: 0.75;stroke: #0000FF;"/>
<circle cx="915.85" cy="632.40" r="2.70" style="stroke-width: 0.75;stroke: #0000FF;"/>
<circle cx="918.02" cy="553.83" r="2.70" style="stroke-width: 0.75;stroke: #0000FF;"/>
<circle cx="933.94" cy="472.71" r="2.70" style="stroke-width: 0.75;stroke: #0000FF;"/>
<circle cx="1016.36" cy="555.08" r="2.70" style="stroke-width: 0.75;stroke: #0000FF;"/>
<circle cx="1016.96" cy="534.13" r="2.70" style="stroke-width: 0.75;stroke: #0000FF;"/>
<circle cx="1038.19" cy="536.28" r="2.70" style="stroke-width: 0.75;stroke: #0000FF;"/>
<circle cx="1054.93" cy="570.00" r="2.70" style="stroke-width: 0.75;stroke: #0000FF;"/>
<circle cx="1156.36" cy="635.55" r="2.70" style="stroke-width: 0.75;stroke: #0000FF;"/>
<circle cx="1125.26" cy="599.55" r="2.70" style="stroke-width: 0.75;stroke: #0000FF;"/>
<circle cx="1125.39" cy="585.40" r="2.70" style="stroke-width: 0.75;stroke: #0000FF;"/>
<circle cx="1020.28" cy="566.81" r="2.70" style="stroke-width: 0.75;stroke: #0000FF;"/>
<circle cx="1013.48" cy="536.80" r="2.70" style="stroke-width: 0.75;stroke: #0000FF;"/>
<circle cx="930.08" cy="567.22" r="2.70" style="stroke-width: 0.75;stroke: #0000FF;"/>
<circle cx="1025.58" cy="569.09" r="2.70" style="stroke-width: 0.75;stroke: #0000FF;"/>
<circle cx="893.52" cy="604.96" r="2.70" style="stroke-width: 0.75;stroke: #0000FF;"/>
<circle cx="946.49" cy="517.23" r="2.70" style="stroke-width: 0.75;stroke: #0000FF;"/>
<circle cx="1003.33" cy="519.07" r="2.70" style="stroke-width: 0.75;stroke: #0000FF;"/>
<circle cx="963.57" cy="605.07" r="2.70" style="stroke-width: 0.75;stroke: #0000FF;"/>
</g><g clip-path="url(#c5)">
<line x1="215.28" y1="668.16" x2="1008.29" y2="668.16" style="stroke-width: 0.75;"/>
<line x1="215.28" y1="668.16" x2="215.28" y2="675.36" style="stroke-width: 0.75;"/>
<line x1="479.62" y1="668.16" x2="479.62" y2="675.36" style="stroke-width: 0.75;"/>
<line x1="743.95" y1="668.16" x2="743.95" y2="675.36" style="stroke-width: 0.75;"/>
<line x1="1008.29" y1="668.16" x2="1008.29" y2="675.36" style="stroke-width: 0.75;"/>
<g><text x="215.28" y="694.08" text-anchor="middle" style="font-family: Arimo;font-size: 12.00px;" textLength="22.92px" lengthAdjust="spacingAndGlyphs">100</text></g>
<g><text x="479.62" y="694.08" text-anchor="middle" style="font-family: Arimo;font-size: 12.00px;" textLength="22.92px" lengthAdjust="spacingAndGlyphs">200</text></g>
<g><text x="743.95" y="694.08" text-anchor="middle" style="font-family: Arimo;font-size: 12.00px;" textLength="22.92px" lengthAdjust="spacingAndGlyphs">300</text></g>
<g><text x="1008.29" y="694.08" text-anchor="middle" style="font-family: Arimo;font-size: 12.00px;" textLength="22.92px" lengthAdjust="spacingAndGlyphs">400</text></g>
<line x1="59.04" y1="657.99" x2="59.04" y2="442.92" style="stroke-width: 0.75;"/>
<line x1="59.04" y1="657.99" x2="51.84" y2="657.99" style="stroke-width: 0.75;"/>
<line x1="59.04" y1="614.98" x2="51.84" y2="614.98" style="stroke-width: 0.75;"/>
<line x1="59.04" y1="571.96" x2="51.84" y2="571.96" style="stroke-width: 0.75;"/>
<line x1="59.04" y1="528.95" x2="51.84" y2="528.95" style="stroke-width: 0.75;"/>
<line x1="59.04" y1="485.93" x2="51.84" y2="485.93" style="stroke-width: 0.75;"/>
<line x1="59.04" y1="442.92" x2="51.84" y2="442.92" style="stroke-width: 0.75;"/>
<g><text transform="translate(41.76,657.99) rotate(-90.00)" text-anchor="middle" style="font-family: Arimo;font-size: 12.00px;" textLength="19.61px" lengthAdjust="spacingAndGlyphs">-10</text></g>
<g><text transform="translate(41.76,614.98) rotate(-90.00)" text-anchor="middle" style="font-family: Arimo;font-size: 12.00px;" textLength="11.97px" lengthAdjust="spacingAndGlyphs">-5</text></g>
<g><text transform="translate(41.76,571.96) rotate(-90.00)" text-anchor="middle" style="font-family: Arimo;font-size: 12.00px;" textLength="7.64px" lengthAdjust="spacingAndGlyphs">0</text></g>
<g><text transform="translate(41.76,528.95) rotate(-90.00)" text-anchor="middle" style="font-family: Arimo;font-size: 12.00px;" textLength="7.64px" lengthAdjust="spacingAndGlyphs">5</text></g>
<g><text transform="translate(41.76,485.93) rotate(-90.00)" text-anchor="middle" style="font-family: Arimo;font-size: 12.00px;" textLength="15.28px" lengthAdjust="spacingAndGlyphs">10</text></g>
<g><text transform="translate(41.76,442.92) rotate(-90.00)" text-anchor="middle" style="font-family: Arimo;font-size: 12.00px;" textLength="15.28px" lengthAdjust="spacingAndGlyphs">15</text></g>
<polygon points="59.04,668.16 1198.56,668.16 1198.56,429.84 59.04,429.84" style="stroke-width: 0.75;" />
</g><g clip-path="url(#c6)">
<g><text x="628.80" y="396.93" text-anchor="middle" style="font-family: Arimo;font-size: 14.40px;font-weight: bold;" textLength="276.31px" lengthAdjust="spacingAndGlyphs">Assessment of Heteroskedasticity</text></g>
<g><text x="628.80" y="414.21" text-anchor="middle" style="font-family: Arimo;font-size: 14.40px;font-weight: bold;" textLength="150.70px" lengthAdjust="spacingAndGlyphs">Fitted vs residuals</text></g>
<g><text x="628.80" y="722.88" text-anchor="middle" style="font-family: Arimo;font-size: 12.00px;" textLength="76.83px" lengthAdjust="spacingAndGlyphs">Fitted Values</text></g>
<g><text transform="translate(12.96,549.00) rotate(-90.00)" text-anchor="middle" style="font-family: Arimo;font-size: 12.00px;" textLength="56.95px" lengthAdjust="spacingAndGlyphs">Residuals</text></g>
</g><g clip-path="url(#c7)">
<line x1="59.04" y1="571.96" x2="1198.56" y2="571.96" style="stroke-width: 0.75;"/>
</g>
</svg>