<svg xmlns="http://www.w3.org/2000/svg" xmlns:xlink="http://www.w3.org/1999/xlink" class="httpgd" width="912.00" height="712.00" viewBox="0 0 729.60 569.60">
<defs>
  <style type='text/css'><![CDATA[
    .httpgd line, .httpgd polyline, .httpgd polygon, .httpgd path, .httpgd rect, .httpgd circle {
      fill: none;
      stroke: #000000;
      stroke-linecap: round;
      stroke-linejoin: round;
      stroke-miterlimit: 10.00;
    }
  ]]></style>
<clipPath id="c0"><rect x="0.00" y="0.00" width="729.60" height="569.60"/></clipPath>
<clipPath id="c1"><rect x="59.04" y="59.04" width="640.32" height="152.32"/></clipPath>
<clipPath id="c2"><rect x="0.00" y="0.00" width="729.60" height="569.60"/></clipPath>
<clipPath id="c3"><rect x="0.00" y="0.00" width="729.60" height="284.80"/></clipPath>
<clipPath id="c4"><rect x="59.04" y="343.84" width="640.32" height="152.32"/></clipPath>
<clipPath id="c5"><rect x="0.00" y="0.00" width="729.60" height="569.60"/></clipPath>
<clipPath id="c6"><rect x="0.00" y="284.80" width="729.60" height="284.80"/></clipPath>
<clipPath id="c7"><rect x="59.04" y="343.84" width="640.32" height="152.32"/></clipPath>
</defs>
<rect width="100%" height="100%" style="stroke: none;fill: #FFFFFF;"/>
<g clip-path="url(#c0)">
</g><g clip-path="url(#c1)">
<circle cx="384.90" cy="138.20" r="2.70" style="stroke-width: 0.75;stroke: #0000FF;"/>
<circle cx="254.50" cy="166.27" r="2.70" style="stroke-width: 0.75;stroke: #0000FF;"/>
<circle cx="302.62" cy="155.89" r="2.70" style="stroke-width: 0.75;stroke: #0000FF;"/>
<circle cx="300.95" cy="156.57" r="2.70" style="stroke-width: 0.75;stroke: #0000FF;"/>
<circle cx="249.22" cy="167.24" r="2.70" style="stroke-width: 0.75;stroke: #0000FF;"/>
<circle cx="211.45" cy="172.86" r="2.70" style="stroke-width: 0.75;stroke: #0000FF;"/>
<circle cx="455.78" cy="119.73" r="2.70" style="stroke-width: 0.75;stroke: #0000FF;"/>
<circle cx="369.68" cy="140.68" r="2.70" style="stroke-width: 0.75;stroke: #0000FF;"/>
<circle cx="464.30" cy="117.81" r="2.70" style="stroke-width: 0.75;stroke: #0000FF;"/>
<circle cx="520.85" cy="108.17" r="2.70" style="stroke-width: 0.75;stroke: #0000FF;"/>
<circle cx="517.77" cy="108.90" r="2.70" style="stroke-width: 0.75;stroke: #0000FF;"/>
<circle cx="462.55" cy="117.91" r="2.70" style="stroke-width: 0.75;stroke: #0000FF;"/>
<circle cx="446.19" cy="122.33" r="2.70" style="stroke-width: 0.75;stroke: #0000FF;"/>
<circle cx="437.11" cy="126.05" r="2.70" style="stroke-width: 0.75;stroke: #0000FF;"/>
<circle cx="416.05" cy="129.42" r="2.70" style="stroke-width: 0.75;stroke: #0000FF;"/>
<circle cx="325.66" cy="151.70" r="2.70" style="stroke-width: 0.75;stroke: #0000FF;"/>
<circle cx="315.29" cy="153.55" r="2.70" style="stroke-width: 0.75;stroke: #0000FF;"/>
<circle cx="257.02" cy="165.54" r="2.70" style="stroke-width: 0.75;stroke: #0000FF;"/>
<circle cx="342.35" cy="146.65" r="2.70" style="stroke-width: 0.75;stroke: #0000FF;"/>
<circle cx="367.14" cy="140.75" r="2.70" style="stroke-width: 0.75;stroke: #0000FF;"/>
<circle cx="304.26" cy="155.74" r="2.70" style="stroke-width: 0.75;stroke: #0000FF;"/>
<circle cx="237.55" cy="169.25" r="2.70" style="stroke-width: 0.75;stroke: #0000FF;"/>
<circle cx="336.91" cy="147.71" r="2.70" style="stroke-width: 0.75;stroke: #0000FF;"/>
<circle cx="365.86" cy="140.84" r="2.70" style="stroke-width: 0.75;stroke: #0000FF;"/>
<circle cx="355.56" cy="142.63" r="2.70" style="stroke-width: 0.75;stroke: #0000FF;"/>
<circle cx="459.13" cy="118.26" r="2.70" style="stroke-width: 0.75;stroke: #0000FF;"/>
<circle cx="349.02" cy="145.60" r="2.70" style="stroke-width: 0.75;stroke: #0000FF;"/>
<circle cx="364.58" cy="141.02" r="2.70" style="stroke-width: 0.75;stroke: #0000FF;"/>
<circle cx="275.10" cy="162.77" r="2.70" style="stroke-width: 0.75;stroke: #0000FF;"/>
<circle cx="82.76" cy="205.72" r="2.70" style="stroke-width: 0.75;stroke: #0000FF;"/>
<circle cx="288.71" cy="160.56" r="2.70" style="stroke-width: 0.75;stroke: #0000FF;"/>
<circle cx="335.53" cy="148.66" r="2.70" style="stroke-width: 0.75;stroke: #0000FF;"/>
<circle cx="294.10" cy="158.05" r="2.70" style="stroke-width: 0.75;stroke: #0000FF;"/>
<circle cx="405.44" cy="134.15" r="2.70" style="stroke-width: 0.75;stroke: #0000FF;"/>
<circle cx="434.19" cy="127.22" r="2.70" style="stroke-width: 0.75;stroke: #0000FF;"/>
<circle cx="290.54" cy="160.11" r="2.70" style="stroke-width: 0.75;stroke: #0000FF;"/>
<circle cx="346.37" cy="145.88" r="2.70" style="stroke-width: 0.75;stroke: #0000FF;"/>
<circle cx="309.08" cy="154.79" r="2.70" style="stroke-width: 0.75;stroke: #0000FF;"/>
<circle cx="417.40" cy="129.36" r="2.70" style="stroke-width: 0.75;stroke: #0000FF;"/>
<circle cx="406.75" cy="134.00" r="2.70" style="stroke-width: 0.75;stroke: #0000FF;"/>
<circle cx="215.82" cy="171.58" r="2.70" style="stroke-width: 0.75;stroke: #0000FF;"/>
<circle cx="491.92" cy="113.15" r="2.70" style="stroke-width: 0.75;stroke: #0000FF;"/>
<circle cx="246.46" cy="167.75" r="2.70" style="stroke-width: 0.75;stroke: #0000FF;"/>
<circle cx="392.54" cy="136.66" r="2.70" style="stroke-width: 0.75;stroke: #0000FF;"/>
<circle cx="166.71" cy="184.44" r="2.70" style="stroke-width: 0.75;stroke: #0000FF;"/>
<circle cx="386.17" cy="137.92" r="2.70" style="stroke-width: 0.75;stroke: #0000FF;"/>
<circle cx="360.73" cy="141.48" r="2.70" style="stroke-width: 0.75;stroke: #0000FF;"/>
<circle cx="297.57" cy="157.35" r="2.70" style="stroke-width: 0.75;stroke: #0000FF;"/>
<circle cx="575.04" cy="97.77" r="2.70" style="stroke-width: 0.75;stroke: #0000FF;"/>
<circle cx="347.69" cy="145.76" r="2.70" style="stroke-width: 0.75;stroke: #0000FF;"/>
<circle cx="190.13" cy="179.88" r="2.70" style="stroke-width: 0.75;stroke: #0000FF;"/>
<circle cx="428.46" cy="128.75" r="2.70" style="stroke-width: 0.75;stroke: #0000FF;"/>
<circle cx="283.08" cy="161.55" r="2.70" style="stroke-width: 0.75;stroke: #0000FF;"/>
<circle cx="331.35" cy="149.90" r="2.70" style="stroke-width: 0.75;stroke: #0000FF;"/>
<circle cx="268.71" cy="163.41" r="2.70" style="stroke-width: 0.75;stroke: #0000FF;"/>
<circle cx="339.64" cy="147.06" r="2.70" style="stroke-width: 0.75;stroke: #0000FF;"/>
<circle cx="418.76" cy="129.31" r="2.70" style="stroke-width: 0.75;stroke: #0000FF;"/>
<circle cx="358.15" cy="142.47" r="2.70" style="stroke-width: 0.75;stroke: #0000FF;"/>
<circle cx="356.86" cy="142.53" r="2.70" style="stroke-width: 0.75;stroke: #0000FF;"/>
<circle cx="457.45" cy="119.03" r="2.70" style="stroke-width: 0.75;stroke: #0000FF;"/>
<circle cx="498.92" cy="111.75" r="2.70" style="stroke-width: 0.75;stroke: #0000FF;"/>
<circle cx="444.64" cy="122.74" r="2.70" style="stroke-width: 0.75;stroke: #0000FF;"/>
<circle cx="475.32" cy="115.04" r="2.70" style="stroke-width: 0.75;stroke: #0000FF;"/>
<circle cx="393.82" cy="136.60" r="2.70" style="stroke-width: 0.75;stroke: #0000FF;"/>
<circle cx="409.38" cy="132.24" r="2.70" style="stroke-width: 0.75;stroke: #0000FF;"/>
<circle cx="454.14" cy="120.20" r="2.70" style="stroke-width: 0.75;stroke: #0000FF;"/>
<circle cx="362.02" cy="141.23" r="2.70" style="stroke-width: 0.75;stroke: #0000FF;"/>
<circle cx="546.95" cy="101.15" r="2.70" style="stroke-width: 0.75;stroke: #0000FF;"/>
<circle cx="270.88" cy="163.24" r="2.70" style="stroke-width: 0.75;stroke: #0000FF;"/>
<circle cx="400.25" cy="134.84" r="2.70" style="stroke-width: 0.75;stroke: #0000FF;"/>
<circle cx="542.58" cy="101.29" r="2.70" style="stroke-width: 0.75;stroke: #0000FF;"/>
<circle cx="424.25" cy="128.88" r="2.70" style="stroke-width: 0.75;stroke: #0000FF;"/>
<circle cx="312.21" cy="154.57" r="2.70" style="stroke-width: 0.75;stroke: #0000FF;"/>
<circle cx="378.57" cy="139.20" r="2.70" style="stroke-width: 0.75;stroke: #0000FF;"/>
<circle cx="286.86" cy="160.68" r="2.70" style="stroke-width: 0.75;stroke: #0000FF;"/>
<circle cx="243.59" cy="168.03" r="2.70" style="stroke-width: 0.75;stroke: #0000FF;"/>
<circle cx="398.95" cy="135.41" r="2.70" style="stroke-width: 0.75;stroke: #0000FF;"/>
<circle cx="351.65" cy="143.30" r="2.70" style="stroke-width: 0.75;stroke: #0000FF;"/>
<circle cx="251.90" cy="166.88" r="2.70" style="stroke-width: 0.75;stroke: #0000FF;"/>
<circle cx="381.10" cy="138.70" r="2.70" style="stroke-width: 0.75;stroke: #0000FF;"/>
<circle cx="372.23" cy="140.04" r="2.70" style="stroke-width: 0.75;stroke: #0000FF;"/>
<circle cx="427.05" cy="128.83" r="2.70" style="stroke-width: 0.75;stroke: #0000FF;"/>
<circle cx="354.26" cy="142.74" r="2.70" style="stroke-width: 0.75;stroke: #0000FF;"/>
<circle cx="292.33" cy="159.54" r="2.70" style="stroke-width: 0.75;stroke: #0000FF;"/>
<circle cx="196.19" cy="177.74" r="2.70" style="stroke-width: 0.75;stroke: #0000FF;"/>
<circle cx="313.76" cy="154.32" r="2.70" style="stroke-width: 0.75;stroke: #0000FF;"/>
<circle cx="443.11" cy="123.78" r="2.70" style="stroke-width: 0.75;stroke: #0000FF;"/>
<circle cx="376.03" cy="139.45" r="2.70" style="stroke-width: 0.75;stroke: #0000FF;"/>
<circle cx="501.38" cy="111.70" r="2.70" style="stroke-width: 0.75;stroke: #0000FF;"/>
<circle cx="460.83" cy="117.92" r="2.70" style="stroke-width: 0.75;stroke: #0000FF;"/>
<circle cx="359.45" cy="142.13" r="2.70" style="stroke-width: 0.75;stroke: #0000FF;"/>
<circle cx="397.67" cy="135.46" r="2.70" style="stroke-width: 0.75;stroke: #0000FF;"/>
<circle cx="382.37" cy="138.24" r="2.70" style="stroke-width: 0.75;stroke: #0000FF;"/>
<circle cx="440.09" cy="125.05" r="2.70" style="stroke-width: 0.75;stroke: #0000FF;"/>
<circle cx="534.58" cy="103.04" r="2.70" style="stroke-width: 0.75;stroke: #0000FF;"/>
<circle cx="562.21" cy="99.03" r="2.70" style="stroke-width: 0.75;stroke: #0000FF;"/>
<circle cx="511.94" cy="109.25" r="2.70" style="stroke-width: 0.75;stroke: #0000FF;"/>
<circle cx="281.14" cy="161.66" r="2.70" style="stroke-width: 0.75;stroke: #0000FF;"/>
<circle cx="261.87" cy="164.28" r="2.70" style="stroke-width: 0.75;stroke: #0000FF;"/>
<circle cx="363.30" cy="141.16" r="2.70" style="stroke-width: 0.75;stroke: #0000FF;"/>
<circle cx="402.84" cy="134.69" r="2.70" style="stroke-width: 0.75;stroke: #0000FF;"/>
<circle cx="141.96" cy="203.35" r="2.70" style="stroke-width: 0.75;stroke: #0000FF;"/>
<circle cx="425.65" cy="128.87" r="2.70" style="stroke-width: 0.75;stroke: #0000FF;"/>
<circle cx="483.30" cy="113.80" r="2.70" style="stroke-width: 0.75;stroke: #0000FF;"/>
<circle cx="319.80" cy="152.99" r="2.70" style="stroke-width: 0.75;stroke: #0000FF;"/>
<circle cx="234.35" cy="169.28" r="2.70" style="stroke-width: 0.75;stroke: #0000FF;"/>
<circle cx="530.90" cy="103.82" r="2.70" style="stroke-width: 0.75;stroke: #0000FF;"/>
<circle cx="408.07" cy="133.65" r="2.70" style="stroke-width: 0.75;stroke: #0000FF;"/>
<circle cx="183.36" cy="181.82" r="2.70" style="stroke-width: 0.75;stroke: #0000FF;"/>
<circle cx="327.10" cy="150.89" r="2.70" style="stroke-width: 0.75;stroke: #0000FF;"/>
<circle cx="321.29" cy="152.87" r="2.70" style="stroke-width: 0.75;stroke: #0000FF;"/>
<circle cx="231.00" cy="169.31" r="2.70" style="stroke-width: 0.75;stroke: #0000FF;"/>
<circle cx="352.96" cy="143.04" r="2.70" style="stroke-width: 0.75;stroke: #0000FF;"/>
<circle cx="370.96" cy="140.11" r="2.70" style="stroke-width: 0.75;stroke: #0000FF;"/>
<circle cx="449.32" cy="120.82" r="2.70" style="stroke-width: 0.75;stroke: #0000FF;"/>
<circle cx="350.33" cy="144.59" r="2.70" style="stroke-width: 0.75;stroke: #0000FF;"/>
<circle cx="227.50" cy="169.81" r="2.70" style="stroke-width: 0.75;stroke: #0000FF;"/>
<circle cx="582.73" cy="90.51" r="2.70" style="stroke-width: 0.75;stroke: #0000FF;"/>
<circle cx="494.20" cy="112.55" r="2.70" style="stroke-width: 0.75;stroke: #0000FF;"/>
<circle cx="389.99" cy="136.99" r="2.70" style="stroke-width: 0.75;stroke: #0000FF;"/>
<circle cx="471.54" cy="115.34" r="2.70" style="stroke-width: 0.75;stroke: #0000FF;"/>
<circle cx="591.69" cy="87.59" r="2.70" style="stroke-width: 0.75;stroke: #0000FF;"/>
<circle cx="284.99" cy="160.76" r="2.70" style="stroke-width: 0.75;stroke: #0000FF;"/>
<circle cx="279.16" cy="162.30" r="2.70" style="stroke-width: 0.75;stroke: #0000FF;"/>
<circle cx="277.15" cy="162.39" r="2.70" style="stroke-width: 0.75;stroke: #0000FF;"/>
<circle cx="318.31" cy="153.34" r="2.70" style="stroke-width: 0.75;stroke: #0000FF;"/>
<circle cx="377.30" cy="139.26" r="2.70" style="stroke-width: 0.75;stroke: #0000FF;"/>
<circle cx="329.94" cy="150.05" r="2.70" style="stroke-width: 0.75;stroke: #0000FF;"/>
<circle cx="266.48" cy="163.53" r="2.70" style="stroke-width: 0.75;stroke: #0000FF;"/>
<circle cx="435.65" cy="126.43" r="2.70" style="stroke-width: 0.75;stroke: #0000FF;"/>
<circle cx="467.86" cy="116.32" r="2.70" style="stroke-width: 0.75;stroke: #0000FF;"/>
<circle cx="373.50" cy="139.87" r="2.70" style="stroke-width: 0.75;stroke: #0000FF;"/>
<circle cx="429.88" cy="128.60" r="2.70" style="stroke-width: 0.75;stroke: #0000FF;"/>
<circle cx="155.87" cy="198.68" r="2.70" style="stroke-width: 0.75;stroke: #0000FF;"/>
<circle cx="675.64" cy="64.68" r="2.70" style="stroke-width: 0.75;stroke: #0000FF;"/>
<circle cx="201.70" cy="176.20" r="2.70" style="stroke-width: 0.75;stroke: #0000FF;"/>
<circle cx="175.67" cy="182.35" r="2.70" style="stroke-width: 0.75;stroke: #0000FF;"/>
<circle cx="391.26" cy="136.95" r="2.70" style="stroke-width: 0.75;stroke: #0000FF;"/>
<circle cx="401.54" cy="134.80" r="2.70" style="stroke-width: 0.75;stroke: #0000FF;"/>
<circle cx="527.40" cy="104.15" r="2.70" style="stroke-width: 0.75;stroke: #0000FF;"/>
<circle cx="413.37" cy="131.39" r="2.70" style="stroke-width: 0.75;stroke: #0000FF;"/>
<circle cx="219.93" cy="171.51" r="2.70" style="stroke-width: 0.75;stroke: #0000FF;"/>
<circle cx="412.03" cy="131.58" r="2.70" style="stroke-width: 0.75;stroke: #0000FF;"/>
<circle cx="568.27" cy="98.96" r="2.70" style="stroke-width: 0.75;stroke: #0000FF;"/>
<circle cx="338.28" cy="147.21" r="2.70" style="stroke-width: 0.75;stroke: #0000FF;"/>
<circle cx="395.10" cy="135.81" r="2.70" style="stroke-width: 0.75;stroke: #0000FF;"/>
<circle cx="240.63" cy="168.43" r="2.70" style="stroke-width: 0.75;stroke: #0000FF;"/>
<circle cx="514.81" cy="109.12" r="2.70" style="stroke-width: 0.75;stroke: #0000FF;"/>
<circle cx="334.15" cy="149.42" r="2.70" style="stroke-width: 0.75;stroke: #0000FF;"/>
<circle cx="481.25" cy="114.29" r="2.70" style="stroke-width: 0.75;stroke: #0000FF;"/>
<circle cx="431.30" cy="128.01" r="2.70" style="stroke-width: 0.75;stroke: #0000FF;"/>
<circle cx="551.64" cy="100.58" r="2.70" style="stroke-width: 0.75;stroke: #0000FF;"/>
<circle cx="452.52" cy="120.48" r="2.70" style="stroke-width: 0.75;stroke: #0000FF;"/>
<circle cx="332.75" cy="149.56" r="2.70" style="stroke-width: 0.75;stroke: #0000FF;"/>
<circle cx="206.76" cy="175.91" r="2.70" style="stroke-width: 0.75;stroke: #0000FF;"/>
<circle cx="404.14" cy="134.41" r="2.70" style="stroke-width: 0.75;stroke: #0000FF;"/>
<circle cx="450.91" cy="120.64" r="2.70" style="stroke-width: 0.75;stroke: #0000FF;"/>
<circle cx="524.05" cy="105.95" r="2.70" style="stroke-width: 0.75;stroke: #0000FF;"/>
<circle cx="441.59" cy="124.72" r="2.70" style="stroke-width: 0.75;stroke: #0000FF;"/>
<circle cx="273.01" cy="163.22" r="2.70" style="stroke-width: 0.75;stroke: #0000FF;"/>
<circle cx="538.47" cy="102.27" r="2.70" style="stroke-width: 0.75;stroke: #0000FF;"/>
<circle cx="616.44" cy="79.98" r="2.70" style="stroke-width: 0.75;stroke: #0000FF;"/>
<circle cx="264.20" cy="164.02" r="2.70" style="stroke-width: 0.75;stroke: #0000FF;"/>
<circle cx="396.38" cy="135.75" r="2.70" style="stroke-width: 0.75;stroke: #0000FF;"/>
<circle cx="307.49" cy="154.97" r="2.70" style="stroke-width: 0.75;stroke: #0000FF;"/>
<circle cx="420.12" cy="129.30" r="2.70" style="stroke-width: 0.75;stroke: #0000FF;"/>
<circle cx="379.83" cy="139.05" r="2.70" style="stroke-width: 0.75;stroke: #0000FF;"/>
<circle cx="487.52" cy="113.47" r="2.70" style="stroke-width: 0.75;stroke: #0000FF;"/>
<circle cx="341.00" cy="146.96" r="2.70" style="stroke-width: 0.75;stroke: #0000FF;"/>
<circle cx="324.21" cy="151.86" r="2.70" style="stroke-width: 0.75;stroke: #0000FF;"/>
<circle cx="368.41" cy="140.74" r="2.70" style="stroke-width: 0.75;stroke: #0000FF;"/>
<circle cx="383.64" cy="138.23" r="2.70" style="stroke-width: 0.75;stroke: #0000FF;"/>
<circle cx="310.66" cy="154.64" r="2.70" style="stroke-width: 0.75;stroke: #0000FF;"/>
<circle cx="509.18" cy="109.56" r="2.70" style="stroke-width: 0.75;stroke: #0000FF;"/>
<circle cx="479.24" cy="114.68" r="2.70" style="stroke-width: 0.75;stroke: #0000FF;"/>
<circle cx="328.52" cy="150.72" r="2.70" style="stroke-width: 0.75;stroke: #0000FF;"/>
<circle cx="295.85" cy="157.49" r="2.70" style="stroke-width: 0.75;stroke: #0000FF;"/>
<circle cx="414.71" cy="129.66" r="2.70" style="stroke-width: 0.75;stroke: #0000FF;"/>
<circle cx="374.76" cy="139.73" r="2.70" style="stroke-width: 0.75;stroke: #0000FF;"/>
<circle cx="447.74" cy="121.37" r="2.70" style="stroke-width: 0.75;stroke: #0000FF;"/>
<circle cx="466.07" cy="116.87" r="2.70" style="stroke-width: 0.75;stroke: #0000FF;"/>
<circle cx="121.98" cy="205.35" r="2.70" style="stroke-width: 0.75;stroke: #0000FF;"/>
<circle cx="469.69" cy="115.98" r="2.70" style="stroke-width: 0.75;stroke: #0000FF;"/>
<circle cx="223.82" cy="170.53" r="2.70" style="stroke-width: 0.75;stroke: #0000FF;"/>
<circle cx="421.49" cy="129.07" r="2.70" style="stroke-width: 0.75;stroke: #0000FF;"/>
<circle cx="496.53" cy="111.91" r="2.70" style="stroke-width: 0.75;stroke: #0000FF;"/>
<circle cx="477.26" cy="115.02" r="2.70" style="stroke-width: 0.75;stroke: #0000FF;"/>
<circle cx="345.03" cy="145.98" r="2.70" style="stroke-width: 0.75;stroke: #0000FF;"/>
<circle cx="432.74" cy="127.88" r="2.70" style="stroke-width: 0.75;stroke: #0000FF;"/>
<circle cx="506.50" cy="109.57" r="2.70" style="stroke-width: 0.75;stroke: #0000FF;"/>
<circle cx="485.39" cy="113.80" r="2.70" style="stroke-width: 0.75;stroke: #0000FF;"/>
<circle cx="316.81" cy="153.41" r="2.70" style="stroke-width: 0.75;stroke: #0000FF;"/>
<circle cx="636.42" cy="78.90" r="2.70" style="stroke-width: 0.75;stroke: #0000FF;"/>
<circle cx="503.90" cy="111.34" r="2.70" style="stroke-width: 0.75;stroke: #0000FF;"/>
<circle cx="489.69" cy="113.35" r="2.70" style="stroke-width: 0.75;stroke: #0000FF;"/>
<circle cx="422.87" cy="129.02" r="2.70" style="stroke-width: 0.75;stroke: #0000FF;"/>
<circle cx="473.41" cy="115.11" r="2.70" style="stroke-width: 0.75;stroke: #0000FF;"/>
<circle cx="305.88" cy="155.11" r="2.70" style="stroke-width: 0.75;stroke: #0000FF;"/>
<circle cx="322.75" cy="152.84" r="2.70" style="stroke-width: 0.75;stroke: #0000FF;"/>
<circle cx="388.72" cy="137.11" r="2.70" style="stroke-width: 0.75;stroke: #0000FF;"/>
<circle cx="387.44" cy="137.91" r="2.70" style="stroke-width: 0.75;stroke: #0000FF;"/>
<circle cx="556.70" cy="99.51" r="2.70" style="stroke-width: 0.75;stroke: #0000FF;"/>
<circle cx="299.27" cy="157.34" r="2.70" style="stroke-width: 0.75;stroke: #0000FF;"/>
<circle cx="438.60" cy="125.77" r="2.70" style="stroke-width: 0.75;stroke: #0000FF;"/>
<circle cx="259.48" cy="164.58" r="2.70" style="stroke-width: 0.75;stroke: #0000FF;"/>
<circle cx="410.71" cy="131.90" r="2.70" style="stroke-width: 0.75;stroke: #0000FF;"/>
<circle cx="602.53" cy="84.83" r="2.70" style="stroke-width: 0.75;stroke: #0000FF;"/>
<circle cx="343.69" cy="146.18" r="2.70" style="stroke-width: 0.75;stroke: #0000FF;"/>
</g><g clip-path="url(#c2)">
<line x1="63.79" y1="211.36" x2="694.61" y2="211.36" style="stroke-width: 0.75;"/>
<line x1="63.79" y1="211.36" x2="63.79" y2="218.56" style="stroke-width: 0.75;"/>
<line x1="168.93" y1="211.36" x2="168.93" y2="218.56" style="stroke-width: 0.75;"/>
<line x1="274.06" y1="211.36" x2="274.06" y2="218.56" style="stroke-width: 0.75;"/>
<line x1="379.20" y1="211.36" x2="379.20" y2="218.56" style="stroke-width: 0.75;"/>
<line x1="484.34" y1="211.36" x2="484.34" y2="218.56" style="stroke-width: 0.75;"/>
<line x1="589.47" y1="211.36" x2="589.47" y2="218.56" style="stroke-width: 0.75;"/>
<line x1="694.61" y1="211.36" x2="694.61" y2="218.56" style="stroke-width: 0.75;"/>
<g><text x="63.79" y="237.28" text-anchor="middle" style="font-family: Arimo;font-size: 12.00px;" textLength="11.97px" lengthAdjust="spacingAndGlyphs">-3</text></g>
<g><text x="168.93" y="237.28" text-anchor="middle" style="font-family: Arimo;font-size: 12.00px;" textLength="11.97px" lengthAdjust="spacingAndGlyphs">-2</text></g>
<g><text x="274.06" y="237.28" text-anchor="middle" style="font-family: Arimo;font-size: 12.00px;" textLength="11.97px" lengthAdjust="spacingAndGlyphs">-1</text></g>
<g><text x="379.20" y="237.28" text-anchor="middle" style="font-family: Arimo;font-size: 12.00px;" textLength="7.64px" lengthAdjust="spacingAndGlyphs">0</text></g>
<g><text x="484.34" y="237.28" text-anchor="middle" style="font-family: Arimo;font-size: 12.00px;" textLength="7.64px" lengthAdjust="spacingAndGlyphs">1</text></g>
<g><text x="589.47" y="237.28" text-anchor="middle" style="font-family: Arimo;font-size: 12.00px;" textLength="7.64px" lengthAdjust="spacingAndGlyphs">2</text></g>
<g><text x="694.61" y="237.28" text-anchor="middle" style="font-family: Arimo;font-size: 12.00px;" textLength="7.64px" lengthAdjust="spacingAndGlyphs">3</text></g>
<line x1="59.04" y1="209.67" x2="59.04" y2="67.50" style="stroke-width: 0.75;"/>
<line x1="59.04" y1="209.67" x2="51.84" y2="209.67" style="stroke-width: 0.75;"/>
<line x1="59.04" y1="185.97" x2="51.84" y2="185.97" style="stroke-width: 0.75;"/>
<line x1="59.04" y1="162.28" x2="51.84" y2="162.28" style="stroke-width: 0.75;"/>
<line x1="59.04" y1="138.58" x2="51.84" y2="138.58" style="stroke-width: 0.75;"/>
<line x1="59.04" y1="114.89" x2="51.84" y2="114.89" style="stroke-width: 0.75;"/>
<line x1="59.04" y1="91.19" x2="51.84" y2="91.19" style="stroke-width: 0.75;"/>
<line x1="59.04" y1="67.50" x2="51.84" y2="67.50" style="stroke-width: 0.75;"/>
<g><text transform="translate(41.76,209.67) rotate(-90.00)" text-anchor="middle" style="font-family: Arimo;font-size: 12.00px;" textLength="19.61px" lengthAdjust="spacingAndGlyphs">-15</text></g>
<g><text transform="translate(41.76,162.28) rotate(-90.00)" text-anchor="middle" style="font-family: Arimo;font-size: 12.00px;" textLength="11.97px" lengthAdjust="spacingAndGlyphs">-5</text></g>
<g><text transform="translate(41.76,138.58) rotate(-90.00)" text-anchor="middle" style="font-family: Arimo;font-size: 12.00px;" textLength="7.64px" lengthAdjust="spacingAndGlyphs">0</text></g>
<g><text transform="translate(41.76,114.89) rotate(-90.00)" text-anchor="middle" style="font-family: Arimo;font-size: 12.00px;" textLength="7.64px" lengthAdjust="spacingAndGlyphs">5</text></g>
<g><text transform="translate(41.76,91.19) rotate(-90.00)" text-anchor="middle" style="font-family: Arimo;font-size: 12.00px;" textLength="15.28px" lengthAdjust="spacingAndGlyphs">10</text></g>
<polygon points="59.04,211.36 699.36,211.36 699.36,59.04 59.04,59.04" style="stroke-width: 0.75;" />
</g><g clip-path="url(#c3)">
<g><text x="379.20" y="26.13" text-anchor="middle" style="font-family: Arimo;font-size: 14.40px;font-weight: bold;" textLength="203.10px" lengthAdjust="spacingAndGlyphs">Assessment of Normality</text></g>
<g><text x="379.20" y="43.41" text-anchor="middle" style="font-family: Arimo;font-size: 14.40px;font-weight: bold;" textLength="475.98px" lengthAdjust="spacingAndGlyphs"> p-val for shapiro-wilk test of normality of residuals: 0.642</text></g>
<g><text x="379.20" y="251.68" text-anchor="middle" style="font-family: Arimo;font-size: 12.00px;" textLength="238.76px" lengthAdjust="spacingAndGlyphs">Normal Q-Q plot for in-sample residuals</text></g>
<g><text x="379.20" y="266.08" text-anchor="middle" style="font-family: Arimo;font-size: 12.00px;" textLength="137.28px" lengthAdjust="spacingAndGlyphs">(Theoretical Quantiles)</text></g>
<g><text transform="translate(12.96,135.20) rotate(-90.00)" text-anchor="middle" style="font-family: Arimo;font-size: 12.00px;" textLength="105.87px" lengthAdjust="spacingAndGlyphs">Sample Quantiles</text></g>
</g><g clip-path="url(#c4)">
<circle cx="134.77" cy="423.00" r="2.70" style="stroke-width: 0.75;stroke: #0000FF;"/>
<circle cx="130.74" cy="451.07" r="2.70" style="stroke-width: 0.75;stroke: #0000FF;"/>
<circle cx="120.31" cy="440.69" r="2.70" style="stroke-width: 0.75;stroke: #0000FF;"/>
<circle cx="130.69" cy="441.37" r="2.70" style="stroke-width: 0.75;stroke: #0000FF;"/>
<circle cx="133.35" cy="452.04" r="2.70" style="stroke-width: 0.75;stroke: #0000FF;"/>
<circle cx="131.81" cy="457.66" r="2.70" style="stroke-width: 0.75;stroke: #0000FF;"/>
<circle cx="107.02" cy="404.53" r="2.70" style="stroke-width: 0.75;stroke: #0000FF;"/>
<circle cx="104.00" cy="425.48" r="2.70" style="stroke-width: 0.75;stroke: #0000FF;"/>
<circle cx="106.74" cy="402.61" r="2.70" style="stroke-width: 0.75;stroke: #0000FF;"/>
<circle cx="103.95" cy="392.97" r="2.70" style="stroke-width: 0.75;stroke: #0000FF;"/>
<circle cx="103.45" cy="393.70" r="2.70" style="stroke-width: 0.75;stroke: #0000FF;"/>
<circle cx="104.27" cy="402.71" r="2.70" style="stroke-width: 0.75;stroke: #0000FF;"/>
<circle cx="109.02" cy="407.13" r="2.70" style="stroke-width: 0.75;stroke: #0000FF;"/>
<circle cx="103.86" cy="410.85" r="2.70" style="stroke-width: 0.75;stroke: #0000FF;"/>
<circle cx="104.28" cy="414.22" r="2.70" style="stroke-width: 0.75;stroke: #0000FF;"/>
<circle cx="95.54" cy="436.50" r="2.70" style="stroke-width: 0.75;stroke: #0000FF;"/>
<circle cx="96.75" cy="438.35" r="2.70" style="stroke-width: 0.75;stroke: #0000FF;"/>
<circle cx="90.49" cy="450.34" r="2.70" style="stroke-width: 0.75;stroke: #0000FF;"/>
<circle cx="91.69" cy="431.45" r="2.70" style="stroke-width: 0.75;stroke: #0000FF;"/>
<circle cx="95.34" cy="425.55" r="2.70" style="stroke-width: 0.75;stroke: #0000FF;"/>
<circle cx="91.32" cy="440.54" r="2.70" style="stroke-width: 0.75;stroke: #0000FF;"/>
<circle cx="95.42" cy="454.05" r="2.70" style="stroke-width: 0.75;stroke: #0000FF;"/>
<circle cx="96.28" cy="432.51" r="2.70" style="stroke-width: 0.75;stroke: #0000FF;"/>
<circle cx="99.25" cy="425.64" r="2.70" style="stroke-width: 0.75;stroke: #0000FF;"/>
<circle cx="100.50" cy="427.43" r="2.70" style="stroke-width: 0.75;stroke: #0000FF;"/>
<circle cx="94.98" cy="403.06" r="2.70" style="stroke-width: 0.75;stroke: #0000FF;"/>
<circle cx="105.70" cy="430.40" r="2.70" style="stroke-width: 0.75;stroke: #0000FF;"/>
<circle cx="102.73" cy="425.82" r="2.70" style="stroke-width: 0.75;stroke: #0000FF;"/>
<circle cx="115.47" cy="447.57" r="2.70" style="stroke-width: 0.75;stroke: #0000FF;"/>
<circle cx="130.20" cy="490.52" r="2.70" style="stroke-width: 0.75;stroke: #0000FF;"/>
<circle cx="125.31" cy="445.36" r="2.70" style="stroke-width: 0.75;stroke: #0000FF;"/>
<circle cx="119.58" cy="433.46" r="2.70" style="stroke-width: 0.75;stroke: #0000FF;"/>
<circle cx="120.73" cy="442.85" r="2.70" style="stroke-width: 0.75;stroke: #0000FF;"/>
<circle cx="115.16" cy="418.95" r="2.70" style="stroke-width: 0.75;stroke: #0000FF;"/>
<circle cx="114.70" cy="412.02" r="2.70" style="stroke-width: 0.75;stroke: #0000FF;"/>
<circle cx="121.68" cy="444.91" r="2.70" style="stroke-width: 0.75;stroke: #0000FF;"/>
<circle cx="117.47" cy="430.68" r="2.70" style="stroke-width: 0.75;stroke: #0000FF;"/>
<circle cx="120.95" cy="439.59" r="2.70" style="stroke-width: 0.75;stroke: #0000FF;"/>
<circle cx="114.92" cy="414.16" r="2.70" style="stroke-width: 0.75;stroke: #0000FF;"/>
<circle cx="124.75" cy="418.80" r="2.70" style="stroke-width: 0.75;stroke: #0000FF;"/>
<circle cx="136.95" cy="456.38" r="2.70" style="stroke-width: 0.75;stroke: #0000FF;"/>
<circle cx="115.71" cy="397.95" r="2.70" style="stroke-width: 0.75;stroke: #0000FF;"/>
<circle cx="131.09" cy="452.55" r="2.70" style="stroke-width: 0.75;stroke: #0000FF;"/>
<circle cx="125.22" cy="421.46" r="2.70" style="stroke-width: 0.75;stroke: #0000FF;"/>
<circle cx="139.98" cy="469.24" r="2.70" style="stroke-width: 0.75;stroke: #0000FF;"/>
<circle cx="130.64" cy="422.72" r="2.70" style="stroke-width: 0.75;stroke: #0000FF;"/>
<circle cx="130.53" cy="426.28" r="2.70" style="stroke-width: 0.75;stroke: #0000FF;"/>
<circle cx="136.03" cy="442.15" r="2.70" style="stroke-width: 0.75;stroke: #0000FF;"/>
<circle cx="120.31" cy="382.57" r="2.70" style="stroke-width: 0.75;stroke: #0000FF;"/>
<circle cx="134.49" cy="430.56" r="2.70" style="stroke-width: 0.75;stroke: #0000FF;"/>
<circle cx="149.15" cy="464.68" r="2.70" style="stroke-width: 0.75;stroke: #0000FF;"/>
<circle cx="135.52" cy="413.55" r="2.70" style="stroke-width: 0.75;stroke: #0000FF;"/>
<circle cx="144.90" cy="446.35" r="2.70" style="stroke-width: 0.75;stroke: #0000FF;"/>
<circle cx="144.23" cy="434.70" r="2.70" style="stroke-width: 0.75;stroke: #0000FF;"/>
<circle cx="156.86" cy="448.21" r="2.70" style="stroke-width: 0.75;stroke: #0000FF;"/>
<circle cx="155.85" cy="431.86" r="2.70" style="stroke-width: 0.75;stroke: #0000FF;"/>
<circle cx="153.42" cy="414.11" r="2.70" style="stroke-width: 0.75;stroke: #0000FF;"/>
<circle cx="154.50" cy="427.27" r="2.70" style="stroke-width: 0.75;stroke: #0000FF;"/>
<circle cx="155.69" cy="427.33" r="2.70" style="stroke-width: 0.75;stroke: #0000FF;"/>
<circle cx="155.77" cy="403.83" r="2.70" style="stroke-width: 0.75;stroke: #0000FF;"/>
<circle cx="158.97" cy="396.55" r="2.70" style="stroke-width: 0.75;stroke: #0000FF;"/>
<circle cx="159.28" cy="407.54" r="2.70" style="stroke-width: 0.75;stroke: #0000FF;"/>
<circle cx="152.38" cy="399.84" r="2.70" style="stroke-width: 0.75;stroke: #0000FF;"/>
<circle cx="161.24" cy="421.40" r="2.70" style="stroke-width: 0.75;stroke: #0000FF;"/>
<circle cx="165.34" cy="417.04" r="2.70" style="stroke-width: 0.75;stroke: #0000FF;"/>
<circle cx="164.63" cy="405.00" r="2.70" style="stroke-width: 0.75;stroke: #0000FF;"/>
<circle cx="164.65" cy="426.03" r="2.70" style="stroke-width: 0.75;stroke: #0000FF;"/>
<circle cx="149.30" cy="385.95" r="2.70" style="stroke-width: 0.75;stroke: #0000FF;"/>
<circle cx="159.94" cy="448.04" r="2.70" style="stroke-width: 0.75;stroke: #0000FF;"/>
<circle cx="144.99" cy="419.64" r="2.70" style="stroke-width: 0.75;stroke: #0000FF;"/>
<circle cx="142.14" cy="386.09" r="2.70" style="stroke-width: 0.75;stroke: #0000FF;"/>
<circle cx="153.18" cy="413.68" r="2.70" style="stroke-width: 0.75;stroke: #0000FF;"/>
<circle cx="147.49" cy="439.37" r="2.70" style="stroke-width: 0.75;stroke: #0000FF;"/>
<circle cx="109.08" cy="424.00" r="2.70" style="stroke-width: 0.75;stroke: #0000FF;"/>
<circle cx="108.26" cy="445.48" r="2.70" style="stroke-width: 0.75;stroke: #0000FF;"/>
<circle cx="110.75" cy="452.83" r="2.70" style="stroke-width: 0.75;stroke: #0000FF;"/>
<circle cx="82.76" cy="420.21" r="2.70" style="stroke-width: 0.75;stroke: #0000FF;"/>
<circle cx="91.60" cy="428.10" r="2.70" style="stroke-width: 0.75;stroke: #0000FF;"/>
<circle cx="108.72" cy="451.68" r="2.70" style="stroke-width: 0.75;stroke: #0000FF;"/>
<circle cx="105.68" cy="423.50" r="2.70" style="stroke-width: 0.75;stroke: #0000FF;"/>
<circle cx="118.12" cy="424.84" r="2.70" style="stroke-width: 0.75;stroke: #0000FF;"/>
<circle cx="118.19" cy="413.63" r="2.70" style="stroke-width: 0.75;stroke: #0000FF;"/>
<circle cx="120.81" cy="427.54" r="2.70" style="stroke-width: 0.75;stroke: #0000FF;"/>
<circle cx="135.22" cy="444.34" r="2.70" style="stroke-width: 0.75;stroke: #0000FF;"/>
<circle cx="136.95" cy="462.54" r="2.70" style="stroke-width: 0.75;stroke: #0000FF;"/>
<circle cx="133.45" cy="439.12" r="2.70" style="stroke-width: 0.75;stroke: #0000FF;"/>
<circle cx="133.77" cy="408.58" r="2.70" style="stroke-width: 0.75;stroke: #0000FF;"/>
<circle cx="120.51" cy="424.25" r="2.70" style="stroke-width: 0.75;stroke: #0000FF;"/>
<circle cx="120.60" cy="396.50" r="2.70" style="stroke-width: 0.75;stroke: #0000FF;"/>
<circle cx="127.09" cy="402.72" r="2.70" style="stroke-width: 0.75;stroke: #0000FF;"/>
<circle cx="140.58" cy="426.93" r="2.70" style="stroke-width: 0.75;stroke: #0000FF;"/>
<circle cx="138.48" cy="420.26" r="2.70" style="stroke-width: 0.75;stroke: #0000FF;"/>
<circle cx="147.92" cy="423.04" r="2.70" style="stroke-width: 0.75;stroke: #0000FF;"/>
<circle cx="148.01" cy="409.85" r="2.70" style="stroke-width: 0.75;stroke: #0000FF;"/>
<circle cx="146.36" cy="387.84" r="2.70" style="stroke-width: 0.75;stroke: #0000FF;"/>
<circle cx="144.43" cy="383.83" r="2.70" style="stroke-width: 0.75;stroke: #0000FF;"/>
<circle cx="152.91" cy="394.05" r="2.70" style="stroke-width: 0.75;stroke: #0000FF;"/>
<circle cx="167.62" cy="446.46" r="2.70" style="stroke-width: 0.75;stroke: #0000FF;"/>
<circle cx="164.96" cy="449.08" r="2.70" style="stroke-width: 0.75;stroke: #0000FF;"/>
<circle cx="155.29" cy="425.96" r="2.70" style="stroke-width: 0.75;stroke: #0000FF;"/>
<circle cx="144.74" cy="419.49" r="2.70" style="stroke-width: 0.75;stroke: #0000FF;"/>
<circle cx="155.55" cy="488.15" r="2.70" style="stroke-width: 0.75;stroke: #0000FF;"/>
<circle cx="147.61" cy="413.67" r="2.70" style="stroke-width: 0.75;stroke: #0000FF;"/>
<circle cx="142.24" cy="398.60" r="2.70" style="stroke-width: 0.75;stroke: #0000FF;"/>
<circle cx="163.22" cy="437.79" r="2.70" style="stroke-width: 0.75;stroke: #0000FF;"/>
<circle cx="175.25" cy="454.08" r="2.70" style="stroke-width: 0.75;stroke: #0000FF;"/>
<circle cx="148.58" cy="388.62" r="2.70" style="stroke-width: 0.75;stroke: #0000FF;"/>
<circle cx="163.62" cy="418.45" r="2.70" style="stroke-width: 0.75;stroke: #0000FF;"/>
<circle cx="181.64" cy="466.62" r="2.70" style="stroke-width: 0.75;stroke: #0000FF;"/>
<circle cx="179.53" cy="435.69" r="2.70" style="stroke-width: 0.75;stroke: #0000FF;"/>
<circle cx="177.87" cy="437.67" r="2.70" style="stroke-width: 0.75;stroke: #0000FF;"/>
<circle cx="184.05" cy="454.11" r="2.70" style="stroke-width: 0.75;stroke: #0000FF;"/>
<circle cx="176.08" cy="427.84" r="2.70" style="stroke-width: 0.75;stroke: #0000FF;"/>
<circle cx="185.41" cy="424.91" r="2.70" style="stroke-width: 0.75;stroke: #0000FF;"/>
<circle cx="181.69" cy="405.62" r="2.70" style="stroke-width: 0.75;stroke: #0000FF;"/>
<circle cx="200.04" cy="429.39" r="2.70" style="stroke-width: 0.75;stroke: #0000FF;"/>
<circle cx="212.69" cy="454.61" r="2.70" style="stroke-width: 0.75;stroke: #0000FF;"/>
<circle cx="183.90" cy="375.31" r="2.70" style="stroke-width: 0.75;stroke: #0000FF;"/>
<circle cx="202.27" cy="397.35" r="2.70" style="stroke-width: 0.75;stroke: #0000FF;"/>
<circle cx="203.66" cy="421.79" r="2.70" style="stroke-width: 0.75;stroke: #0000FF;"/>
<circle cx="202.27" cy="400.14" r="2.70" style="stroke-width: 0.75;stroke: #0000FF;"/>
<circle cx="210.84" cy="372.39" r="2.70" style="stroke-width: 0.75;stroke: #0000FF;"/>
<circle cx="231.60" cy="445.56" r="2.70" style="stroke-width: 0.75;stroke: #0000FF;"/>
<circle cx="242.32" cy="447.10" r="2.70" style="stroke-width: 0.75;stroke: #0000FF;"/>
<circle cx="243.26" cy="447.19" r="2.70" style="stroke-width: 0.75;stroke: #0000FF;"/>
<circle cx="243.09" cy="438.14" r="2.70" style="stroke-width: 0.75;stroke: #0000FF;"/>
<circle cx="244.19" cy="424.06" r="2.70" style="stroke-width: 0.75;stroke: #0000FF;"/>
<circle cx="249.28" cy="434.85" r="2.70" style="stroke-width: 0.75;stroke: #0000FF;"/>
<circle cx="263.24" cy="448.33" r="2.70" style="stroke-width: 0.75;stroke: #0000FF;"/>
<circle cx="261.04" cy="411.23" r="2.70" style="stroke-width: 0.75;stroke: #0000FF;"/>
<circle cx="249.34" cy="401.12" r="2.70" style="stroke-width: 0.75;stroke: #0000FF;"/>
<circle cx="271.19" cy="424.67" r="2.70" style="stroke-width: 0.75;stroke: #0000FF;"/>
<circle cx="262.19" cy="413.40" r="2.70" style="stroke-width: 0.75;stroke: #0000FF;"/>
<circle cx="288.11" cy="483.48" r="2.70" style="stroke-width: 0.75;stroke: #0000FF;"/>
<circle cx="249.30" cy="349.48" r="2.70" style="stroke-width: 0.75;stroke: #0000FF;"/>
<circle cx="268.32" cy="461.00" r="2.70" style="stroke-width: 0.75;stroke: #0000FF;"/>
<circle cx="262.41" cy="467.15" r="2.70" style="stroke-width: 0.75;stroke: #0000FF;"/>
<circle cx="270.66" cy="421.75" r="2.70" style="stroke-width: 0.75;stroke: #0000FF;"/>
<circle cx="270.97" cy="419.60" r="2.70" style="stroke-width: 0.75;stroke: #0000FF;"/>
<circle cx="255.01" cy="388.95" r="2.70" style="stroke-width: 0.75;stroke: #0000FF;"/>
<circle cx="251.86" cy="416.19" r="2.70" style="stroke-width: 0.75;stroke: #0000FF;"/>
<circle cx="264.31" cy="456.31" r="2.70" style="stroke-width: 0.75;stroke: #0000FF;"/>
<circle cx="267.42" cy="416.38" r="2.70" style="stroke-width: 0.75;stroke: #0000FF;"/>
<circle cx="259.59" cy="383.76" r="2.70" style="stroke-width: 0.75;stroke: #0000FF;"/>
<circle cx="279.44" cy="432.01" r="2.70" style="stroke-width: 0.75;stroke: #0000FF;"/>
<circle cx="275.37" cy="420.61" r="2.70" style="stroke-width: 0.75;stroke: #0000FF;"/>
<circle cx="297.23" cy="453.23" r="2.70" style="stroke-width: 0.75;stroke: #0000FF;"/>
<circle cx="278.87" cy="393.92" r="2.70" style="stroke-width: 0.75;stroke: #0000FF;"/>
<circle cx="297.04" cy="434.22" r="2.70" style="stroke-width: 0.75;stroke: #0000FF;"/>
<circle cx="290.16" cy="399.09" r="2.70" style="stroke-width: 0.75;stroke: #0000FF;"/>
<circle cx="301.61" cy="412.81" r="2.70" style="stroke-width: 0.75;stroke: #0000FF;"/>
<circle cx="304.94" cy="385.38" r="2.70" style="stroke-width: 0.75;stroke: #0000FF;"/>
<circle cx="310.24" cy="405.28" r="2.70" style="stroke-width: 0.75;stroke: #0000FF;"/>
<circle cx="323.95" cy="434.36" r="2.70" style="stroke-width: 0.75;stroke: #0000FF;"/>
<circle cx="336.78" cy="460.71" r="2.70" style="stroke-width: 0.75;stroke: #0000FF;"/>
<circle cx="324.18" cy="419.21" r="2.70" style="stroke-width: 0.75;stroke: #0000FF;"/>
<circle cx="328.15" cy="405.44" r="2.70" style="stroke-width: 0.75;stroke: #0000FF;"/>
<circle cx="324.49" cy="390.75" r="2.70" style="stroke-width: 0.75;stroke: #0000FF;"/>
<circle cx="335.47" cy="409.52" r="2.70" style="stroke-width: 0.75;stroke: #0000FF;"/>
<circle cx="368.05" cy="448.02" r="2.70" style="stroke-width: 0.75;stroke: #0000FF;"/>
<circle cx="373.76" cy="387.07" r="2.70" style="stroke-width: 0.75;stroke: #0000FF;"/>
<circle cx="352.72" cy="364.78" r="2.70" style="stroke-width: 0.75;stroke: #0000FF;"/>
<circle cx="367.60" cy="448.82" r="2.70" style="stroke-width: 0.75;stroke: #0000FF;"/>
<circle cx="362.00" cy="420.55" r="2.70" style="stroke-width: 0.75;stroke: #0000FF;"/>
<circle cx="376.89" cy="439.77" r="2.70" style="stroke-width: 0.75;stroke: #0000FF;"/>
<circle cx="369.25" cy="414.10" r="2.70" style="stroke-width: 0.75;stroke: #0000FF;"/>
<circle cx="387.86" cy="423.85" r="2.70" style="stroke-width: 0.75;stroke: #0000FF;"/>
<circle cx="392.17" cy="398.27" r="2.70" style="stroke-width: 0.75;stroke: #0000FF;"/>
<circle cx="403.30" cy="431.76" r="2.70" style="stroke-width: 0.75;stroke: #0000FF;"/>
<circle cx="378.84" cy="436.66" r="2.70" style="stroke-width: 0.75;stroke: #0000FF;"/>
<circle cx="382.28" cy="425.54" r="2.70" style="stroke-width: 0.75;stroke: #0000FF;"/>
<circle cx="375.75" cy="423.03" r="2.70" style="stroke-width: 0.75;stroke: #0000FF;"/>
<circle cx="393.12" cy="439.44" r="2.70" style="stroke-width: 0.75;stroke: #0000FF;"/>
<circle cx="384.19" cy="394.36" r="2.70" style="stroke-width: 0.75;stroke: #0000FF;"/>
<circle cx="403.69" cy="399.48" r="2.70" style="stroke-width: 0.75;stroke: #0000FF;"/>
<circle cx="421.85" cy="435.52" r="2.70" style="stroke-width: 0.75;stroke: #0000FF;"/>
<circle cx="423.06" cy="442.29" r="2.70" style="stroke-width: 0.75;stroke: #0000FF;"/>
<circle cx="425.48" cy="414.46" r="2.70" style="stroke-width: 0.75;stroke: #0000FF;"/>
<circle cx="444.17" cy="424.53" r="2.70" style="stroke-width: 0.75;stroke: #0000FF;"/>
<circle cx="449.04" cy="406.17" r="2.70" style="stroke-width: 0.75;stroke: #0000FF;"/>
<circle cx="449.67" cy="401.67" r="2.70" style="stroke-width: 0.75;stroke: #0000FF;"/>
<circle cx="441.43" cy="490.15" r="2.70" style="stroke-width: 0.75;stroke: #0000FF;"/>
<circle cx="358.56" cy="400.78" r="2.70" style="stroke-width: 0.75;stroke: #0000FF;"/>
<circle cx="450.19" cy="455.33" r="2.70" style="stroke-width: 0.75;stroke: #0000FF;"/>
<circle cx="465.10" cy="413.87" r="2.70" style="stroke-width: 0.75;stroke: #0000FF;"/>
<circle cx="492.38" cy="396.71" r="2.70" style="stroke-width: 0.75;stroke: #0000FF;"/>
<circle cx="472.67" cy="399.82" r="2.70" style="stroke-width: 0.75;stroke: #0000FF;"/>
<circle cx="472.34" cy="430.78" r="2.70" style="stroke-width: 0.75;stroke: #0000FF;"/>
<circle cx="517.78" cy="412.68" r="2.70" style="stroke-width: 0.75;stroke: #0000FF;"/>
<circle cx="529.02" cy="394.37" r="2.70" style="stroke-width: 0.75;stroke: #0000FF;"/>
<circle cx="527.14" cy="398.60" r="2.70" style="stroke-width: 0.75;stroke: #0000FF;"/>
<circle cx="554.52" cy="438.21" r="2.70" style="stroke-width: 0.75;stroke: #0000FF;"/>
<circle cx="554.11" cy="363.70" r="2.70" style="stroke-width: 0.75;stroke: #0000FF;"/>
<circle cx="596.65" cy="396.14" r="2.70" style="stroke-width: 0.75;stroke: #0000FF;"/>
<circle cx="601.26" cy="398.15" r="2.70" style="stroke-width: 0.75;stroke: #0000FF;"/>
<circle cx="617.84" cy="413.82" r="2.70" style="stroke-width: 0.75;stroke: #0000FF;"/>
<circle cx="617.05" cy="399.91" r="2.70" style="stroke-width: 0.75;stroke: #0000FF;"/>
<circle cx="675.64" cy="439.91" r="2.70" style="stroke-width: 0.75;stroke: #0000FF;"/>
<circle cx="663.60" cy="437.64" r="2.70" style="stroke-width: 0.75;stroke: #0000FF;"/>
<circle cx="661.17" cy="421.91" r="2.70" style="stroke-width: 0.75;stroke: #0000FF;"/>
<circle cx="605.21" cy="422.71" r="2.70" style="stroke-width: 0.75;stroke: #0000FF;"/>
<circle cx="594.46" cy="384.31" r="2.70" style="stroke-width: 0.75;stroke: #0000FF;"/>
<circle cx="560.25" cy="442.14" r="2.70" style="stroke-width: 0.75;stroke: #0000FF;"/>
<circle cx="603.98" cy="410.57" r="2.70" style="stroke-width: 0.75;stroke: #0000FF;"/>
<circle cx="535.30" cy="449.38" r="2.70" style="stroke-width: 0.75;stroke: #0000FF;"/>
<circle cx="570.19" cy="416.70" r="2.70" style="stroke-width: 0.75;stroke: #0000FF;"/>
<circle cx="587.17" cy="369.63" r="2.70" style="stroke-width: 0.75;stroke: #0000FF;"/>
<circle cx="569.10" cy="430.98" r="2.70" style="stroke-width: 0.75;stroke: #0000FF;"/>
</g><g clip-path="url(#c5)">
<line x1="149.26" y1="496.16" x2="597.74" y2="496.16" style="stroke-width: 0.75;"/>
<line x1="149.26" y1="496.16" x2="149.26" y2="503.36" style="stroke-width: 0.75;"/>
<line x1="298.75" y1="496.16" x2="298.75" y2="503.36" style="stroke-width: 0.75;"/>
<line x1="448.25" y1="496.16" x2="448.25" y2="503.36" style="stroke-width: 0.75;"/>
<line x1="597.74" y1="496.16" x2="597.74" y2="503.36" style="stroke-width: 0.75;"/>
<g><text x="149.26" y="522.08" text-anchor="middle" style="font-family: Arimo;font-size: 12.00px;" textLength="22.92px" lengthAdjust="spacingAndGlyphs">100</text></g>
<g><text x="298.75" y="522.08" text-anchor="middle" style="font-family: Arimo;font-size: 12.00px;" textLength="22.92px" lengthAdjust="spacingAndGlyphs">200</text></g>
<g><text x="448.25" y="522.08" text-anchor="middle" style="font-family: Arimo;font-size: 12.00px;" textLength="22.92px" lengthAdjust="spacingAndGlyphs">300</text></g>
<g><text x="597.74" y="522.08" text-anchor="middle" style="font-family: Arimo;font-size: 12.00px;" textLength="22.92px" lengthAdjust="spacingAndGlyphs">400</text></g>
<line x1="59.04" y1="494.47" x2="59.04" y2="352.30" style="stroke-width: 0.75;"/>
<line x1="59.04" y1="494.47" x2="51.84" y2="494.47" style="stroke-width: 0.75;"/>
<line x1="59.04" y1="470.77" x2="51.84" y2="470.77" style="stroke-width: 0.75;"/>
<line x1="59.04" y1="447.08" x2="51.84" y2="447.08" style="stroke-width: 0.75;"/>
<line x1="59.04" y1="423.38" x2="51.84" y2="423.38" style="stroke-width: 0.75;"/>
<line x1="59.04" y1="399.69" x2="51.84" y2="399.69" style="stroke-width: 0.75;"/>
<line x1="59.04" y1="375.99" x2="51.84" y2="375.99" style="stroke-width: 0.75;"/>
<line x1="59.04" y1="352.30" x2="51.84" y2="352.30" style="stroke-width: 0.75;"/>
<g><text transform="translate(41.76,494.47) rotate(-90.00)" text-anchor="middle" style="font-family: Arimo;font-size: 12.00px;" textLength="19.61px" lengthAdjust="spacingAndGlyphs">-15</text></g>
<g><text transform="translate(41.76,447.08) rotate(-90.00)" text-anchor="middle" style="font-family: Arimo;font-size: 12.00px;" textLength="11.97px" lengthAdjust="spacingAndGlyphs">-5</text></g>
<g><text transform="translate(41.76,423.38) rotate(-90.00)" text-anchor="middle" style="font-family: Arimo;font-size: 12.00px;" textLength="7.64px" lengthAdjust="spacingAndGlyphs">0</text></g>
<g><text transform="translate(41.76,399.69) rotate(-90.00)" text-anchor="middle" style="font-family: Arimo;font-size: 12.00px;" textLength="7.64px" lengthAdjust="spacingAndGlyphs">5</text></g>
<g><text transform="translate(41.76,375.99) rotate(-90.00)" text-anchor="middle" style="font-family: Arimo;font-size: 12.00px;" textLength="15.28px" lengthAdjust="spacingAndGlyphs">10</text></g>
<polygon points="59.04,496.16 699.36,496.16 699.36,343.84 59.04,343.84" style="stroke-width: 0.75;" />
</g><g clip-path="url(#c6)">
<g><text x="379.20" y="310.93" text-anchor="middle" style="font-family: Arimo;font-size: 14.40px;font-weight: bold;" textLength="276.31px" lengthAdjust="spacingAndGlyphs">Assessment of Heteroskedasticity</text></g>
<g><text x="379.20" y="328.21" text-anchor="middle" style="font-family: Arimo;font-size: 14.40px;font-weight: bold;" textLength="150.70px" lengthAdjust="spacingAndGlyphs">Fitted vs residuals</text></g>
<g><text x="379.20" y="550.88" text-anchor="middle" style="font-family: Arimo;font-size: 12.00px;" textLength="76.83px" lengthAdjust="spacingAndGlyphs">Fitted Values</text></g>
<g><text transform="translate(12.96,420.00) rotate(-90.00)" text-anchor="middle" style="font-family: Arimo;font-size: 12.00px;" textLength="56.95px" lengthAdjust="spacingAndGlyphs">Residuals</text></g>
</g><g clip-path="url(#c7)">
<line x1="59.04" y1="423.38" x2="699.36" y2="423.38" style="stroke-width: 0.75;"/>
</g>
</svg>