<svg xmlns="http://www.w3.org/2000/svg" xmlns:xlink="http://www.w3.org/1999/xlink" class="httpgd" width="906.00" height="698.00" viewBox="0 0 724.80 558.40">
<defs>
  <style type='text/css'><![CDATA[
    .httpgd line, .httpgd polyline, .httpgd polygon, .httpgd path, .httpgd rect, .httpgd circle {
      fill: none;
      stroke: #000000;
      stroke-linecap: round;
      stroke-linejoin: round;
      stroke-miterlimit: 10.00;
    }
  ]]></style>
<clipPath id="c0"><rect x="0.00" y="0.00" width="724.80" height="558.40"/></clipPath>
<clipPath id="c1"><rect x="59.04" y="59.04" width="635.52" height="146.72"/></clipPath>
<clipPath id="c2"><rect x="0.00" y="0.00" width="724.80" height="558.40"/></clipPath>
<clipPath id="c3"><rect x="0.00" y="0.00" width="724.80" height="279.20"/></clipPath>
<clipPath id="c4"><rect x="59.04" y="338.24" width="635.52" height="146.72"/></clipPath>
<clipPath id="c5"><rect x="0.00" y="0.00" width="724.80" height="558.40"/></clipPath>
<clipPath id="c6"><rect x="0.00" y="279.20" width="724.80" height="279.20"/></clipPath>
<clipPath id="c7"><rect x="59.04" y="338.24" width="635.52" height="146.72"/></clipPath>
</defs>
<rect width="100%" height="100%" style="stroke: none;fill: #FFFFFF;"/>
<g clip-path="url(#c0)">
</g><g clip-path="url(#c1)">
<circle cx="362.29" cy="149.42" r="2.70" style="stroke-width: 0.75;stroke: #0000FF;"/>
<circle cx="195.16" cy="182.09" r="2.70" style="stroke-width: 0.75;stroke: #0000FF;"/>
<circle cx="267.13" cy="167.90" r="2.70" style="stroke-width: 0.75;stroke: #0000FF;"/>
<circle cx="437.23" cy="136.42" r="2.70" style="stroke-width: 0.75;stroke: #0000FF;"/>
<circle cx="368.62" cy="147.70" r="2.70" style="stroke-width: 0.75;stroke: #0000FF;"/>
<circle cx="273.48" cy="167.38" r="2.70" style="stroke-width: 0.75;stroke: #0000FF;"/>
<circle cx="406.76" cy="143.44" r="2.70" style="stroke-width: 0.75;stroke: #0000FF;"/>
<circle cx="435.75" cy="137.79" r="2.70" style="stroke-width: 0.75;stroke: #0000FF;"/>
<circle cx="552.97" cy="109.00" r="2.70" style="stroke-width: 0.75;stroke: #0000FF;"/>
<circle cx="587.70" cy="105.75" r="2.70" style="stroke-width: 0.75;stroke: #0000FF;"/>
<circle cx="464.80" cy="128.11" r="2.70" style="stroke-width: 0.75;stroke: #0000FF;"/>
<circle cx="488.68" cy="123.14" r="2.70" style="stroke-width: 0.75;stroke: #0000FF;"/>
<circle cx="429.94" cy="138.50" r="2.70" style="stroke-width: 0.75;stroke: #0000FF;"/>
<circle cx="391.31" cy="145.54" r="2.70" style="stroke-width: 0.75;stroke: #0000FF;"/>
<circle cx="345.53" cy="151.09" r="2.70" style="stroke-width: 0.75;stroke: #0000FF;"/>
<circle cx="323.66" cy="156.03" r="2.70" style="stroke-width: 0.75;stroke: #0000FF;"/>
<circle cx="413.37" cy="141.52" r="2.70" style="stroke-width: 0.75;stroke: #0000FF;"/>
<circle cx="229.71" cy="178.61" r="2.70" style="stroke-width: 0.75;stroke: #0000FF;"/>
<circle cx="295.78" cy="162.44" r="2.70" style="stroke-width: 0.75;stroke: #0000FF;"/>
<circle cx="382.46" cy="146.23" r="2.70" style="stroke-width: 0.75;stroke: #0000FF;"/>
<circle cx="313.37" cy="158.44" r="2.70" style="stroke-width: 0.75;stroke: #0000FF;"/>
<circle cx="300.79" cy="161.08" r="2.70" style="stroke-width: 0.75;stroke: #0000FF;"/>
<circle cx="275.52" cy="167.31" r="2.70" style="stroke-width: 0.75;stroke: #0000FF;"/>
<circle cx="418.77" cy="140.51" r="2.70" style="stroke-width: 0.75;stroke: #0000FF;"/>
<circle cx="414.71" cy="141.49" r="2.70" style="stroke-width: 0.75;stroke: #0000FF;"/>
<circle cx="402.85" cy="143.83" r="2.70" style="stroke-width: 0.75;stroke: #0000FF;"/>
<circle cx="427.10" cy="138.90" r="2.70" style="stroke-width: 0.75;stroke: #0000FF;"/>
<circle cx="412.04" cy="142.20" r="2.70" style="stroke-width: 0.75;stroke: #0000FF;"/>
<circle cx="353.34" cy="150.22" r="2.70" style="stroke-width: 0.75;stroke: #0000FF;"/>
<circle cx="205.65" cy="180.29" r="2.70" style="stroke-width: 0.75;stroke: #0000FF;"/>
<circle cx="320.78" cy="156.57" r="2.70" style="stroke-width: 0.75;stroke: #0000FF;"/>
<circle cx="307.21" cy="159.70" r="2.70" style="stroke-width: 0.75;stroke: #0000FF;"/>
<circle cx="262.66" cy="169.66" r="2.70" style="stroke-width: 0.75;stroke: #0000FF;"/>
<circle cx="397.69" cy="144.94" r="2.70" style="stroke-width: 0.75;stroke: #0000FF;"/>
<circle cx="359.75" cy="149.57" r="2.70" style="stroke-width: 0.75;stroke: #0000FF;"/>
<circle cx="357.19" cy="149.87" r="2.70" style="stroke-width: 0.75;stroke: #0000FF;"/>
<circle cx="342.89" cy="151.45" r="2.70" style="stroke-width: 0.75;stroke: #0000FF;"/>
<circle cx="302.42" cy="160.60" r="2.70" style="stroke-width: 0.75;stroke: #0000FF;"/>
<circle cx="392.58" cy="145.52" r="2.70" style="stroke-width: 0.75;stroke: #0000FF;"/>
<circle cx="314.88" cy="157.91" r="2.70" style="stroke-width: 0.75;stroke: #0000FF;"/>
<circle cx="317.85" cy="157.56" r="2.70" style="stroke-width: 0.75;stroke: #0000FF;"/>
<circle cx="517.39" cy="116.91" r="2.70" style="stroke-width: 0.75;stroke: #0000FF;"/>
<circle cx="400.26" cy="144.24" r="2.70" style="stroke-width: 0.75;stroke: #0000FF;"/>
<circle cx="367.36" cy="148.13" r="2.70" style="stroke-width: 0.75;stroke: #0000FF;"/>
<circle cx="239.27" cy="175.23" r="2.70" style="stroke-width: 0.75;stroke: #0000FF;"/>
<circle cx="387.51" cy="145.69" r="2.70" style="stroke-width: 0.75;stroke: #0000FF;"/>
<circle cx="344.21" cy="151.09" r="2.70" style="stroke-width: 0.75;stroke: #0000FF;"/>
<circle cx="364.83" cy="148.47" r="2.70" style="stroke-width: 0.75;stroke: #0000FF;"/>
<circle cx="432.82" cy="138.22" r="2.70" style="stroke-width: 0.75;stroke: #0000FF;"/>
<circle cx="376.17" cy="146.78" r="2.70" style="stroke-width: 0.75;stroke: #0000FF;"/>
<circle cx="155.15" cy="192.60" r="2.70" style="stroke-width: 0.75;stroke: #0000FF;"/>
<circle cx="500.57" cy="120.45" r="2.70" style="stroke-width: 0.75;stroke: #0000FF;"/>
<circle cx="271.41" cy="167.65" r="2.70" style="stroke-width: 0.75;stroke: #0000FF;"/>
<circle cx="520.57" cy="116.24" r="2.70" style="stroke-width: 0.75;stroke: #0000FF;"/>
<circle cx="305.63" cy="160.26" r="2.70" style="stroke-width: 0.75;stroke: #0000FF;"/>
<circle cx="424.29" cy="139.50" r="2.70" style="stroke-width: 0.75;stroke: #0000FF;"/>
<circle cx="431.38" cy="138.28" r="2.70" style="stroke-width: 0.75;stroke: #0000FF;"/>
<circle cx="372.40" cy="147.17" r="2.70" style="stroke-width: 0.75;stroke: #0000FF;"/>
<circle cx="420.14" cy="140.41" r="2.70" style="stroke-width: 0.75;stroke: #0000FF;"/>
<circle cx="337.54" cy="153.82" r="2.70" style="stroke-width: 0.75;stroke: #0000FF;"/>
<circle cx="428.51" cy="138.61" r="2.70" style="stroke-width: 0.75;stroke: #0000FF;"/>
<circle cx="250.45" cy="172.29" r="2.70" style="stroke-width: 0.75;stroke: #0000FF;"/>
<circle cx="311.85" cy="158.49" r="2.70" style="stroke-width: 0.75;stroke: #0000FF;"/>
<circle cx="410.71" cy="142.55" r="2.70" style="stroke-width: 0.75;stroke: #0000FF;"/>
<circle cx="322.22" cy="156.21" r="2.70" style="stroke-width: 0.75;stroke: #0000FF;"/>
<circle cx="444.83" cy="134.68" r="2.70" style="stroke-width: 0.75;stroke: #0000FF;"/>
<circle cx="523.89" cy="114.02" r="2.70" style="stroke-width: 0.75;stroke: #0000FF;"/>
<circle cx="538.95" cy="112.40" r="2.70" style="stroke-width: 0.75;stroke: #0000FF;"/>
<circle cx="285.16" cy="166.58" r="2.70" style="stroke-width: 0.75;stroke: #0000FF;"/>
<circle cx="456.13" cy="131.46" r="2.70" style="stroke-width: 0.75;stroke: #0000FF;"/>
<circle cx="253.03" cy="172.14" r="2.70" style="stroke-width: 0.75;stroke: #0000FF;"/>
<circle cx="393.85" cy="145.42" r="2.70" style="stroke-width: 0.75;stroke: #0000FF;"/>
<circle cx="245.05" cy="174.01" r="2.70" style="stroke-width: 0.75;stroke: #0000FF;"/>
<circle cx="531.02" cy="113.96" r="2.70" style="stroke-width: 0.75;stroke: #0000FF;"/>
<circle cx="233.03" cy="177.09" r="2.70" style="stroke-width: 0.75;stroke: #0000FF;"/>
<circle cx="260.35" cy="169.84" r="2.70" style="stroke-width: 0.75;stroke: #0000FF;"/>
<circle cx="354.63" cy="150.13" r="2.70" style="stroke-width: 0.75;stroke: #0000FF;"/>
<circle cx="390.04" cy="145.64" r="2.70" style="stroke-width: 0.75;stroke: #0000FF;"/>
<circle cx="247.80" cy="173.04" r="2.70" style="stroke-width: 0.75;stroke: #0000FF;"/>
<circle cx="330.70" cy="155.22" r="2.70" style="stroke-width: 0.75;stroke: #0000FF;"/>
<circle cx="446.39" cy="133.22" r="2.70" style="stroke-width: 0.75;stroke: #0000FF;"/>
<circle cx="286.99" cy="164.03" r="2.70" style="stroke-width: 0.75;stroke: #0000FF;"/>
<circle cx="242.21" cy="174.39" r="2.70" style="stroke-width: 0.75;stroke: #0000FF;"/>
<circle cx="355.91" cy="149.97" r="2.70" style="stroke-width: 0.75;stroke: #0000FF;"/>
<circle cx="82.58" cy="200.33" r="2.70" style="stroke-width: 0.75;stroke: #0000FF;"/>
<circle cx="358.47" cy="149.58" r="2.70" style="stroke-width: 0.75;stroke: #0000FF;"/>
<circle cx="401.55" cy="144.17" r="2.70" style="stroke-width: 0.75;stroke: #0000FF;"/>
<circle cx="374.91" cy="146.80" r="2.70" style="stroke-width: 0.75;stroke: #0000FF;"/>
<circle cx="421.52" cy="139.98" r="2.70" style="stroke-width: 0.75;stroke: #0000FF;"/>
<circle cx="468.44" cy="127.68" r="2.70" style="stroke-width: 0.75;stroke: #0000FF;"/>
<circle cx="386.24" cy="145.73" r="2.70" style="stroke-width: 0.75;stroke: #0000FF;"/>
<circle cx="463.02" cy="128.24" r="2.70" style="stroke-width: 0.75;stroke: #0000FF;"/>
<circle cx="369.88" cy="147.59" r="2.70" style="stroke-width: 0.75;stroke: #0000FF;"/>
<circle cx="478.08" cy="124.13" r="2.70" style="stroke-width: 0.75;stroke: #0000FF;"/>
<circle cx="508.55" cy="118.81" r="2.70" style="stroke-width: 0.75;stroke: #0000FF;"/>
<circle cx="543.30" cy="111.65" r="2.70" style="stroke-width: 0.75;stroke: #0000FF;"/>
<circle cx="396.41" cy="145.00" r="2.70" style="stroke-width: 0.75;stroke: #0000FF;"/>
<circle cx="373.66" cy="146.83" r="2.70" style="stroke-width: 0.75;stroke: #0000FF;"/>
<circle cx="381.20" cy="146.34" r="2.70" style="stroke-width: 0.75;stroke: #0000FF;"/>
<circle cx="283.29" cy="166.69" r="2.70" style="stroke-width: 0.75;stroke: #0000FF;"/>
<circle cx="558.44" cy="108.86" r="2.70" style="stroke-width: 0.75;stroke: #0000FF;"/>
<circle cx="327.91" cy="155.28" r="2.70" style="stroke-width: 0.75;stroke: #0000FF;"/>
<circle cx="332.08" cy="154.94" r="2.70" style="stroke-width: 0.75;stroke: #0000FF;"/>
<circle cx="299.14" cy="161.74" r="2.70" style="stroke-width: 0.75;stroke: #0000FF;"/>
<circle cx="264.92" cy="169.02" r="2.70" style="stroke-width: 0.75;stroke: #0000FF;"/>
<circle cx="457.82" cy="131.40" r="2.70" style="stroke-width: 0.75;stroke: #0000FF;"/>
<circle cx="329.31" cy="155.24" r="2.70" style="stroke-width: 0.75;stroke: #0000FF;"/>
<circle cx="350.75" cy="150.56" r="2.70" style="stroke-width: 0.75;stroke: #0000FF;"/>
<circle cx="341.56" cy="152.83" r="2.70" style="stroke-width: 0.75;stroke: #0000FF;"/>
<circle cx="297.47" cy="162.00" r="2.70" style="stroke-width: 0.75;stroke: #0000FF;"/>
<circle cx="304.03" cy="160.30" r="2.70" style="stroke-width: 0.75;stroke: #0000FF;"/>
<circle cx="255.54" cy="171.37" r="2.70" style="stroke-width: 0.75;stroke: #0000FF;"/>
<circle cx="366.09" cy="148.40" r="2.70" style="stroke-width: 0.75;stroke: #0000FF;"/>
<circle cx="440.23" cy="136.17" r="2.70" style="stroke-width: 0.75;stroke: #0000FF;"/>
<circle cx="571.17" cy="108.04" r="2.70" style="stroke-width: 0.75;stroke: #0000FF;"/>
<circle cx="294.07" cy="163.47" r="2.70" style="stroke-width: 0.75;stroke: #0000FF;"/>
<circle cx="226.23" cy="178.69" r="2.70" style="stroke-width: 0.75;stroke: #0000FF;"/>
<circle cx="417.41" cy="140.67" r="2.70" style="stroke-width: 0.75;stroke: #0000FF;"/>
<circle cx="564.46" cy="108.38" r="2.70" style="stroke-width: 0.75;stroke: #0000FF;"/>
<circle cx="288.80" cy="163.57" r="2.70" style="stroke-width: 0.75;stroke: #0000FF;"/>
<circle cx="379.94" cy="146.36" r="2.70" style="stroke-width: 0.75;stroke: #0000FF;"/>
<circle cx="490.94" cy="122.92" r="2.70" style="stroke-width: 0.75;stroke: #0000FF;"/>
<circle cx="222.58" cy="178.96" r="2.70" style="stroke-width: 0.75;stroke: #0000FF;"/>
<circle cx="377.43" cy="146.66" r="2.70" style="stroke-width: 0.75;stroke: #0000FF;"/>
<circle cx="447.97" cy="132.82" r="2.70" style="stroke-width: 0.75;stroke: #0000FF;"/>
<circle cx="218.73" cy="179.43" r="2.70" style="stroke-width: 0.75;stroke: #0000FF;"/>
<circle cx="405.45" cy="143.61" r="2.70" style="stroke-width: 0.75;stroke: #0000FF;"/>
<circle cx="459.53" cy="131.13" r="2.70" style="stroke-width: 0.75;stroke: #0000FF;"/>
<circle cx="236.21" cy="176.93" r="2.70" style="stroke-width: 0.75;stroke: #0000FF;"/>
<circle cx="316.37" cy="157.78" r="2.70" style="stroke-width: 0.75;stroke: #0000FF;"/>
<circle cx="308.77" cy="159.56" r="2.70" style="stroke-width: 0.75;stroke: #0000FF;"/>
<circle cx="334.83" cy="154.54" r="2.70" style="stroke-width: 0.75;stroke: #0000FF;"/>
<circle cx="547.95" cy="110.51" r="2.70" style="stroke-width: 0.75;stroke: #0000FF;"/>
<circle cx="383.72" cy="145.92" r="2.70" style="stroke-width: 0.75;stroke: #0000FF;"/>
<circle cx="671.02" cy="64.47" r="2.70" style="stroke-width: 0.75;stroke: #0000FF;"/>
<circle cx="281.40" cy="166.73" r="2.70" style="stroke-width: 0.75;stroke: #0000FF;"/>
<circle cx="290.58" cy="163.53" r="2.70" style="stroke-width: 0.75;stroke: #0000FF;"/>
<circle cx="434.28" cy="138.19" r="2.70" style="stroke-width: 0.75;stroke: #0000FF;"/>
<circle cx="452.81" cy="132.17" r="2.70" style="stroke-width: 0.75;stroke: #0000FF;"/>
<circle cx="470.31" cy="125.49" r="2.70" style="stroke-width: 0.75;stroke: #0000FF;"/>
<circle cx="326.50" cy="155.44" r="2.70" style="stroke-width: 0.75;stroke: #0000FF;"/>
<circle cx="210.30" cy="179.67" r="2.70" style="stroke-width: 0.75;stroke: #0000FF;"/>
<circle cx="352.05" cy="150.35" r="2.70" style="stroke-width: 0.75;stroke: #0000FF;"/>
<circle cx="340.23" cy="153.21" r="2.70" style="stroke-width: 0.75;stroke: #0000FF;"/>
<circle cx="378.69" cy="146.42" r="2.70" style="stroke-width: 0.75;stroke: #0000FF;"/>
<circle cx="388.77" cy="145.66" r="2.70" style="stroke-width: 0.75;stroke: #0000FF;"/>
<circle cx="449.57" cy="132.79" r="2.70" style="stroke-width: 0.75;stroke: #0000FF;"/>
<circle cx="461.26" cy="128.74" r="2.70" style="stroke-width: 0.75;stroke: #0000FF;"/>
<circle cx="257.97" cy="170.92" r="2.70" style="stroke-width: 0.75;stroke: #0000FF;"/>
<circle cx="498.06" cy="121.33" r="2.70" style="stroke-width: 0.75;stroke: #0000FF;"/>
<circle cx="319.32" cy="156.98" r="2.70" style="stroke-width: 0.75;stroke: #0000FF;"/>
<circle cx="422.90" cy="139.52" r="2.70" style="stroke-width: 0.75;stroke: #0000FF;"/>
<circle cx="325.09" cy="155.67" r="2.70" style="stroke-width: 0.75;stroke: #0000FF;"/>
<circle cx="348.15" cy="150.65" r="2.70" style="stroke-width: 0.75;stroke: #0000FF;"/>
<circle cx="363.56" cy="148.66" r="2.70" style="stroke-width: 0.75;stroke: #0000FF;"/>
<circle cx="346.84" cy="150.66" r="2.70" style="stroke-width: 0.75;stroke: #0000FF;"/>
<circle cx="416.06" cy="141.10" r="2.70" style="stroke-width: 0.75;stroke: #0000FF;"/>
<circle cx="466.61" cy="128.10" r="2.70" style="stroke-width: 0.75;stroke: #0000FF;"/>
<circle cx="493.25" cy="122.48" r="2.70" style="stroke-width: 0.75;stroke: #0000FF;"/>
<circle cx="612.26" cy="97.36" r="2.70" style="stroke-width: 0.75;stroke: #0000FF;"/>
<circle cx="425.69" cy="138.98" r="2.70" style="stroke-width: 0.75;stroke: #0000FF;"/>
<circle cx="361.02" cy="149.47" r="2.70" style="stroke-width: 0.75;stroke: #0000FF;"/>
<circle cx="310.32" cy="158.50" r="2.70" style="stroke-width: 0.75;stroke: #0000FF;"/>
<circle cx="338.89" cy="153.49" r="2.70" style="stroke-width: 0.75;stroke: #0000FF;"/>
<circle cx="165.90" cy="190.54" r="2.70" style="stroke-width: 0.75;stroke: #0000FF;"/>
<circle cx="408.07" cy="143.42" r="2.70" style="stroke-width: 0.75;stroke: #0000FF;"/>
<circle cx="438.72" cy="136.21" r="2.70" style="stroke-width: 0.75;stroke: #0000FF;"/>
<circle cx="578.80" cy="106.06" r="2.70" style="stroke-width: 0.75;stroke: #0000FF;"/>
<circle cx="472.20" cy="125.25" r="2.70" style="stroke-width: 0.75;stroke: #0000FF;"/>
<circle cx="141.34" cy="195.36" r="2.70" style="stroke-width: 0.75;stroke: #0000FF;"/>
<circle cx="336.19" cy="154.16" r="2.70" style="stroke-width: 0.75;stroke: #0000FF;"/>
<circle cx="451.18" cy="132.67" r="2.70" style="stroke-width: 0.75;stroke: #0000FF;"/>
<circle cx="174.80" cy="187.40" r="2.70" style="stroke-width: 0.75;stroke: #0000FF;"/>
<circle cx="384.98" cy="145.91" r="2.70" style="stroke-width: 0.75;stroke: #0000FF;"/>
<circle cx="200.63" cy="180.77" r="2.70" style="stroke-width: 0.75;stroke: #0000FF;"/>
<circle cx="598.45" cy="99.77" r="2.70" style="stroke-width: 0.75;stroke: #0000FF;"/>
<circle cx="349.45" cy="150.57" r="2.70" style="stroke-width: 0.75;stroke: #0000FF;"/>
<circle cx="503.15" cy="119.96" r="2.70" style="stroke-width: 0.75;stroke: #0000FF;"/>
<circle cx="495.63" cy="122.45" r="2.70" style="stroke-width: 0.75;stroke: #0000FF;"/>
<circle cx="484.31" cy="123.84" r="2.70" style="stroke-width: 0.75;stroke: #0000FF;"/>
<circle cx="511.39" cy="117.75" r="2.70" style="stroke-width: 0.75;stroke: #0000FF;"/>
<circle cx="121.51" cy="195.73" r="2.70" style="stroke-width: 0.75;stroke: #0000FF;"/>
<circle cx="480.12" cy="124.07" r="2.70" style="stroke-width: 0.75;stroke: #0000FF;"/>
<circle cx="482.19" cy="124.00" r="2.70" style="stroke-width: 0.75;stroke: #0000FF;"/>
<circle cx="269.29" cy="167.81" r="2.70" style="stroke-width: 0.75;stroke: #0000FF;"/>
<circle cx="505.80" cy="119.33" r="2.70" style="stroke-width: 0.75;stroke: #0000FF;"/>
<circle cx="454.46" cy="132.07" r="2.70" style="stroke-width: 0.75;stroke: #0000FF;"/>
<circle cx="214.65" cy="179.58" r="2.70" style="stroke-width: 0.75;stroke: #0000FF;"/>
<circle cx="371.14" cy="147.34" r="2.70" style="stroke-width: 0.75;stroke: #0000FF;"/>
<circle cx="514.33" cy="117.73" r="2.70" style="stroke-width: 0.75;stroke: #0000FF;"/>
<circle cx="189.14" cy="183.74" r="2.70" style="stroke-width: 0.75;stroke: #0000FF;"/>
<circle cx="443.28" cy="135.37" r="2.70" style="stroke-width: 0.75;stroke: #0000FF;"/>
<circle cx="632.09" cy="85.43" r="2.70" style="stroke-width: 0.75;stroke: #0000FF;"/>
<circle cx="441.75" cy="136.14" r="2.70" style="stroke-width: 0.75;stroke: #0000FF;"/>
<circle cx="486.47" cy="123.25" r="2.70" style="stroke-width: 0.75;stroke: #0000FF;"/>
<circle cx="476.09" cy="124.57" r="2.70" style="stroke-width: 0.75;stroke: #0000FF;"/>
<circle cx="395.13" cy="145.33" r="2.70" style="stroke-width: 0.75;stroke: #0000FF;"/>
<circle cx="182.43" cy="185.68" r="2.70" style="stroke-width: 0.75;stroke: #0000FF;"/>
<circle cx="292.34" cy="163.52" r="2.70" style="stroke-width: 0.75;stroke: #0000FF;"/>
<circle cx="333.46" cy="154.81" r="2.70" style="stroke-width: 0.75;stroke: #0000FF;"/>
<circle cx="409.39" cy="143.36" r="2.70" style="stroke-width: 0.75;stroke: #0000FF;"/>
<circle cx="474.13" cy="124.89" r="2.70" style="stroke-width: 0.75;stroke: #0000FF;"/>
<circle cx="404.15" cy="143.62" r="2.70" style="stroke-width: 0.75;stroke: #0000FF;"/>
<circle cx="398.97" cy="144.77" r="2.70" style="stroke-width: 0.75;stroke: #0000FF;"/>
<circle cx="279.47" cy="166.85" r="2.70" style="stroke-width: 0.75;stroke: #0000FF;"/>
<circle cx="534.87" cy="112.84" r="2.70" style="stroke-width: 0.75;stroke: #0000FF;"/>
<circle cx="527.37" cy="113.97" r="2.70" style="stroke-width: 0.75;stroke: #0000FF;"/>
<circle cx="277.51" cy="166.92" r="2.70" style="stroke-width: 0.75;stroke: #0000FF;"/>
</g><g clip-path="url(#c2)">
<line x1="63.76" y1="205.76" x2="689.84" y2="205.76" style="stroke-width: 0.75;"/>
<line x1="63.76" y1="205.76" x2="63.76" y2="212.96" style="stroke-width: 0.75;"/>
<line x1="168.11" y1="205.76" x2="168.11" y2="212.96" style="stroke-width: 0.75;"/>
<line x1="272.45" y1="205.76" x2="272.45" y2="212.96" style="stroke-width: 0.75;"/>
<line x1="376.80" y1="205.76" x2="376.80" y2="212.96" style="stroke-width: 0.75;"/>
<line x1="481.15" y1="205.76" x2="481.15" y2="212.96" style="stroke-width: 0.75;"/>
<line x1="585.49" y1="205.76" x2="585.49" y2="212.96" style="stroke-width: 0.75;"/>
<line x1="689.84" y1="205.76" x2="689.84" y2="212.96" style="stroke-width: 0.75;"/>
<g><text x="63.76" y="231.68" text-anchor="middle" style="font-family: Arimo;font-size: 12.00px;" textLength="11.97px" lengthAdjust="spacingAndGlyphs">-3</text></g>
<g><text x="168.11" y="231.68" text-anchor="middle" style="font-family: Arimo;font-size: 12.00px;" textLength="11.97px" lengthAdjust="spacingAndGlyphs">-2</text></g>
<g><text x="272.45" y="231.68" text-anchor="middle" style="font-family: Arimo;font-size: 12.00px;" textLength="11.97px" lengthAdjust="spacingAndGlyphs">-1</text></g>
<g><text x="376.80" y="231.68" text-anchor="middle" style="font-family: Arimo;font-size: 12.00px;" textLength="7.64px" lengthAdjust="spacingAndGlyphs">0</text></g>
<g><text x="481.15" y="231.68" text-anchor="middle" style="font-family: Arimo;font-size: 12.00px;" textLength="7.64px" lengthAdjust="spacingAndGlyphs">1</text></g>
<g><text x="585.49" y="231.68" text-anchor="middle" style="font-family: Arimo;font-size: 12.00px;" textLength="7.64px" lengthAdjust="spacingAndGlyphs">2</text></g>
<g><text x="689.84" y="231.68" text-anchor="middle" style="font-family: Arimo;font-size: 12.00px;" textLength="7.64px" lengthAdjust="spacingAndGlyphs">3</text></g>
<line x1="59.04" y1="199.50" x2="59.04" y2="67.09" style="stroke-width: 0.75;"/>
<line x1="59.04" y1="199.50" x2="51.84" y2="199.50" style="stroke-width: 0.75;"/>
<line x1="59.04" y1="173.02" x2="51.84" y2="173.02" style="stroke-width: 0.75;"/>
<line x1="59.04" y1="146.54" x2="51.84" y2="146.54" style="stroke-width: 0.75;"/>
<line x1="59.04" y1="120.05" x2="51.84" y2="120.05" style="stroke-width: 0.75;"/>
<line x1="59.04" y1="93.57" x2="51.84" y2="93.57" style="stroke-width: 0.75;"/>
<line x1="59.04" y1="67.09" x2="51.84" y2="67.09" style="stroke-width: 0.75;"/>
<g><text transform="translate(41.76,199.50) rotate(-90.00)" text-anchor="middle" style="font-family: Arimo;font-size: 12.00px;" textLength="19.61px" lengthAdjust="spacingAndGlyphs">-10</text></g>
<g><text transform="translate(41.76,146.54) rotate(-90.00)" text-anchor="middle" style="font-family: Arimo;font-size: 12.00px;" textLength="7.64px" lengthAdjust="spacingAndGlyphs">0</text></g>
<g><text transform="translate(41.76,120.05) rotate(-90.00)" text-anchor="middle" style="font-family: Arimo;font-size: 12.00px;" textLength="7.64px" lengthAdjust="spacingAndGlyphs">5</text></g>
<g><text transform="translate(41.76,93.57) rotate(-90.00)" text-anchor="middle" style="font-family: Arimo;font-size: 12.00px;" textLength="15.28px" lengthAdjust="spacingAndGlyphs">10</text></g>
<polygon points="59.04,205.76 694.56,205.76 694.56,59.04 59.04,59.04" style="stroke-width: 0.75;" />
</g><g clip-path="url(#c3)">
<g><text x="376.80" y="26.13" text-anchor="middle" style="font-family: Arimo;font-size: 14.40px;font-weight: bold;" textLength="203.10px" lengthAdjust="spacingAndGlyphs">Assessment of Normality</text></g>
<g><text x="376.80" y="43.41" text-anchor="middle" style="font-family: Arimo;font-size: 14.40px;font-weight: bold;" textLength="475.98px" lengthAdjust="spacingAndGlyphs"> p-val for shapiro-wilk test of normality of residuals: 0.138</text></g>
<g><text x="376.80" y="246.08" text-anchor="middle" style="font-family: Arimo;font-size: 12.00px;" textLength="238.76px" lengthAdjust="spacingAndGlyphs">Normal Q-Q plot for in-sample residuals</text></g>
<g><text x="376.80" y="260.48" text-anchor="middle" style="font-family: Arimo;font-size: 12.00px;" textLength="137.28px" lengthAdjust="spacingAndGlyphs">(Theoretical Quantiles)</text></g>
<g><text transform="translate(12.96,132.40) rotate(-90.00)" text-anchor="middle" style="font-family: Arimo;font-size: 12.00px;" textLength="105.87px" lengthAdjust="spacingAndGlyphs">Sample Quantiles</text></g>
</g><g clip-path="url(#c4)">
<circle cx="132.81" cy="428.62" r="2.70" style="stroke-width: 0.75;stroke: #0000FF;"/>
<circle cx="129.20" cy="461.29" r="2.70" style="stroke-width: 0.75;stroke: #0000FF;"/>
<circle cx="118.19" cy="447.10" r="2.70" style="stroke-width: 0.75;stroke: #0000FF;"/>
<circle cx="119.45" cy="415.62" r="2.70" style="stroke-width: 0.75;stroke: #0000FF;"/>
<circle cx="121.90" cy="426.90" r="2.70" style="stroke-width: 0.75;stroke: #0000FF;"/>
<circle cx="124.11" cy="446.58" r="2.70" style="stroke-width: 0.75;stroke: #0000FF;"/>
<circle cx="109.52" cy="422.64" r="2.70" style="stroke-width: 0.75;stroke: #0000FF;"/>
<circle cx="98.45" cy="416.99" r="2.70" style="stroke-width: 0.75;stroke: #0000FF;"/>
<circle cx="100.26" cy="388.20" r="2.70" style="stroke-width: 0.75;stroke: #0000FF;"/>
<circle cx="99.60" cy="384.95" r="2.70" style="stroke-width: 0.75;stroke: #0000FF;"/>
<circle cx="105.10" cy="407.31" r="2.70" style="stroke-width: 0.75;stroke: #0000FF;"/>
<circle cx="101.72" cy="402.34" r="2.70" style="stroke-width: 0.75;stroke: #0000FF;"/>
<circle cx="109.32" cy="417.70" r="2.70" style="stroke-width: 0.75;stroke: #0000FF;"/>
<circle cx="105.02" cy="424.74" r="2.70" style="stroke-width: 0.75;stroke: #0000FF;"/>
<circle cx="105.93" cy="430.29" r="2.70" style="stroke-width: 0.75;stroke: #0000FF;"/>
<circle cx="91.76" cy="435.23" r="2.70" style="stroke-width: 0.75;stroke: #0000FF;"/>
<circle cx="88.34" cy="420.72" r="2.70" style="stroke-width: 0.75;stroke: #0000FF;"/>
<circle cx="88.76" cy="457.81" r="2.70" style="stroke-width: 0.75;stroke: #0000FF;"/>
<circle cx="91.32" cy="441.64" r="2.70" style="stroke-width: 0.75;stroke: #0000FF;"/>
<circle cx="92.24" cy="425.43" r="2.70" style="stroke-width: 0.75;stroke: #0000FF;"/>
<circle cx="87.02" cy="437.64" r="2.70" style="stroke-width: 0.75;stroke: #0000FF;"/>
<circle cx="87.59" cy="440.28" r="2.70" style="stroke-width: 0.75;stroke: #0000FF;"/>
<circle cx="96.87" cy="446.51" r="2.70" style="stroke-width: 0.75;stroke: #0000FF;"/>
<circle cx="94.48" cy="419.71" r="2.70" style="stroke-width: 0.75;stroke: #0000FF;"/>
<circle cx="95.43" cy="420.69" r="2.70" style="stroke-width: 0.75;stroke: #0000FF;"/>
<circle cx="98.21" cy="423.03" r="2.70" style="stroke-width: 0.75;stroke: #0000FF;"/>
<circle cx="98.91" cy="418.10" r="2.70" style="stroke-width: 0.75;stroke: #0000FF;"/>
<circle cx="98.32" cy="421.40" r="2.70" style="stroke-width: 0.75;stroke: #0000FF;"/>
<circle cx="106.36" cy="429.42" r="2.70" style="stroke-width: 0.75;stroke: #0000FF;"/>
<circle cx="115.89" cy="459.49" r="2.70" style="stroke-width: 0.75;stroke: #0000FF;"/>
<circle cx="118.51" cy="435.77" r="2.70" style="stroke-width: 0.75;stroke: #0000FF;"/>
<circle cx="117.43" cy="438.90" r="2.70" style="stroke-width: 0.75;stroke: #0000FF;"/>
<circle cx="118.42" cy="448.86" r="2.70" style="stroke-width: 0.75;stroke: #0000FF;"/>
<circle cx="113.48" cy="424.14" r="2.70" style="stroke-width: 0.75;stroke: #0000FF;"/>
<circle cx="116.47" cy="428.77" r="2.70" style="stroke-width: 0.75;stroke: #0000FF;"/>
<circle cx="113.20" cy="429.07" r="2.70" style="stroke-width: 0.75;stroke: #0000FF;"/>
<circle cx="113.92" cy="430.65" r="2.70" style="stroke-width: 0.75;stroke: #0000FF;"/>
<circle cx="117.13" cy="439.80" r="2.70" style="stroke-width: 0.75;stroke: #0000FF;"/>
<circle cx="114.89" cy="424.72" r="2.70" style="stroke-width: 0.75;stroke: #0000FF;"/>
<circle cx="126.60" cy="437.11" r="2.70" style="stroke-width: 0.75;stroke: #0000FF;"/>
<circle cx="126.84" cy="436.76" r="2.70" style="stroke-width: 0.75;stroke: #0000FF;"/>
<circle cx="112.76" cy="396.11" r="2.70" style="stroke-width: 0.75;stroke: #0000FF;"/>
<circle cx="118.55" cy="423.44" r="2.70" style="stroke-width: 0.75;stroke: #0000FF;"/>
<circle cx="123.51" cy="427.33" r="2.70" style="stroke-width: 0.75;stroke: #0000FF;"/>
<circle cx="130.74" cy="454.43" r="2.70" style="stroke-width: 0.75;stroke: #0000FF;"/>
<circle cx="127.78" cy="424.89" r="2.70" style="stroke-width: 0.75;stroke: #0000FF;"/>
<circle cx="128.08" cy="430.29" r="2.70" style="stroke-width: 0.75;stroke: #0000FF;"/>
<circle cx="127.83" cy="427.67" r="2.70" style="stroke-width: 0.75;stroke: #0000FF;"/>
<circle cx="128.01" cy="417.42" r="2.70" style="stroke-width: 0.75;stroke: #0000FF;"/>
<circle cx="129.44" cy="425.98" r="2.70" style="stroke-width: 0.75;stroke: #0000FF;"/>
<circle cx="146.04" cy="471.80" r="2.70" style="stroke-width: 0.75;stroke: #0000FF;"/>
<circle cx="128.42" cy="399.65" r="2.70" style="stroke-width: 0.75;stroke: #0000FF;"/>
<circle cx="140.60" cy="446.85" r="2.70" style="stroke-width: 0.75;stroke: #0000FF;"/>
<circle cx="129.26" cy="395.44" r="2.70" style="stroke-width: 0.75;stroke: #0000FF;"/>
<circle cx="149.76" cy="439.46" r="2.70" style="stroke-width: 0.75;stroke: #0000FF;"/>
<circle cx="148.08" cy="418.70" r="2.70" style="stroke-width: 0.75;stroke: #0000FF;"/>
<circle cx="150.87" cy="417.48" r="2.70" style="stroke-width: 0.75;stroke: #0000FF;"/>
<circle cx="150.31" cy="426.37" r="2.70" style="stroke-width: 0.75;stroke: #0000FF;"/>
<circle cx="149.58" cy="419.61" r="2.70" style="stroke-width: 0.75;stroke: #0000FF;"/>
<circle cx="160.70" cy="433.02" r="2.70" style="stroke-width: 0.75;stroke: #0000FF;"/>
<circle cx="161.89" cy="417.81" r="2.70" style="stroke-width: 0.75;stroke: #0000FF;"/>
<circle cx="168.15" cy="451.49" r="2.70" style="stroke-width: 0.75;stroke: #0000FF;"/>
<circle cx="159.91" cy="437.69" r="2.70" style="stroke-width: 0.75;stroke: #0000FF;"/>
<circle cx="157.50" cy="421.75" r="2.70" style="stroke-width: 0.75;stroke: #0000FF;"/>
<circle cx="166.70" cy="435.41" r="2.70" style="stroke-width: 0.75;stroke: #0000FF;"/>
<circle cx="163.75" cy="413.88" r="2.70" style="stroke-width: 0.75;stroke: #0000FF;"/>
<circle cx="151.48" cy="393.22" r="2.70" style="stroke-width: 0.75;stroke: #0000FF;"/>
<circle cx="148.36" cy="391.60" r="2.70" style="stroke-width: 0.75;stroke: #0000FF;"/>
<circle cx="154.61" cy="445.78" r="2.70" style="stroke-width: 0.75;stroke: #0000FF;"/>
<circle cx="138.93" cy="410.66" r="2.70" style="stroke-width: 0.75;stroke: #0000FF;"/>
<circle cx="157.88" cy="451.34" r="2.70" style="stroke-width: 0.75;stroke: #0000FF;"/>
<circle cx="152.74" cy="424.62" r="2.70" style="stroke-width: 0.75;stroke: #0000FF;"/>
<circle cx="147.10" cy="453.21" r="2.70" style="stroke-width: 0.75;stroke: #0000FF;"/>
<circle cx="97.29" cy="393.16" r="2.70" style="stroke-width: 0.75;stroke: #0000FF;"/>
<circle cx="107.38" cy="456.29" r="2.70" style="stroke-width: 0.75;stroke: #0000FF;"/>
<circle cx="105.52" cy="449.04" r="2.70" style="stroke-width: 0.75;stroke: #0000FF;"/>
<circle cx="82.58" cy="429.33" r="2.70" style="stroke-width: 0.75;stroke: #0000FF;"/>
<circle cx="87.59" cy="424.84" r="2.70" style="stroke-width: 0.75;stroke: #0000FF;"/>
<circle cx="104.77" cy="452.24" r="2.70" style="stroke-width: 0.75;stroke: #0000FF;"/>
<circle cx="105.58" cy="434.42" r="2.70" style="stroke-width: 0.75;stroke: #0000FF;"/>
<circle cx="111.31" cy="412.42" r="2.70" style="stroke-width: 0.75;stroke: #0000FF;"/>
<circle cx="123.44" cy="443.23" r="2.70" style="stroke-width: 0.75;stroke: #0000FF;"/>
<circle cx="124.58" cy="453.59" r="2.70" style="stroke-width: 0.75;stroke: #0000FF;"/>
<circle cx="126.77" cy="429.17" r="2.70" style="stroke-width: 0.75;stroke: #0000FF;"/>
<circle cx="136.82" cy="479.53" r="2.70" style="stroke-width: 0.75;stroke: #0000FF;"/>
<circle cx="126.54" cy="428.78" r="2.70" style="stroke-width: 0.75;stroke: #0000FF;"/>
<circle cx="134.84" cy="423.37" r="2.70" style="stroke-width: 0.75;stroke: #0000FF;"/>
<circle cx="117.63" cy="426.00" r="2.70" style="stroke-width: 0.75;stroke: #0000FF;"/>
<circle cx="124.45" cy="419.18" r="2.70" style="stroke-width: 0.75;stroke: #0000FF;"/>
<circle cx="125.49" cy="406.88" r="2.70" style="stroke-width: 0.75;stroke: #0000FF;"/>
<circle cx="136.29" cy="424.93" r="2.70" style="stroke-width: 0.75;stroke: #0000FF;"/>
<circle cx="131.42" cy="407.44" r="2.70" style="stroke-width: 0.75;stroke: #0000FF;"/>
<circle cx="145.25" cy="426.79" r="2.70" style="stroke-width: 0.75;stroke: #0000FF;"/>
<circle cx="142.91" cy="403.33" r="2.70" style="stroke-width: 0.75;stroke: #0000FF;"/>
<circle cx="146.66" cy="398.01" r="2.70" style="stroke-width: 0.75;stroke: #0000FF;"/>
<circle cx="144.01" cy="390.85" r="2.70" style="stroke-width: 0.75;stroke: #0000FF;"/>
<circle cx="158.47" cy="424.20" r="2.70" style="stroke-width: 0.75;stroke: #0000FF;"/>
<circle cx="157.19" cy="426.03" r="2.70" style="stroke-width: 0.75;stroke: #0000FF;"/>
<circle cx="153.61" cy="425.54" r="2.70" style="stroke-width: 0.75;stroke: #0000FF;"/>
<circle cx="156.93" cy="445.89" r="2.70" style="stroke-width: 0.75;stroke: #0000FF;"/>
<circle cx="132.44" cy="388.06" r="2.70" style="stroke-width: 0.75;stroke: #0000FF;"/>
<circle cx="134.67" cy="434.48" r="2.70" style="stroke-width: 0.75;stroke: #0000FF;"/>
<circle cx="149.91" cy="434.14" r="2.70" style="stroke-width: 0.75;stroke: #0000FF;"/>
<circle cx="151.19" cy="440.94" r="2.70" style="stroke-width: 0.75;stroke: #0000FF;"/>
<circle cx="161.71" cy="448.22" r="2.70" style="stroke-width: 0.75;stroke: #0000FF;"/>
<circle cx="158.04" cy="410.60" r="2.70" style="stroke-width: 0.75;stroke: #0000FF;"/>
<circle cx="158.75" cy="434.44" r="2.70" style="stroke-width: 0.75;stroke: #0000FF;"/>
<circle cx="162.99" cy="429.76" r="2.70" style="stroke-width: 0.75;stroke: #0000FF;"/>
<circle cx="166.41" cy="432.03" r="2.70" style="stroke-width: 0.75;stroke: #0000FF;"/>
<circle cx="176.50" cy="441.20" r="2.70" style="stroke-width: 0.75;stroke: #0000FF;"/>
<circle cx="173.78" cy="439.50" r="2.70" style="stroke-width: 0.75;stroke: #0000FF;"/>
<circle cx="177.83" cy="450.57" r="2.70" style="stroke-width: 0.75;stroke: #0000FF;"/>
<circle cx="171.75" cy="427.60" r="2.70" style="stroke-width: 0.75;stroke: #0000FF;"/>
<circle cx="178.46" cy="415.37" r="2.70" style="stroke-width: 0.75;stroke: #0000FF;"/>
<circle cx="172.96" cy="387.24" r="2.70" style="stroke-width: 0.75;stroke: #0000FF;"/>
<circle cx="199.10" cy="442.67" r="2.70" style="stroke-width: 0.75;stroke: #0000FF;"/>
<circle cx="207.96" cy="457.89" r="2.70" style="stroke-width: 0.75;stroke: #0000FF;"/>
<circle cx="193.66" cy="419.87" r="2.70" style="stroke-width: 0.75;stroke: #0000FF;"/>
<circle cx="195.93" cy="387.58" r="2.70" style="stroke-width: 0.75;stroke: #0000FF;"/>
<circle cx="205.05" cy="442.77" r="2.70" style="stroke-width: 0.75;stroke: #0000FF;"/>
<circle cx="205.63" cy="425.56" r="2.70" style="stroke-width: 0.75;stroke: #0000FF;"/>
<circle cx="216.19" cy="402.12" r="2.70" style="stroke-width: 0.75;stroke: #0000FF;"/>
<circle cx="229.50" cy="458.16" r="2.70" style="stroke-width: 0.75;stroke: #0000FF;"/>
<circle cx="230.60" cy="425.86" r="2.70" style="stroke-width: 0.75;stroke: #0000FF;"/>
<circle cx="227.65" cy="412.02" r="2.70" style="stroke-width: 0.75;stroke: #0000FF;"/>
<circle cx="243.27" cy="458.63" r="2.70" style="stroke-width: 0.75;stroke: #0000FF;"/>
<circle cx="238.76" cy="422.81" r="2.70" style="stroke-width: 0.75;stroke: #0000FF;"/>
<circle cx="236.96" cy="410.33" r="2.70" style="stroke-width: 0.75;stroke: #0000FF;"/>
<circle cx="259.28" cy="456.13" r="2.70" style="stroke-width: 0.75;stroke: #0000FF;"/>
<circle cx="263.31" cy="436.98" r="2.70" style="stroke-width: 0.75;stroke: #0000FF;"/>
<circle cx="255.42" cy="438.76" r="2.70" style="stroke-width: 0.75;stroke: #0000FF;"/>
<circle cx="268.24" cy="433.74" r="2.70" style="stroke-width: 0.75;stroke: #0000FF;"/>
<circle cx="250.62" cy="389.71" r="2.70" style="stroke-width: 0.75;stroke: #0000FF;"/>
<circle cx="264.23" cy="425.12" r="2.70" style="stroke-width: 0.75;stroke: #0000FF;"/>
<circle cx="244.98" cy="343.67" r="2.70" style="stroke-width: 0.75;stroke: #0000FF;"/>
<circle cx="257.50" cy="445.93" r="2.70" style="stroke-width: 0.75;stroke: #0000FF;"/>
<circle cx="248.88" cy="442.73" r="2.70" style="stroke-width: 0.75;stroke: #0000FF;"/>
<circle cx="264.08" cy="417.39" r="2.70" style="stroke-width: 0.75;stroke: #0000FF;"/>
<circle cx="263.38" cy="411.37" r="2.70" style="stroke-width: 0.75;stroke: #0000FF;"/>
<circle cx="255.32" cy="404.69" r="2.70" style="stroke-width: 0.75;stroke: #0000FF;"/>
<circle cx="252.07" cy="434.64" r="2.70" style="stroke-width: 0.75;stroke: #0000FF;"/>
<circle cx="258.61" cy="458.87" r="2.70" style="stroke-width: 0.75;stroke: #0000FF;"/>
<circle cx="265.93" cy="429.55" r="2.70" style="stroke-width: 0.75;stroke: #0000FF;"/>
<circle cx="269.16" cy="432.41" r="2.70" style="stroke-width: 0.75;stroke: #0000FF;"/>
<circle cx="271.84" cy="425.62" r="2.70" style="stroke-width: 0.75;stroke: #0000FF;"/>
<circle cx="271.16" cy="424.86" r="2.70" style="stroke-width: 0.75;stroke: #0000FF;"/>
<circle cx="278.99" cy="411.99" r="2.70" style="stroke-width: 0.75;stroke: #0000FF;"/>
<circle cx="278.20" cy="407.94" r="2.70" style="stroke-width: 0.75;stroke: #0000FF;"/>
<circle cx="295.32" cy="450.12" r="2.70" style="stroke-width: 0.75;stroke: #0000FF;"/>
<circle cx="285.66" cy="400.53" r="2.70" style="stroke-width: 0.75;stroke: #0000FF;"/>
<circle cx="302.61" cy="436.18" r="2.70" style="stroke-width: 0.75;stroke: #0000FF;"/>
<circle cx="309.57" cy="418.72" r="2.70" style="stroke-width: 0.75;stroke: #0000FF;"/>
<circle cx="313.10" cy="434.87" r="2.70" style="stroke-width: 0.75;stroke: #0000FF;"/>
<circle cx="316.17" cy="429.85" r="2.70" style="stroke-width: 0.75;stroke: #0000FF;"/>
<circle cx="320.08" cy="427.86" r="2.70" style="stroke-width: 0.75;stroke: #0000FF;"/>
<circle cx="321.11" cy="429.86" r="2.70" style="stroke-width: 0.75;stroke: #0000FF;"/>
<circle cx="326.66" cy="420.30" r="2.70" style="stroke-width: 0.75;stroke: #0000FF;"/>
<circle cx="324.00" cy="407.30" r="2.70" style="stroke-width: 0.75;stroke: #0000FF;"/>
<circle cx="327.42" cy="401.68" r="2.70" style="stroke-width: 0.75;stroke: #0000FF;"/>
<circle cx="340.58" cy="376.56" r="2.70" style="stroke-width: 0.75;stroke: #0000FF;"/>
<circle cx="376.76" cy="418.18" r="2.70" style="stroke-width: 0.75;stroke: #0000FF;"/>
<circle cx="365.86" cy="428.67" r="2.70" style="stroke-width: 0.75;stroke: #0000FF;"/>
<circle cx="356.91" cy="437.70" r="2.70" style="stroke-width: 0.75;stroke: #0000FF;"/>
<circle cx="358.78" cy="432.69" r="2.70" style="stroke-width: 0.75;stroke: #0000FF;"/>
<circle cx="377.80" cy="469.74" r="2.70" style="stroke-width: 0.75;stroke: #0000FF;"/>
<circle cx="365.14" cy="422.62" r="2.70" style="stroke-width: 0.75;stroke: #0000FF;"/>
<circle cx="378.45" cy="415.41" r="2.70" style="stroke-width: 0.75;stroke: #0000FF;"/>
<circle cx="382.27" cy="385.26" r="2.70" style="stroke-width: 0.75;stroke: #0000FF;"/>
<circle cx="388.17" cy="404.45" r="2.70" style="stroke-width: 0.75;stroke: #0000FF;"/>
<circle cx="382.03" cy="474.56" r="2.70" style="stroke-width: 0.75;stroke: #0000FF;"/>
<circle cx="377.42" cy="433.36" r="2.70" style="stroke-width: 0.75;stroke: #0000FF;"/>
<circle cx="365.78" cy="411.87" r="2.70" style="stroke-width: 0.75;stroke: #0000FF;"/>
<circle cx="393.03" cy="466.60" r="2.70" style="stroke-width: 0.75;stroke: #0000FF;"/>
<circle cx="386.71" cy="425.11" r="2.70" style="stroke-width: 0.75;stroke: #0000FF;"/>
<circle cx="414.05" cy="459.97" r="2.70" style="stroke-width: 0.75;stroke: #0000FF;"/>
<circle cx="398.20" cy="378.97" r="2.70" style="stroke-width: 0.75;stroke: #0000FF;"/>
<circle cx="411.43" cy="429.77" r="2.70" style="stroke-width: 0.75;stroke: #0000FF;"/>
<circle cx="413.95" cy="399.16" r="2.70" style="stroke-width: 0.75;stroke: #0000FF;"/>
<circle cx="429.94" cy="401.65" r="2.70" style="stroke-width: 0.75;stroke: #0000FF;"/>
<circle cx="440.84" cy="403.04" r="2.70" style="stroke-width: 0.75;stroke: #0000FF;"/>
<circle cx="441.17" cy="396.95" r="2.70" style="stroke-width: 0.75;stroke: #0000FF;"/>
<circle cx="427.22" cy="474.93" r="2.70" style="stroke-width: 0.75;stroke: #0000FF;"/>
<circle cx="353.35" cy="403.27" r="2.70" style="stroke-width: 0.75;stroke: #0000FF;"/>
<circle cx="426.73" cy="403.20" r="2.70" style="stroke-width: 0.75;stroke: #0000FF;"/>
<circle cx="466.52" cy="447.01" r="2.70" style="stroke-width: 0.75;stroke: #0000FF;"/>
<circle cx="485.26" cy="398.53" r="2.70" style="stroke-width: 0.75;stroke: #0000FF;"/>
<circle cx="468.41" cy="411.27" r="2.70" style="stroke-width: 0.75;stroke: #0000FF;"/>
<circle cx="471.67" cy="458.78" r="2.70" style="stroke-width: 0.75;stroke: #0000FF;"/>
<circle cx="513.14" cy="426.54" r="2.70" style="stroke-width: 0.75;stroke: #0000FF;"/>
<circle cx="521.68" cy="396.93" r="2.70" style="stroke-width: 0.75;stroke: #0000FF;"/>
<circle cx="536.89" cy="462.94" r="2.70" style="stroke-width: 0.75;stroke: #0000FF;"/>
<circle cx="538.10" cy="414.57" r="2.70" style="stroke-width: 0.75;stroke: #0000FF;"/>
<circle cx="546.98" cy="364.63" r="2.70" style="stroke-width: 0.75;stroke: #0000FF;"/>
<circle cx="592.95" cy="415.34" r="2.70" style="stroke-width: 0.75;stroke: #0000FF;"/>
<circle cx="593.28" cy="402.45" r="2.70" style="stroke-width: 0.75;stroke: #0000FF;"/>
<circle cx="605.12" cy="403.77" r="2.70" style="stroke-width: 0.75;stroke: #0000FF;"/>
<circle cx="614.45" cy="424.53" r="2.70" style="stroke-width: 0.75;stroke: #0000FF;"/>
<circle cx="671.02" cy="464.88" r="2.70" style="stroke-width: 0.75;stroke: #0000FF;"/>
<circle cx="653.68" cy="442.72" r="2.70" style="stroke-width: 0.75;stroke: #0000FF;"/>
<circle cx="653.75" cy="434.01" r="2.70" style="stroke-width: 0.75;stroke: #0000FF;"/>
<circle cx="595.13" cy="422.56" r="2.70" style="stroke-width: 0.75;stroke: #0000FF;"/>
<circle cx="591.34" cy="404.09" r="2.70" style="stroke-width: 0.75;stroke: #0000FF;"/>
<circle cx="544.83" cy="422.82" r="2.70" style="stroke-width: 0.75;stroke: #0000FF;"/>
<circle cx="598.09" cy="423.97" r="2.70" style="stroke-width: 0.75;stroke: #0000FF;"/>
<circle cx="524.44" cy="446.05" r="2.70" style="stroke-width: 0.75;stroke: #0000FF;"/>
<circle cx="553.98" cy="392.04" r="2.70" style="stroke-width: 0.75;stroke: #0000FF;"/>
<circle cx="585.68" cy="393.17" r="2.70" style="stroke-width: 0.75;stroke: #0000FF;"/>
<circle cx="563.50" cy="446.12" r="2.70" style="stroke-width: 0.75;stroke: #0000FF;"/>
</g><g clip-path="url(#c5)">
<line x1="146.18" y1="484.96" x2="588.44" y2="484.96" style="stroke-width: 0.75;"/>
<line x1="146.18" y1="484.96" x2="146.18" y2="492.16" style="stroke-width: 0.75;"/>
<line x1="293.60" y1="484.96" x2="293.60" y2="492.16" style="stroke-width: 0.75;"/>
<line x1="441.02" y1="484.96" x2="441.02" y2="492.16" style="stroke-width: 0.75;"/>
<line x1="588.44" y1="484.96" x2="588.44" y2="492.16" style="stroke-width: 0.75;"/>
<g><text x="146.18" y="510.88" text-anchor="middle" style="font-family: Arimo;font-size: 12.00px;" textLength="22.92px" lengthAdjust="spacingAndGlyphs">100</text></g>
<g><text x="293.60" y="510.88" text-anchor="middle" style="font-family: Arimo;font-size: 12.00px;" textLength="22.92px" lengthAdjust="spacingAndGlyphs">200</text></g>
<g><text x="441.02" y="510.88" text-anchor="middle" style="font-family: Arimo;font-size: 12.00px;" textLength="22.92px" lengthAdjust="spacingAndGlyphs">300</text></g>
<g><text x="588.44" y="510.88" text-anchor="middle" style="font-family: Arimo;font-size: 12.00px;" textLength="22.92px" lengthAdjust="spacingAndGlyphs">400</text></g>
<line x1="59.04" y1="478.70" x2="59.04" y2="346.29" style="stroke-width: 0.75;"/>
<line x1="59.04" y1="478.70" x2="51.84" y2="478.70" style="stroke-width: 0.75;"/>
<line x1="59.04" y1="452.22" x2="51.84" y2="452.22" style="stroke-width: 0.75;"/>
<line x1="59.04" y1="425.74" x2="51.84" y2="425.74" style="stroke-width: 0.75;"/>
<line x1="59.04" y1="399.25" x2="51.84" y2="399.25" style="stroke-width: 0.75;"/>
<line x1="59.04" y1="372.77" x2="51.84" y2="372.77" style="stroke-width: 0.75;"/>
<line x1="59.04" y1="346.29" x2="51.84" y2="346.29" style="stroke-width: 0.75;"/>
<g><text transform="translate(41.76,478.70) rotate(-90.00)" text-anchor="middle" style="font-family: Arimo;font-size: 12.00px;" textLength="19.61px" lengthAdjust="spacingAndGlyphs">-10</text></g>
<g><text transform="translate(41.76,425.74) rotate(-90.00)" text-anchor="middle" style="font-family: Arimo;font-size: 12.00px;" textLength="7.64px" lengthAdjust="spacingAndGlyphs">0</text></g>
<g><text transform="translate(41.76,399.25) rotate(-90.00)" text-anchor="middle" style="font-family: Arimo;font-size: 12.00px;" textLength="7.64px" lengthAdjust="spacingAndGlyphs">5</text></g>
<g><text transform="translate(41.76,372.77) rotate(-90.00)" text-anchor="middle" style="font-family: Arimo;font-size: 12.00px;" textLength="15.28px" lengthAdjust="spacingAndGlyphs">10</text></g>
<polygon points="59.04,484.96 694.56,484.96 694.56,338.24 59.04,338.24" style="stroke-width: 0.75;" />
</g><g clip-path="url(#c6)">
<g><text x="376.80" y="305.33" text-anchor="middle" style="font-family: Arimo;font-size: 14.40px;font-weight: bold;" textLength="276.31px" lengthAdjust="spacingAndGlyphs">Assessment of Heteroskedasticity</text></g>
<g><text x="376.80" y="322.61" text-anchor="middle" style="font-family: Arimo;font-size: 14.40px;font-weight: bold;" textLength="150.70px" lengthAdjust="spacingAndGlyphs">Fitted vs residuals</text></g>
<g><text x="376.80" y="539.68" text-anchor="middle" style="font-family: Arimo;font-size: 12.00px;" textLength="76.83px" lengthAdjust="spacingAndGlyphs">Fitted Values</text></g>
<g><text transform="translate(12.96,411.60) rotate(-90.00)" text-anchor="middle" style="font-family: Arimo;font-size: 12.00px;" textLength="56.95px" lengthAdjust="spacingAndGlyphs">Residuals</text></g>
</g><g clip-path="url(#c7)">
<line x1="59.04" y1="425.74" x2="694.56" y2="425.74" style="stroke-width: 0.75;"/>
</g>
</svg>