<svg xmlns="http://www.w3.org/2000/svg" xmlns:xlink="http://www.w3.org/1999/xlink" class="httpgd" width="1034.00" height="777.00" viewBox="0 0 827.20 621.60">
<defs>
  <style type='text/css'><![CDATA[
    .httpgd line, .httpgd polyline, .httpgd polygon, .httpgd path, .httpgd rect, .httpgd circle {
      fill: none;
      stroke: #000000;
      stroke-linecap: round;
      stroke-linejoin: round;
      stroke-miterlimit: 10.00;
    }
  ]]></style>
<clipPath id="c0"><rect x="0.00" y="0.00" width="827.20" height="621.60"/></clipPath>
<clipPath id="c1"><rect x="86.40" y="43.20" width="740.80" height="434.40"/></clipPath>
</defs>
<rect width="100%" height="100%" style="stroke: none;fill: #FFFFFF;"/>
<g clip-path="url(#c0)">
<rect x="113.84" y="60.19" width="83.65" height="417.41" style="stroke-width: 0.75;fill: #BEBEBE;"/>
<rect x="214.22" y="113.94" width="83.65" height="363.66" style="stroke-width: 0.75;fill: #BEBEBE;"/>
<rect x="314.60" y="190.26" width="83.65" height="287.34" style="stroke-width: 0.75;fill: #BEBEBE;"/>
<rect x="414.98" y="260.95" width="83.65" height="216.65" style="stroke-width: 0.75;fill: #BEBEBE;"/>
<rect x="515.35" y="312.24" width="83.65" height="165.36" style="stroke-width: 0.75;fill: #BEBEBE;"/>
<rect x="615.73" y="330.47" width="83.65" height="147.13" style="stroke-width: 0.75;fill: #BEBEBE;"/>
<rect x="716.11" y="330.56" width="83.65" height="147.04" style="stroke-width: 0.75;fill: #BEBEBE;"/>
<g><text transform="translate(160.04,492.00) rotate(-90.00)" text-anchor="end" style="font-family: Arimo;font-size: 12.00px;" textLength="47.80px" lengthAdjust="spacingAndGlyphs">UNRATE</text></g>
<g><text transform="translate(260.42,492.00) rotate(-90.00)" text-anchor="end" style="font-family: Arimo;font-size: 12.00px;" textLength="29.73px" lengthAdjust="spacingAndGlyphs">EFFR</text></g>
<g><text transform="translate(360.79,492.00) rotate(-90.00)" text-anchor="end" style="font-family: Arimo;font-size: 12.00px;" textLength="47.93px" lengthAdjust="spacingAndGlyphs">T10Y3M</text></g>
<g><text transform="translate(461.17,492.00) rotate(-90.00)" text-anchor="end" style="font-family: Arimo;font-size: 12.00px;" textLength="88.10px" lengthAdjust="spacingAndGlyphs">CPIAUCSL_PC1</text></g>
<g><text transform="translate(561.55,492.00) rotate(-90.00)" text-anchor="end" style="font-family: Arimo;font-size: 12.00px;" textLength="47.13px" lengthAdjust="spacingAndGlyphs">STLFSI4</text></g>
<g><text transform="translate(661.93,492.00) rotate(-90.00)" text-anchor="end" style="font-family: Arimo;font-size: 12.00px;" textLength="73.89px" lengthAdjust="spacingAndGlyphs">1y_real_rate</text></g>
<g><text transform="translate(762.31,492.00) rotate(-90.00)" text-anchor="end" style="font-family: Arimo;font-size: 12.00px;" textLength="111.72px" lengthAdjust="spacingAndGlyphs">2y_expec_Inflation</text></g>
<g><text transform="translate(40.32,260.40) rotate(-90.00)" text-anchor="middle" style="font-family: Arimo;font-size: 12.00px;" textLength="118.99px" lengthAdjust="spacingAndGlyphs">Inclusion Proportion</text></g>
<line x1="86.40" y1="477.60" x2="86.40" y2="128.68" style="stroke-width: 0.75;"/>
<line x1="86.40" y1="477.60" x2="79.20" y2="477.60" style="stroke-width: 0.75;"/>
<line x1="86.40" y1="390.37" x2="79.20" y2="390.37" style="stroke-width: 0.75;"/>
<line x1="86.40" y1="303.14" x2="79.20" y2="303.14" style="stroke-width: 0.75;"/>
<line x1="86.40" y1="215.91" x2="79.20" y2="215.91" style="stroke-width: 0.75;"/>
<line x1="86.40" y1="128.68" x2="79.20" y2="128.68" style="stroke-width: 0.75;"/>
<g><text x="72.00" y="481.97" text-anchor="end" style="font-family: Arimo;font-size: 12.00px;" textLength="26.73px" lengthAdjust="spacingAndGlyphs">0.00</text></g>
<g><text x="72.00" y="394.74" text-anchor="end" style="font-family: Arimo;font-size: 12.00px;" textLength="26.73px" lengthAdjust="spacingAndGlyphs">0.05</text></g>
<g><text x="72.00" y="307.51" text-anchor="end" style="font-family: Arimo;font-size: 12.00px;" textLength="26.73px" lengthAdjust="spacingAndGlyphs">0.10</text></g>
<g><text x="72.00" y="220.29" text-anchor="end" style="font-family: Arimo;font-size: 12.00px;" textLength="26.73px" lengthAdjust="spacingAndGlyphs">0.15</text></g>
<g><text x="72.00" y="133.06" text-anchor="end" style="font-family: Arimo;font-size: 12.00px;" textLength="26.73px" lengthAdjust="spacingAndGlyphs">0.20</text></g>
</g><g clip-path="url(#c1)">
<line x1="155.66" y1="60.19" x2="155.66" y2="43.20" style="stroke-width: 2.25;stroke: #966363;"/>
<line x1="256.04" y1="113.94" x2="256.04" y2="98.73" style="stroke-width: 2.25;stroke: #966363;"/>
<line x1="356.42" y1="190.26" x2="356.42" y2="180.15" style="stroke-width: 2.25;stroke: #966363;"/>
<line x1="456.80" y1="260.95" x2="456.80" y2="246.73" style="stroke-width: 2.25;stroke: #966363;"/>
<line x1="557.18" y1="312.24" x2="557.18" y2="300.08" style="stroke-width: 2.25;stroke: #966363;"/>
<line x1="657.56" y1="330.47" x2="657.56" y2="317.22" style="stroke-width: 2.25;stroke: #966363;"/>
<line x1="757.94" y1="330.56" x2="757.94" y2="312.96" style="stroke-width: 2.25;stroke: #966363;"/>
<line x1="155.66" y1="60.19" x2="155.66" y2="77.18" style="stroke-width: 2.25;stroke: #966363;"/>
<line x1="256.04" y1="113.94" x2="256.04" y2="129.16" style="stroke-width: 2.25;stroke: #966363;"/>
<line x1="356.42" y1="190.26" x2="356.42" y2="200.37" style="stroke-width: 2.25;stroke: #966363;"/>
<line x1="456.80" y1="260.95" x2="456.80" y2="275.17" style="stroke-width: 2.25;stroke: #966363;"/>
<line x1="557.18" y1="312.24" x2="557.18" y2="324.41" style="stroke-width: 2.25;stroke: #966363;"/>
<line x1="657.56" y1="330.47" x2="657.56" y2="343.72" style="stroke-width: 2.25;stroke: #966363;"/>
<line x1="757.94" y1="330.56" x2="757.94" y2="348.16" style="stroke-width: 2.25;stroke: #966363;"/>
</g>
</svg>