<svg xmlns="http://www.w3.org/2000/svg" xmlns:xlink="http://www.w3.org/1999/xlink" class="httpgd" width="911.00" height="623.00" viewBox="0 0 728.80 498.40">
<defs>
  <style type='text/css'><![CDATA[
    .httpgd line, .httpgd polyline, .httpgd polygon, .httpgd path, .httpgd rect, .httpgd circle {
      fill: none;
      stroke: #000000;
      stroke-linecap: round;
      stroke-linejoin: round;
      stroke-miterlimit: 10.00;
    }
  ]]></style>
<clipPath id="c0"><rect x="0.00" y="0.00" width="728.80" height="498.40"/></clipPath>
<clipPath id="c1"><rect x="59.04" y="59.04" width="639.52" height="365.92"/></clipPath>
<clipPath id="c2"><rect x="0.00" y="0.00" width="728.80" height="498.40"/></clipPath>
<clipPath id="c3"><rect x="59.04" y="59.04" width="639.52" height="365.92"/></clipPath>
</defs>
<rect width="100%" height="100%" style="stroke: none;fill: #FFFFFF;"/>
<g clip-path="url(#c0)">
</g><g clip-path="url(#c1)">
<polyline points="82.73,103.63 102.92,146.94 163.50,246.67 193.79,246.67 224.07,289.25 264.46,315.98 304.84,317.09 345.23,321.11 496.67,389.02 627.93,383.40 674.87,387.64" style="stroke-width: 0.75;"/>
<circle cx="82.73" cy="103.63" r="2.70" style="stroke-width: 0.75;"/>
<circle cx="102.92" cy="146.94" r="2.70" style="stroke-width: 0.75;"/>
<circle cx="163.50" cy="246.67" r="2.70" style="stroke-width: 0.75;"/>
<circle cx="193.79" cy="246.67" r="2.70" style="stroke-width: 0.75;"/>
<circle cx="224.07" cy="289.25" r="2.70" style="stroke-width: 0.75;"/>
<circle cx="264.46" cy="315.98" r="2.70" style="stroke-width: 0.75;"/>
<circle cx="304.84" cy="317.09" r="2.70" style="stroke-width: 0.75;"/>
<circle cx="345.23" cy="321.11" r="2.70" style="stroke-width: 0.75;"/>
<circle cx="496.67" cy="389.02" r="2.70" style="stroke-width: 0.75;"/>
<circle cx="627.93" cy="383.40" r="2.70" style="stroke-width: 0.75;"/>
<circle cx="674.87" cy="387.64" r="2.70" style="stroke-width: 0.75;"/>
</g><g clip-path="url(#c2)">
<line x1="123.11" y1="424.96" x2="627.93" y2="424.96" style="stroke-width: 0.75;"/>
<line x1="123.11" y1="424.96" x2="123.11" y2="432.16" style="stroke-width: 0.75;"/>
<line x1="224.07" y1="424.96" x2="224.07" y2="432.16" style="stroke-width: 0.75;"/>
<line x1="325.04" y1="424.96" x2="325.04" y2="432.16" style="stroke-width: 0.75;"/>
<line x1="426.00" y1="424.96" x2="426.00" y2="432.16" style="stroke-width: 0.75;"/>
<line x1="526.96" y1="424.96" x2="526.96" y2="432.16" style="stroke-width: 0.75;"/>
<line x1="627.93" y1="424.96" x2="627.93" y2="432.16" style="stroke-width: 0.75;"/>
<g><text x="123.11" y="450.88" text-anchor="middle" style="font-family: Arimo;font-size: 12.00px;" textLength="7.64px" lengthAdjust="spacingAndGlyphs">4</text></g>
<g><text x="224.07" y="450.88" text-anchor="middle" style="font-family: Arimo;font-size: 12.00px;" textLength="7.64px" lengthAdjust="spacingAndGlyphs">5</text></g>
<g><text x="325.04" y="450.88" text-anchor="middle" style="font-family: Arimo;font-size: 12.00px;" textLength="7.64px" lengthAdjust="spacingAndGlyphs">6</text></g>
<g><text x="426.00" y="450.88" text-anchor="middle" style="font-family: Arimo;font-size: 12.00px;" textLength="7.64px" lengthAdjust="spacingAndGlyphs">7</text></g>
<g><text x="526.96" y="450.88" text-anchor="middle" style="font-family: Arimo;font-size: 12.00px;" textLength="7.64px" lengthAdjust="spacingAndGlyphs">8</text></g>
<g><text x="627.93" y="450.88" text-anchor="middle" style="font-family: Arimo;font-size: 12.00px;" textLength="7.64px" lengthAdjust="spacingAndGlyphs">9</text></g>
<line x1="59.04" y1="414.88" x2="59.04" y2="114.67" style="stroke-width: 0.75;"/>
<line x1="59.04" y1="414.88" x2="51.84" y2="414.88" style="stroke-width: 0.75;"/>
<line x1="59.04" y1="354.84" x2="51.84" y2="354.84" style="stroke-width: 0.75;"/>
<line x1="59.04" y1="294.80" x2="51.84" y2="294.80" style="stroke-width: 0.75;"/>
<line x1="59.04" y1="234.75" x2="51.84" y2="234.75" style="stroke-width: 0.75;"/>
<line x1="59.04" y1="174.71" x2="51.84" y2="174.71" style="stroke-width: 0.75;"/>
<line x1="59.04" y1="114.67" x2="51.84" y2="114.67" style="stroke-width: 0.75;"/>
<g><text transform="translate(41.76,414.88) rotate(-90.00)" text-anchor="middle" style="font-family: Arimo;font-size: 12.00px;" textLength="15.28px" lengthAdjust="spacingAndGlyphs">50</text></g>
<g><text transform="translate(41.76,354.84) rotate(-90.00)" text-anchor="middle" style="font-family: Arimo;font-size: 12.00px;" textLength="22.92px" lengthAdjust="spacingAndGlyphs">100</text></g>
<g><text transform="translate(41.76,294.80) rotate(-90.00)" text-anchor="middle" style="font-family: Arimo;font-size: 12.00px;" textLength="22.92px" lengthAdjust="spacingAndGlyphs">150</text></g>
<g><text transform="translate(41.76,234.75) rotate(-90.00)" text-anchor="middle" style="font-family: Arimo;font-size: 12.00px;" textLength="22.92px" lengthAdjust="spacingAndGlyphs">200</text></g>
<g><text transform="translate(41.76,174.71) rotate(-90.00)" text-anchor="middle" style="font-family: Arimo;font-size: 12.00px;" textLength="22.92px" lengthAdjust="spacingAndGlyphs">250</text></g>
<g><text transform="translate(41.76,114.67) rotate(-90.00)" text-anchor="middle" style="font-family: Arimo;font-size: 12.00px;" textLength="22.92px" lengthAdjust="spacingAndGlyphs">300</text></g>
<polygon points="59.04,424.96 698.56,424.96 698.56,59.04 59.04,59.04" style="stroke-width: 0.75;" />
<g><text x="378.80" y="34.77" text-anchor="middle" style="font-family: Arimo;font-size: 14.40px;font-weight: bold;" textLength="196.33px" lengthAdjust="spacingAndGlyphs">Partial Dependence Plot</text></g>
<g><text x="378.80" y="479.68" text-anchor="middle" style="font-family: Arimo;font-size: 12.00px;" textLength="226.83px" lengthAdjust="spacingAndGlyphs">UNRATE plotted at specified quantiles</text></g>
<g><text transform="translate(12.96,242.00) rotate(-90.00)" text-anchor="middle" style="font-family: Arimo;font-size: 12.00px;" textLength="76.27px" lengthAdjust="spacingAndGlyphs">Partial Effect</text></g>
</g><g clip-path="url(#c3)">
<polygon points="82.73,72.59 102.92,111.78 163.50,221.74 193.79,221.88 224.07,274.47 264.46,307.97 304.84,309.56 345.23,309.56 496.67,377.88 627.93,363.08 674.87,363.04 674.87,403.16 627.93,393.42 496.67,411.41 345.23,342.23 304.84,329.30 264.46,323.80 224.07,299.74 193.79,263.03 163.50,263.09 102.92,174.31 82.73,123.96" style="stroke-width: 0.75;stroke: none;fill: #DEDEDE;" />
<polyline points="82.73,123.96 102.92,174.31 163.50,263.09 193.79,263.03 224.07,299.74 264.46,323.80 304.84,329.30 345.23,342.23 496.67,411.41 627.93,393.42 674.87,403.16" style="stroke-width: 0.75;stroke: #0000FF;"/>
<circle cx="82.73" cy="123.96" r="2.70" style="stroke-width: 0.75;stroke: #0000FF;"/>
<circle cx="102.92" cy="174.31" r="2.70" style="stroke-width: 0.75;stroke: #0000FF;"/>
<circle cx="163.50" cy="263.09" r="2.70" style="stroke-width: 0.75;stroke: #0000FF;"/>
<circle cx="193.79" cy="263.03" r="2.70" style="stroke-width: 0.75;stroke: #0000FF;"/>
<circle cx="224.07" cy="299.74" r="2.70" style="stroke-width: 0.75;stroke: #0000FF;"/>
<circle cx="264.46" cy="323.80" r="2.70" style="stroke-width: 0.75;stroke: #0000FF;"/>
<circle cx="304.84" cy="329.30" r="2.70" style="stroke-width: 0.75;stroke: #0000FF;"/>
<circle cx="345.23" cy="342.23" r="2.70" style="stroke-width: 0.75;stroke: #0000FF;"/>
<circle cx="496.67" cy="411.41" r="2.70" style="stroke-width: 0.75;stroke: #0000FF;"/>
<circle cx="627.93" cy="393.42" r="2.70" style="stroke-width: 0.75;stroke: #0000FF;"/>
<circle cx="674.87" cy="403.16" r="2.70" style="stroke-width: 0.75;stroke: #0000FF;"/>
<polyline points="82.73,72.59 102.92,111.78 163.50,221.74 193.79,221.88 224.07,274.47 264.46,307.97 304.84,309.56 345.23,309.56 496.67,377.88 627.93,363.08 674.87,363.04" style="stroke-width: 0.75;stroke: #0000FF;"/>
<circle cx="82.73" cy="72.59" r="2.70" style="stroke-width: 0.75;stroke: #0000FF;"/>
<circle cx="102.92" cy="111.78" r="2.70" style="stroke-width: 0.75;stroke: #0000FF;"/>
<circle cx="163.50" cy="221.74" r="2.70" style="stroke-width: 0.75;stroke: #0000FF;"/>
<circle cx="193.79" cy="221.88" r="2.70" style="stroke-width: 0.75;stroke: #0000FF;"/>
<circle cx="224.07" cy="274.47" r="2.70" style="stroke-width: 0.75;stroke: #0000FF;"/>
<circle cx="264.46" cy="307.97" r="2.70" style="stroke-width: 0.75;stroke: #0000FF;"/>
<circle cx="304.84" cy="309.56" r="2.70" style="stroke-width: 0.75;stroke: #0000FF;"/>
<circle cx="345.23" cy="309.56" r="2.70" style="stroke-width: 0.75;stroke: #0000FF;"/>
<circle cx="496.67" cy="377.88" r="2.70" style="stroke-width: 0.75;stroke: #0000FF;"/>
<circle cx="627.93" cy="363.08" r="2.70" style="stroke-width: 0.75;stroke: #0000FF;"/>
<circle cx="674.87" cy="363.04" r="2.70" style="stroke-width: 0.75;stroke: #0000FF;"/>
<polyline points="82.73,103.63 102.92,146.94 163.50,246.67 193.79,246.67 224.07,289.25 264.46,315.98 304.84,317.09 345.23,321.11 496.67,389.02 627.93,383.40 674.87,387.64" style="stroke-width: 1.50;"/>
<circle cx="82.73" cy="103.63" r="2.70" style="stroke-width: 1.50;"/>
<circle cx="102.92" cy="146.94" r="2.70" style="stroke-width: 1.50;"/>
<circle cx="163.50" cy="246.67" r="2.70" style="stroke-width: 1.50;"/>
<circle cx="193.79" cy="246.67" r="2.70" style="stroke-width: 1.50;"/>
<circle cx="224.07" cy="289.25" r="2.70" style="stroke-width: 1.50;"/>
<circle cx="264.46" cy="315.98" r="2.70" style="stroke-width: 1.50;"/>
<circle cx="304.84" cy="317.09" r="2.70" style="stroke-width: 1.50;"/>
<circle cx="345.23" cy="321.11" r="2.70" style="stroke-width: 1.50;"/>
<circle cx="496.67" cy="389.02" r="2.70" style="stroke-width: 1.50;"/>
<circle cx="627.93" cy="383.40" r="2.70" style="stroke-width: 1.50;"/>
<circle cx="674.87" cy="387.64" r="2.70" style="stroke-width: 1.50;"/>
</g>
</svg>