<svg xmlns="http://www.w3.org/2000/svg" xmlns:xlink="http://www.w3.org/1999/xlink" class="httpgd" width="617.00" height="475.00" viewBox="0 0 493.60 380.00">
<defs>
  <style type='text/css'><![CDATA[
    .httpgd line, .httpgd polyline, .httpgd polygon, .httpgd path, .httpgd rect, .httpgd circle {
      fill: none;
      stroke: #000000;
      stroke-linecap: round;
      stroke-linejoin: round;
      stroke-miterlimit: 10.00;
    }
  ]]></style>
<clipPath id="c0"><rect x="0.00" y="0.00" width="493.60" height="380.00"/></clipPath>
<clipPath id="c1"><rect x="59.04" y="59.04" width="404.32" height="247.52"/></clipPath>
<clipPath id="c2"><rect x="0.00" y="0.00" width="493.60" height="380.00"/></clipPath>
<clipPath id="c3"><rect x="59.04" y="59.04" width="404.32" height="247.52"/></clipPath>
</defs>
<rect width="100%" height="100%" style="stroke: none;fill: #FFFFFF;"/>
<g clip-path="url(#c0)">
</g><g clip-path="url(#c1)">
<polyline points="74.01,212.99 105.21,221.53 136.41,172.95 167.61,222.07 198.80,213.60 230.00,197.17 261.20,184.50 292.40,202.48 323.60,223.82 354.79,189.71 385.99,220.53 417.19,210.99 448.39,222.11" style="stroke-width: 0.75;"/>
<circle cx="74.01" cy="212.99" r="2.70" style="stroke-width: 0.75;"/>
<circle cx="105.21" cy="221.53" r="2.70" style="stroke-width: 0.75;"/>
<circle cx="136.41" cy="172.95" r="2.70" style="stroke-width: 0.75;"/>
<circle cx="167.61" cy="222.07" r="2.70" style="stroke-width: 0.75;"/>
<circle cx="198.80" cy="213.60" r="2.70" style="stroke-width: 0.75;"/>
<circle cx="230.00" cy="197.17" r="2.70" style="stroke-width: 0.75;"/>
<circle cx="261.20" cy="184.50" r="2.70" style="stroke-width: 0.75;"/>
<circle cx="292.40" cy="202.48" r="2.70" style="stroke-width: 0.75;"/>
<circle cx="323.60" cy="223.82" r="2.70" style="stroke-width: 0.75;"/>
<circle cx="354.79" cy="189.71" r="2.70" style="stroke-width: 0.75;"/>
<circle cx="385.99" cy="220.53" r="2.70" style="stroke-width: 0.75;"/>
<circle cx="417.19" cy="210.99" r="2.70" style="stroke-width: 0.75;"/>
<circle cx="448.39" cy="222.11" r="2.70" style="stroke-width: 0.75;"/>
</g><g clip-path="url(#c2)">
<line x1="105.21" y1="306.56" x2="417.19" y2="306.56" style="stroke-width: 0.75;"/>
<line x1="105.21" y1="306.56" x2="105.21" y2="313.76" style="stroke-width: 0.75;"/>
<line x1="167.61" y1="306.56" x2="167.61" y2="313.76" style="stroke-width: 0.75;"/>
<line x1="230.00" y1="306.56" x2="230.00" y2="313.76" style="stroke-width: 0.75;"/>
<line x1="292.40" y1="306.56" x2="292.40" y2="313.76" style="stroke-width: 0.75;"/>
<line x1="354.79" y1="306.56" x2="354.79" y2="313.76" style="stroke-width: 0.75;"/>
<line x1="417.19" y1="306.56" x2="417.19" y2="313.76" style="stroke-width: 0.75;"/>
<g><text x="105.21" y="332.48" text-anchor="middle" style="font-family: Arimo;font-size: 12.00px;" textLength="15.28px" lengthAdjust="spacingAndGlyphs">20</text></g>
<g><text x="167.61" y="332.48" text-anchor="middle" style="font-family: Arimo;font-size: 12.00px;" textLength="15.28px" lengthAdjust="spacingAndGlyphs">30</text></g>
<g><text x="230.00" y="332.48" text-anchor="middle" style="font-family: Arimo;font-size: 12.00px;" textLength="15.28px" lengthAdjust="spacingAndGlyphs">40</text></g>
<g><text x="292.40" y="332.48" text-anchor="middle" style="font-family: Arimo;font-size: 12.00px;" textLength="15.28px" lengthAdjust="spacingAndGlyphs">50</text></g>
<g><text x="354.79" y="332.48" text-anchor="middle" style="font-family: Arimo;font-size: 12.00px;" textLength="15.28px" lengthAdjust="spacingAndGlyphs">60</text></g>
<g><text x="417.19" y="332.48" text-anchor="middle" style="font-family: Arimo;font-size: 12.00px;" textLength="15.28px" lengthAdjust="spacingAndGlyphs">70</text></g>
<line x1="59.04" y1="297.21" x2="59.04" y2="80.33" style="stroke-width: 0.75;"/>
<line x1="59.04" y1="297.21" x2="51.84" y2="297.21" style="stroke-width: 0.75;"/>
<line x1="59.04" y1="242.99" x2="51.84" y2="242.99" style="stroke-width: 0.75;"/>
<line x1="59.04" y1="188.77" x2="51.84" y2="188.77" style="stroke-width: 0.75;"/>
<line x1="59.04" y1="134.55" x2="51.84" y2="134.55" style="stroke-width: 0.75;"/>
<line x1="59.04" y1="80.33" x2="51.84" y2="80.33" style="stroke-width: 0.75;"/>
<g><text transform="translate(41.76,297.21) rotate(-90.00)" text-anchor="middle" style="font-family: Arimo;font-size: 12.00px;" textLength="19.09px" lengthAdjust="spacingAndGlyphs">0.0</text></g>
<g><text transform="translate(41.76,242.99) rotate(-90.00)" text-anchor="middle" style="font-family: Arimo;font-size: 12.00px;" textLength="19.09px" lengthAdjust="spacingAndGlyphs">0.5</text></g>
<g><text transform="translate(41.76,188.77) rotate(-90.00)" text-anchor="middle" style="font-family: Arimo;font-size: 12.00px;" textLength="19.09px" lengthAdjust="spacingAndGlyphs">1.0</text></g>
<g><text transform="translate(41.76,134.55) rotate(-90.00)" text-anchor="middle" style="font-family: Arimo;font-size: 12.00px;" textLength="19.09px" lengthAdjust="spacingAndGlyphs">1.5</text></g>
<g><text transform="translate(41.76,80.33) rotate(-90.00)" text-anchor="middle" style="font-family: Arimo;font-size: 12.00px;" textLength="19.09px" lengthAdjust="spacingAndGlyphs">2.0</text></g>
<polygon points="59.04,306.56 463.36,306.56 463.36,59.04 59.04,59.04" style="stroke-width: 0.75;" />
<g><text x="261.20" y="34.77" text-anchor="middle" style="font-family: Arimo;font-size: 14.40px;font-weight: bold;" textLength="334.02px" lengthAdjust="spacingAndGlyphs">Out-Of-Sample RMSE by Number of Trees</text></g>
<g><text x="261.20" y="361.28" text-anchor="middle" style="font-family: Arimo;font-size: 12.00px;" textLength="98.68px" lengthAdjust="spacingAndGlyphs">Number of Trees</text></g>
<g><text transform="translate(12.96,182.80) rotate(-90.00)" text-anchor="middle" style="font-family: Arimo;font-size: 12.00px;" textLength="126.50px" lengthAdjust="spacingAndGlyphs">Out-Of-Sample RMSE</text></g>
</g><g clip-path="url(#c3)">
<line x1="74.01" y1="224.92" x2="74.01" y2="201.05" style="stroke-width: 0.07;stroke: #BEBEBE;"/>
<line x1="105.21" y1="235.07" x2="105.21" y2="207.99" style="stroke-width: 0.07;stroke: #BEBEBE;"/>
<line x1="136.41" y1="232.22" x2="136.41" y2="113.69" style="stroke-width: 0.07;stroke: #BEBEBE;"/>
<line x1="167.61" y1="230.63" x2="167.61" y2="213.51" style="stroke-width: 0.07;stroke: #BEBEBE;"/>
<line x1="198.80" y1="226.11" x2="198.80" y2="201.08" style="stroke-width: 0.07;stroke: #BEBEBE;"/>
<line x1="230.00" y1="211.68" x2="230.00" y2="182.66" style="stroke-width: 0.07;stroke: #BEBEBE;"/>
<line x1="261.20" y1="246.22" x2="261.20" y2="122.78" style="stroke-width: 0.07;stroke: #BEBEBE;"/>
<line x1="292.40" y1="226.87" x2="292.40" y2="178.09" style="stroke-width: 0.07;stroke: #BEBEBE;"/>
<line x1="323.60" y1="260.33" x2="323.60" y2="187.31" style="stroke-width: 0.07;stroke: #BEBEBE;"/>
<line x1="354.79" y1="250.64" x2="354.79" y2="128.79" style="stroke-width: 0.07;stroke: #BEBEBE;"/>
<line x1="385.99" y1="228.87" x2="385.99" y2="212.19" style="stroke-width: 0.07;stroke: #BEBEBE;"/>
<line x1="417.19" y1="230.99" x2="417.19" y2="190.99" style="stroke-width: 0.07;stroke: #BEBEBE;"/>
<line x1="448.39" y1="233.97" x2="448.39" y2="210.26" style="stroke-width: 0.07;stroke: #BEBEBE;"/>
</g>
</svg>